<?xml version="1.0" encoding="UTF-8" standalone="no"?>
<!-- Created with Inkscape (http://www.inkscape.org/) -->

<svg
   xmlns:dc="http://purl.org/dc/elements/1.1/"
   xmlns:cc="http://creativecommons.org/ns#"
   xmlns:rdf="http://www.w3.org/1999/02/22-rdf-syntax-ns#"
   xmlns:svg="http://www.w3.org/2000/svg"
   xmlns="http://www.w3.org/2000/svg"
   xmlns:sodipodi="http://sodipodi.sourceforge.net/DTD/sodipodi-0.dtd"
   xmlns:inkscape="http://www.inkscape.org/namespaces/inkscape"
   sodipodi:docname="rel_pose_vectors_bw.svg"
   inkscape:version="0.91 r13725"
   version="1.1"
   id="svg2"
   viewBox="0 0 744.09448819 1052.3622047"
   height="297mm"
   width="210mm"
   inkscape:export-filename="/home/skyler/my_papers/handoff_paper/figures/rel_pose_vectors_bw.png"
   inkscape:export-xdpi="300"
   inkscape:export-ydpi="300">
  <sodipodi:namedview
     inkscape:window-maximized="1"
     inkscape:window-y="21"
     inkscape:window-x="57"
     inkscape:window-height="1059"
     inkscape:window-width="1863"
     inkscape:snap-bbox-midpoints="true"
     inkscape:snap-bbox="true"
     inkscape:snap-global="true"
     showgrid="false"
     inkscape:current-layer="svg2"
     inkscape:document-units="px"
     inkscape:cy="628.34929"
     inkscape:cx="239.269"
     inkscape:zoom="2.8"
     inkscape:pageshadow="2"
     inkscape:pageopacity="0.0"
     borderopacity="1.0"
     bordercolor="#666666"
     pagecolor="#ffffff"
     id="base" />
  <defs
     id="defs4">
    <marker
       inkscape:isstock="true"
       style="overflow:visible"
       id="marker8056"
       refX="0.0"
       refY="0.0"
       orient="auto"
       inkscape:stockid="StopL">
      <path
         transform="scale(0.8)"
         style="fill:none;fill-opacity:0.75;fill-rule:evenodd;stroke:#000000;stroke-width:1pt;stroke-opacity:1"
         d="M 0.0,5.65 L 0.0,-5.65"
         id="path8058" />
    </marker>
    <marker
       inkscape:isstock="true"
       style="overflow:visible"
       id="SemiCircleOut"
       refX="0.0"
       refY="0.0"
       orient="auto"
       inkscape:stockid="SemiCircleOut">
      <path
         transform="scale(0.6) translate(7.125493,0.763446)"
         style="fill-rule:evenodd;stroke:#000000;stroke-width:1pt;stroke-opacity:1;fill:#000000;fill-opacity:1"
         d="M -2.5,-0.80913858 C -2.5,1.9508614 -4.7400000,4.1908614 -7.5,4.1908614 L -7.5,-5.8091386 C -4.7400000,-5.8091386 -2.5,-3.5691386 -2.5,-0.80913858 z "
         id="path5449" />
    </marker>
    <marker
       inkscape:isstock="true"
       style="overflow:visible"
       id="SemiCircleIn"
       refX="0.0"
       refY="0.0"
       orient="auto"
       inkscape:stockid="SemiCircleIn">
      <path
         transform="scale(0.6)"
         style="fill-rule:evenodd;stroke:#000000;stroke-width:1pt;stroke-opacity:1;fill:#000000;fill-opacity:1"
         d="M -0.37450702,-0.045692580 C -0.37450702,2.7143074 1.8654930,4.9543074 4.6254930,4.9543074 L 4.6254930,-5.0456926 C 1.8654930,-5.0456926 -0.37450702,-2.8056926 -0.37450702,-0.045692580 z "
         id="path5446" />
    </marker>
    <marker
       inkscape:isstock="true"
       style="overflow:visible"
       id="StopS"
       refX="0.0"
       refY="0.0"
       orient="auto"
       inkscape:stockid="StopS">
      <path
         transform="scale(0.2)"
         style="fill:none;fill-opacity:0.75;fill-rule:evenodd;stroke:#000000;stroke-width:1pt;stroke-opacity:1"
         d="M 0.0,5.65 L 0.0,-5.65"
         id="path5443" />
    </marker>
    <marker
       inkscape:isstock="true"
       style="overflow:visible"
       id="StopM"
       refX="0.0"
       refY="0.0"
       orient="auto"
       inkscape:stockid="StopM">
      <path
         transform="scale(0.4)"
         style="fill:none;fill-opacity:0.75;fill-rule:evenodd;stroke:#000000;stroke-width:1pt;stroke-opacity:1"
         d="M 0.0,5.65 L 0.0,-5.65"
         id="path5440" />
    </marker>
    <marker
       inkscape:isstock="true"
       style="overflow:visible"
       id="marker7783"
       refX="0.0"
       refY="0.0"
       orient="auto"
       inkscape:stockid="StopL">
      <path
         transform="scale(0.8)"
         style="fill:none;fill-opacity:0.75;fill-rule:evenodd;stroke:#000000;stroke-width:1pt;stroke-opacity:1"
         d="M 0.0,5.65 L 0.0,-5.65"
         id="path7785" />
    </marker>
    <marker
       inkscape:isstock="true"
       style="overflow:visible"
       id="StopL"
       refX="0.0"
       refY="0.0"
       orient="auto"
       inkscape:stockid="StopL">
      <path
         transform="scale(0.8)"
         style="fill:none;fill-opacity:0.75;fill-rule:evenodd;stroke:#000000;stroke-width:1pt;stroke-opacity:1"
         d="M 0.0,5.65 L 0.0,-5.65"
         id="path5437" />
    </marker>
    <marker
       inkscape:stockid="Arrow1Lstart"
       orient="auto"
       refY="0.0"
       refX="0.0"
       id="marker7538"
       style="overflow:visible"
       inkscape:isstock="true">
      <path
         id="path7540"
         d="M 0.0,0.0 L 5.0,-5.0 L -12.5,0.0 L 5.0,5.0 L 0.0,0.0 z "
         style="fill-rule:evenodd;stroke:#000000;stroke-width:1pt;stroke-opacity:1;fill:#000000;fill-opacity:1"
         transform="scale(0.8) translate(12.5,0)" />
    </marker>
    <marker
       style="overflow:visible"
       id="marker6586"
       refX="0.0"
       refY="0.0"
       orient="auto"
       inkscape:stockid="DistanceStart"
       inkscape:isstock="true">
      <g
         id="g6588"
         style="stroke:#000000;stroke-opacity:1;fill:#000000;fill-opacity:1">
        <path
           style="fill:#000000;stroke:#000000;stroke-width:1.15;stroke-linecap:square;stroke-opacity:1;fill-opacity:1"
           d="M 0,0 L 2,0"
           id="path6590" />
        <path
           style="fill:#000000;fill-rule:evenodd;stroke:#000000;stroke-opacity:1;fill-opacity:1"
           d="M 0,0 L 13,4 L 9,0 13,-4 L 0,0 z "
           id="path6592" />
        <path
           style="fill:#000000;stroke:#000000;stroke-width:1;stroke-linecap:square;stroke-opacity:1;fill-opacity:1"
           d="M 0,-4 L 0,40"
           id="path6594" />
      </g>
    </marker>
    <marker
       inkscape:stockid="Arrow2Sstart"
       orient="auto"
       refY="0.0"
       refX="0.0"
       id="Arrow2Sstart"
       style="overflow:visible"
       inkscape:isstock="true">
      <path
         id="path5127"
         style="fill-rule:evenodd;stroke-width:0.625;stroke-linejoin:round;stroke:#000000;stroke-opacity:1;fill:#000000;fill-opacity:1"
         d="M 8.7185878,4.0337352 L -2.2072895,0.016013256 L 8.7185884,-4.0017078 C 6.9730900,-1.6296469 6.9831476,1.6157441 8.7185878,4.0337352 z "
         transform="scale(0.3) translate(-2.3,0)" />
    </marker>
    <marker
       style="overflow:visible"
       id="DistanceEnd"
       refX="0.0"
       refY="0.0"
       orient="auto"
       inkscape:stockid="DistanceEnd"
       inkscape:isstock="true">
      <g
         id="g2301"
         style="stroke:#000000;stroke-opacity:1;fill:#000000;fill-opacity:1">
        <path
           style="fill:#000000;stroke:#000000;stroke-width:1.15;stroke-linecap:square;stroke-opacity:1;fill-opacity:1"
           d="M 0,0 L -2,0"
           id="path2316" />
        <path
           style="fill:#000000;fill-rule:evenodd;stroke:#000000;stroke-opacity:1;fill-opacity:1"
           d="M 0,0 L -13,4 L -9,0 -13,-4 L 0,0 z "
           id="path2312" />
        <path
           style="fill:#000000;stroke:#000000;stroke-width:1;stroke-linecap:square;stroke-opacity:1;fill-opacity:1"
           d="M 0,-4 L 0,40"
           id="path2314" />
      </g>
    </marker>
    <marker
       style="overflow:visible"
       id="DistanceStart"
       refX="0.0"
       refY="0.0"
       orient="auto"
       inkscape:stockid="DistanceStart"
       inkscape:isstock="true">
      <g
         id="g2300"
         style="stroke:#000000;stroke-opacity:1;fill:#000000;fill-opacity:1">
        <path
           style="fill:#000000;stroke:#000000;stroke-width:1.15;stroke-linecap:square;stroke-opacity:1;fill-opacity:1"
           d="M 0,0 L 2,0"
           id="path2306" />
        <path
           style="fill:#000000;fill-rule:evenodd;stroke:#000000;stroke-opacity:1;fill-opacity:1"
           d="M 0,0 L 13,4 L 9,0 13,-4 L 0,0 z "
           id="path2302" />
        <path
           style="fill:#000000;stroke:#000000;stroke-width:1;stroke-linecap:square;stroke-opacity:1;fill-opacity:1"
           d="M 0,-4 L 0,40"
           id="path2304" />
      </g>
    </marker>
    <marker
       inkscape:collect="always"
       inkscape:isstock="true"
       style="overflow:visible"
       id="Arrow1Lstart"
       refX="0.0"
       refY="0.0"
       orient="auto"
       inkscape:stockid="Arrow1Lstart">
      <path
         transform="scale(0.8) translate(12.5,0)"
         style="fill-rule:evenodd;stroke:#4d4d4d;stroke-width:1pt;stroke-opacity:1;fill:#4d4d4d;fill-opacity:1"
         d="M 0.0,0.0 L 5.0,-5.0 L -12.5,0.0 L 5.0,5.0 L 0.0,0.0 z "
         id="path5097" />
    </marker>
    <marker
       inkscape:isstock="true"
       style="overflow:visible;"
       id="Arrow1Lend"
       refX="0.0"
       refY="0.0"
       orient="auto"
       inkscape:stockid="Arrow1Lend">
      <path
         transform="scale(0.8) rotate(180) translate(12.5,0)"
         style="fill-rule:evenodd;stroke:#000000;stroke-width:1pt;stroke-opacity:1;fill:#000000;fill-opacity:1"
         d="M 0.0,0.0 L 5.0,-5.0 L -12.5,0.0 L 5.0,5.0 L 0.0,0.0 z "
         id="path5100" />
    </marker>
    <marker
       inkscape:isstock="true"
       style="overflow:visible;"
       id="marker8535"
       refX="0.0"
       refY="0.0"
       orient="auto"
       inkscape:stockid="Arrow1Lend">
      <path
         transform="scale(0.8) rotate(180) translate(12.5,0)"
         style="fill-rule:evenodd;stroke:#4d4d4d;stroke-width:1pt;stroke-opacity:1;fill:#4d4d4d;fill-opacity:1"
         d="M 0.0,0.0 L 5.0,-5.0 L -12.5,0.0 L 5.0,5.0 L 0.0,0.0 z "
         id="path8537" />
    </marker>
    <marker
       inkscape:isstock="true"
       style="overflow:visible;"
       id="marker7297"
       refX="0.0"
       refY="0.0"
       orient="auto"
       inkscape:stockid="Arrow1Lend"
       inkscape:collect="always">
      <path
         transform="scale(0.8) rotate(180) translate(12.5,0)"
         style="fill-rule:evenodd;stroke:#000000;stroke-width:1pt;stroke-opacity:1;fill:#000000;fill-opacity:1"
         d="M 0.0,0.0 L 5.0,-5.0 L -12.5,0.0 L 5.0,5.0 L 0.0,0.0 z "
         id="path7299" />
    </marker>
    <marker
       inkscape:stockid="Arrow1Lend"
       orient="auto"
       refY="0"
       refX="0"
       id="Arrow1Lend-6"
       style="overflow:visible"
       inkscape:isstock="true">
      <path
         inkscape:connector-curvature="0"
         id="path4145-7"
         d="M 0,0 5,-5 -12.5,0 5,5 0,0 Z"
         style="fill:#000000;fill-opacity:1;fill-rule:evenodd;stroke:#000000;stroke-width:1pt;stroke-opacity:1"
         transform="matrix(-0.8,0,0,-0.8,-10,0)" />
    </marker>
    <marker
       inkscape:stockid="Arrow1Lend"
       orient="auto"
       refY="0"
       refX="0"
       id="Arrow1Lend-3"
       style="overflow:visible"
       inkscape:isstock="true">
      <path
         inkscape:connector-curvature="0"
         id="path4145-5"
         d="M 0,0 5,-5 -12.5,0 5,5 0,0 Z"
         style="fill:#000000;fill-opacity:1;fill-rule:evenodd;stroke:#000000;stroke-width:1pt;stroke-opacity:1"
         transform="matrix(-0.8,0,0,-0.8,-10,0)" />
    </marker>
    <marker
       inkscape:stockid="Arrow1Lend"
       orient="auto"
       refY="0"
       refX="0"
       id="Arrow1Lend-36"
       style="overflow:visible"
       inkscape:isstock="true"
       inkscape:collect="always">
      <path
         id="path4145-75"
         d="M 0,0 5,-5 -12.5,0 5,5 0,0 Z"
         style="fill:#000000;fill-opacity:1;fill-rule:evenodd;stroke:#000000;stroke-width:1pt;stroke-opacity:1"
         transform="matrix(-0.8,0,0,-0.8,-10,0)"
         inkscape:connector-curvature="0" />
    </marker>
    <marker
       inkscape:stockid="Arrow1Lend"
       orient="auto"
       refY="0"
       refX="0"
       id="marker8119-6"
       style="overflow:visible"
       inkscape:isstock="true"
       inkscape:collect="always">
      <path
         id="path8121-2"
         d="M 0,0 5,-5 -12.5,0 5,5 0,0 Z"
         style="fill:#000000;fill-opacity:1;fill-rule:evenodd;stroke:#000000;stroke-width:1pt;stroke-opacity:1"
         transform="matrix(-0.8,0,0,-0.8,-10,0)"
         inkscape:connector-curvature="0" />
    </marker>
  </defs>
  <metadata
     id="metadata7">
    <rdf:RDF>
      <cc:Work
         rdf:about="">
        <dc:format>image/svg+xml</dc:format>
        <dc:type
           rdf:resource="http://purl.org/dc/dcmitype/StillImage" />
        <dc:title></dc:title>
      </cc:Work>
    </rdf:RDF>
  </metadata>
  <g
     inkscape:label="Layer 1"
     inkscape:groupmode="layer"
     id="layer1">
    <path
       sodipodi:nodetypes="cc"
       style="fill:none;fill-rule:evenodd;stroke:#000000;stroke-width:1px;stroke-linecap:butt;stroke-linejoin:miter;stroke-opacity:1;marker-end:url(#Arrow1Lend-6)"
       d="m 314.35036,399.40741 -4.48319,-79.86727"
       id="path4445-5"
       inkscape:connector-curvature="0"
       inkscape:transform-center-x="-31.784325"
       inkscape:transform-center-y="-25.743603" />
    <path
       sodipodi:nodetypes="cc"
       style="fill:none;fill-rule:evenodd;stroke:#000000;stroke-width:1px;stroke-linecap:butt;stroke-linejoin:miter;stroke-opacity:1;marker-end:url(#Arrow1Lend-36)"
       d="M 166.94424,581.74077 57.301388,478.16934"
       id="path4445-3"
       inkscape:connector-curvature="0" />
    <circle
       style="fill:#000000;fill-opacity:1;stroke:#000000;stroke-width:0.48634693;stroke-miterlimit:4;stroke-dasharray:none;stroke-dashoffset:0;stroke-opacity:1"
       id="path4428-3"
       cx="314.40997"
       cy="398.03589"
       r="8.8431225" />
    <path
       style="fill:none;fill-rule:evenodd;stroke:#000000;stroke-width:1px;stroke-linecap:butt;stroke-linejoin:miter;stroke-opacity:1;marker-end:url(#marker7297)"
       d="m 313.62825,400.28264 104.32237,22.50199"
       id="path7289"
       inkscape:connector-curvature="0"
       sodipodi:nodetypes="cc" />
    <path
       style="fill:#4d4d4d;fill-rule:evenodd;stroke:#4d4d4d;stroke-width:1px;stroke-linecap:butt;stroke-linejoin:miter;stroke-opacity:1;marker-end:url(#marker8535)"
       d="m 313.5261,400.37187 28.87337,-36.58028"
       id="path8527"
       inkscape:connector-curvature="0"
       sodipodi:nodetypes="cc" />
    <path
       style="fill:#4d4d4d;fill-rule:evenodd;stroke:#4d4d4d;stroke-width:1;stroke-linecap:butt;stroke-linejoin:miter;stroke-miterlimit:4;stroke-dasharray:none;stroke-dashoffset:0;stroke-opacity:1;marker-start:url(#Arrow1Lstart)"
       d="M 387.97632,459.7522 313.70856,400.70107"
       id="path8525-5"
       inkscape:connector-curvature="0"
       sodipodi:nodetypes="cc" />
    <path
       inkscape:transform-center-y="6.7812692"
       inkscape:transform-center-x="-3.63887"
       inkscape:connector-curvature="0"
       id="path5070"
       d="m 319.1281,392.95746 c 8.01009,6.28027 8.01009,6.28027 8.01009,6.28027 l -5.83954,7.44797"
       style="fill:none;fill-rule:evenodd;stroke:#4d4d4d;stroke-width:1px;stroke-linecap:butt;stroke-linejoin:miter;stroke-opacity:1" />
    <path
       style="fill:none;fill-rule:evenodd;stroke:#000000;stroke-width:1px;stroke-linecap:butt;stroke-linejoin:miter;stroke-opacity:1;marker-end:url(#marker8119-6)"
       d="M 169.64189,581.92757 312.57847,401.61533"
       id="path8111-9"
       inkscape:connector-curvature="0"
       sodipodi:nodetypes="cc" />
    <circle
       style="fill:#000000;fill-opacity:1;stroke:#000000;stroke-width:0.48634693;stroke-miterlimit:4;stroke-dasharray:none;stroke-dashoffset:0;stroke-opacity:1"
       id="path4428"
       cx="167.18024"
       cy="581.12604"
       r="8.8431225" />
    <path
       sodipodi:open="true"
       d="m 55.795375,377.27872 a 232.08141,232.57742 0 0 1 251.893045,18.86392 232.08141,232.57742 0 0 1 85.50913,238.18975"
       sodipodi:end="0.23008424"
       sodipodi:start="4.2115491"
       sodipodi:ry="232.57742"
       sodipodi:rx="232.08141"
       sodipodi:cy="581.29089"
       sodipodi:cx="167.23215"
       sodipodi:type="arc"
       style="fill:#ff0000;fill-opacity:0;stroke:#000000;stroke-width:0.82300001;stroke-miterlimit:4;stroke-dasharray:0.82300001, 0.82300001;stroke-dashoffset:0;stroke-opacity:1"
       id="path4428-1" />
    <path
       sodipodi:nodetypes="ccc"
       inkscape:connector-curvature="0"
       id="path5391"
       d="m 389.33801,461.00758 29.9477,-37.75254 -76.07142,-60.62499"
       style="fill:none;fill-rule:evenodd;stroke:#000000;stroke-width:0.8;stroke-linecap:butt;stroke-linejoin:miter;stroke-opacity:1;stroke-miterlimit:4;stroke-dasharray:0.8,1.6;stroke-dashoffset:0" />
    <path
       sodipodi:open="true"
       d="m 148.65835,564.59567 a 24.976532,24.976532 0 0 1 17.42876,-7.86588 24.976532,24.976532 0 0 1 17.88445,6.76612"
       sodipodi:end="5.4668858"
       sodipodi:start="3.8956262"
       sodipodi:ry="24.976532"
       sodipodi:rx="24.976532"
       sodipodi:cy="581.69421"
       sodipodi:cx="166.86458"
       sodipodi:type="arc"
       id="path7221"
       style="color:#000000;clip-rule:nonzero;display:inline;overflow:visible;visibility:visible;opacity:1;isolation:auto;mix-blend-mode:normal;color-interpolation:sRGB;color-interpolation-filters:linearRGB;solid-color:#000000;solid-opacity:1;fill:none;fill-opacity:1;fill-rule:nonzero;stroke:#000000;stroke-width:1;stroke-linecap:butt;stroke-linejoin:miter;stroke-miterlimit:4;stroke-dasharray:none;stroke-dashoffset:0;stroke-opacity:1;color-rendering:auto;image-rendering:auto;shape-rendering:auto;text-rendering:auto;enable-background:accumulate" />
  </g>
  <g
     id="g5916"
     transform="matrix(0.38120458,0,0,0.38120458,290.47066,277.01622)">
    <g
       word-spacing="normal"
       letter-spacing="normal"
       font-size-adjust="none"
       font-stretch="normal"
       font-weight="normal"
       font-variant="normal"
       font-style="normal"
       stroke-miterlimit="10.433"
       xml:space="preserve"
       transform="matrix(1.0629921,0,0,-1.0629921,-186.02362,789.27165)"
       id="g5918"
       style="font-style:normal;font-variant:normal;font-weight:normal;font-stretch:normal;letter-spacing:normal;word-spacing:normal;text-anchor:start;fill:none;fill-opacity:1;fill-rule:evenodd;stroke:#000000;stroke-linecap:butt;stroke-linejoin:miter;stroke-miterlimit:10.43299961;stroke-dasharray:none;stroke-dashoffset:0;stroke-opacity:1"><path
         id="path5920"
         d="m 492.39,436.93 0.06,0.12 0.06,0.12 0.03,0.05 0.03,0.06 0.04,0.05 0.04,0.05 0.05,0.05 0.05,0.05 0.06,0.04 0.06,0.05 0.07,0.04 0.08,0.04 0.09,0.04 0.09,0.04 0.11,0.03 0.12,0.03 0.12,0.04 0.14,0.02 0.08,0.02 0.07,0.01 0.09,0.01 0.08,0.02 0.09,0.01 0.09,0.01 0.09,0.01 0.1,0.01 0.1,0.01 0.11,0.01 0.11,0 0.11,0.01 0.12,0.01 0.12,0.01 0.13,0 0.13,0.01 0.13,0 0.14,0.01 0.15,0 0.15,0 0.15,0 0.16,0.01 0.16,0 0.17,0 0.95,0 0,2.34 c -1.89,-0.05 -4.28,-0.14 -5.64,-0.14 -1.98,0 -4.58,0 -6.51,0.14 l 0,-2.34 c 0.43,0 4.37,0 4.37,-0.6 0,-0.2 -0.14,-0.43 -0.19,-0.59 l -10.06,-22.67 -10.62,23.86 4.68,0 0,2.34 c -1.89,-0.14 -6.67,-0.14 -8.81,-0.14 -1.95,0 -6.12,0 -7.87,0.14 l 0,-2.34 4.57,0 13.75,-30.94 c 0.41,-0.89 0.61,-1.3 2,-1.3 0.8,0 1.44,0 1.99,1.21 z"
         inkscape:connector-curvature="0"
         style="fill:#000000;stroke-width:0" /><path
         id="path5922"
         d="m 505.84,410.96 5.44,0 0,1.25 -5.44,0 0,6.41 -1.19,0 c -0.03,-3.12 -1.45,-6.58 -4.79,-6.69 l 0,-0.97 3.23,0 0,-9.4 c 0,-3.91 2.92,-4.7 4.87,-4.7 2.35,0 3.94,1.98 3.94,4.73 l 0,1.92 -1.19,0 0,-1.89 c 0,-2.36 -1.1,-3.66 -2.46,-3.66 -2.41,0 -2.41,2.93 -2.41,3.57 z"
         inkscape:connector-curvature="0"
         style="fill:#000000;stroke-width:0" /><path
         id="path5924"
         d="m 531.89,421.79 0.01,0.02 0.01,0.02 0.01,0.02 0.01,0.02 0.01,0.02 0.01,0.02 0,0.02 0.01,0.02 0.01,0.01 0.01,0.02 0.01,0.03 0.02,0.03 0.01,0.03 0.01,0.03 0.01,0.02 0.01,0.03 0.01,0.02 0,0.02 0.01,0.02 0.01,0.02 0,0.02 0.01,0.01 0,0.02 0,0.01 0.01,0.02 0,0.01 0,0.02 0,0.01 0.01,0.01 0,0.03 0,0.02 0,0.03 0,0.02 c 0,0.55 -0.45,0.88 -0.84,0.88 -0.6,0 -0.77,-0.42 -0.94,-0.88 l -13,-32.43 c -0.21,-0.46 -0.21,-0.53 -0.21,-0.67 0,-0.55 0.46,-0.88 0.83,-0.88 0.6,0 0.77,0.42 0.94,0.88 z"
         inkscape:connector-curvature="0"
         style="fill:#000000;stroke-width:0" /><path
         id="path5926"
         d="m 552.77,407.76 0,0.28 -0.01,0.28 -0.03,0.26 -0.03,0.26 -0.04,0.25 -0.05,0.24 -0.06,0.23 -0.07,0.23 -0.08,0.22 -0.09,0.21 -0.09,0.2 -0.11,0.19 -0.12,0.19 -0.13,0.17 -0.14,0.17 -0.16,0.16 -0.16,0.15 -0.17,0.14 -0.19,0.13 -0.19,0.12 -0.21,0.11 -0.22,0.11 -0.23,0.09 -0.24,0.09 -0.26,0.07 -0.27,0.07 -0.28,0.05 -0.29,0.05 -0.3,0.03 -0.32,0.03 -0.33,0.01 -0.35,0.01 c -3.1,0 -4.81,-1.85 -5.57,-3.16 l -0.03,0 0,11.99 -5.24,-0.39 0,-1.25 c 2.34,0 2.63,-0.25 2.63,-1.96 l 0,-17.84 c 0,-1.5 -0.36,-1.5 -2.63,-1.5 l 0,-1.25 c 0.08,0 2.52,0.14 3.99,0.14 1.28,0 3.68,-0.11 4,-0.14 l 0,1.25 c -2.27,0 -2.61,0 -2.61,1.5 l 0,6.28 c 0,3.66 2.89,5.36 5.18,5.36 2.44,0 2.75,-1.92 2.75,-3.69 l 0,-7.95 c 0,-1.5 -0.34,-1.5 -2.61,-1.5 l 0,-1.25 c 0.08,0 2.52,0.14 3.97,0.14 1.3,0 3.71,-0.11 4.02,-0.14 l 0,1.25 c -2.27,0 -2.63,0 -2.63,1.5 z"
         inkscape:connector-curvature="0"
         style="fill:#000000;stroke-width:0" /></g>  </g>
  <g
     id="g6050"
     transform="matrix(0.38120458,0,0,0.38120458,158.63531,223.98726)">
    <g
       id="content"
       transform="matrix(1.0629921,0,0,-1.0629921,-186.02362,789.27165)"
       xml:space="preserve"
       stroke-miterlimit="10.433"
       font-style="normal"
       font-variant="normal"
       font-weight="normal"
       font-stretch="normal"
       font-size-adjust="none"
       letter-spacing="normal"
       word-spacing="normal"
       style="font-style:normal;font-variant:normal;font-weight:normal;font-stretch:normal;letter-spacing:normal;word-spacing:normal;text-anchor:start;fill:none;fill-opacity:1;fill-rule:evenodd;stroke:#000000;stroke-linecap:butt;stroke-linejoin:miter;stroke-miterlimit:10.43299961;stroke-dasharray:none;stroke-dashoffset:0;stroke-opacity:1"><path
         d="m 492.39,436.93 0.06,0.12 0.06,0.12 0.03,0.05 0.03,0.06 0.04,0.05 0.04,0.05 0.05,0.05 0.05,0.05 0.06,0.04 0.06,0.05 0.07,0.04 0.08,0.04 0.09,0.04 0.09,0.04 0.11,0.03 0.12,0.03 0.12,0.04 0.14,0.02 0.08,0.02 0.07,0.01 0.09,0.01 0.08,0.02 0.09,0.01 0.09,0.01 0.09,0.01 0.1,0.01 0.1,0.01 0.11,0.01 0.11,0 0.11,0.01 0.12,0.01 0.12,0.01 0.13,0 0.13,0.01 0.13,0 0.14,0.01 0.15,0 0.15,0 0.15,0 0.16,0.01 0.16,0 0.17,0 0.95,0 0,2.34 c -1.89,-0.05 -4.28,-0.14 -5.64,-0.14 -1.98,0 -4.58,0 -6.51,0.14 l 0,-2.34 c 0.43,0 4.37,0 4.37,-0.6 0,-0.2 -0.14,-0.43 -0.19,-0.59 l -10.06,-22.67 -10.62,23.86 4.68,0 0,2.34 c -1.89,-0.14 -6.67,-0.14 -8.81,-0.14 -1.95,0 -6.12,0 -7.87,0.14 l 0,-2.34 4.57,0 13.75,-30.94 c 0.41,-0.89 0.61,-1.3 2,-1.3 0.8,0 1.44,0 1.99,1.21 z"
         id="path6053"
         inkscape:connector-curvature="0"
         style="fill:#000000;stroke-width:0" /><path
         d="m 505.84,410.96 5.44,0 0,1.25 -5.44,0 0,6.41 -1.19,0 c -0.03,-3.12 -1.45,-6.58 -4.79,-6.69 l 0,-0.97 3.23,0 0,-9.4 c 0,-3.91 2.92,-4.7 4.87,-4.7 2.35,0 3.94,1.98 3.94,4.73 l 0,1.92 -1.19,0 0,-1.89 c 0,-2.36 -1.1,-3.66 -2.46,-3.66 -2.41,0 -2.41,2.93 -2.41,3.57 z"
         id="path6055"
         inkscape:connector-curvature="0"
         style="fill:#000000;stroke-width:0" /><path
         d="m 531.89,421.79 0.01,0.02 0.01,0.02 0.01,0.02 0.01,0.02 0.01,0.02 0.01,0.02 0,0.02 0.01,0.02 0.01,0.01 0.01,0.02 0.01,0.03 0.02,0.03 0.01,0.03 0.01,0.03 0.01,0.02 0.01,0.03 0.01,0.02 0,0.02 0.01,0.02 0.01,0.02 0,0.02 0.01,0.01 0,0.02 0,0.01 0.01,0.02 0,0.01 0,0.02 0,0.01 0.01,0.01 0,0.03 0,0.02 0,0.03 0,0.02 c 0,0.55 -0.45,0.88 -0.84,0.88 -0.6,0 -0.77,-0.42 -0.94,-0.88 l -13,-32.43 c -0.21,-0.46 -0.21,-0.53 -0.21,-0.67 0,-0.55 0.46,-0.88 0.83,-0.88 0.6,0 0.77,0.42 0.94,0.88 z"
         id="path6057"
         inkscape:connector-curvature="0"
         style="fill:#000000;stroke-width:0" /><path
         d="m 546.13,418.98 0,0.05 0,0.06 -0.01,0.05 -0.01,0.05 -0.01,0.06 -0.01,0.06 -0.02,0.05 -0.02,0.06 -0.02,0.05 -0.02,0.06 -0.03,0.06 -0.03,0.05 -0.04,0.05 -0.03,0.06 -0.04,0.05 -0.04,0.05 -0.05,0.05 -0.04,0.05 -0.05,0.04 -0.06,0.04 -0.05,0.04 -0.06,0.04 -0.06,0.04 -0.07,0.03 -0.07,0.03 -0.07,0.02 -0.07,0.03 -0.08,0.01 -0.08,0.02 -0.09,0.01 -0.08,0.01 -0.09,0 c -0.94,0 -1.96,-0.91 -1.96,-1.92 0,-0.6 0.46,-1.33 1.41,-1.33 1,0 1.95,0.98 1.95,1.92 z"
         id="path6059"
         inkscape:connector-curvature="0"
         style="fill:#000000;stroke-width:0" /><path
         d="m 539.02,401.28 -0.05,-0.17 -0.05,-0.17 -0.03,-0.08 -0.03,-0.09 -0.02,-0.09 -0.03,-0.08 -0.02,-0.09 -0.02,-0.1 -0.01,-0.09 -0.02,-0.1 -0.01,-0.09 -0.01,-0.05 0,-0.06 0,-0.05 -0.01,-0.05 0,-0.06 0,-0.05 c 0,-1.64 1.39,-2.95 3.3,-2.95 3.48,0 5.03,4.79 5.03,5.32 0,0.46 -0.45,0.46 -0.56,0.46 -0.49,0 -0.53,-0.21 -0.68,-0.6 -0.79,-2.78 -2.32,-4.22 -3.68,-4.22 -0.71,0 -0.88,0.46 -0.88,1.22 0,0.8 0.25,1.47 0.56,2.24 0.35,0.93 0.74,1.87 1.11,2.78 0.32,0.84 1.58,4.01 1.72,4.44 0.1,0.34 0.21,0.76 0.21,1.11 0,1.64 -1.39,2.95 -3.32,2.95 -3.45,0 -5.04,-4.74 -5.04,-5.33 0,-0.45 0.48,-0.45 0.59,-0.45 0.48,0 0.52,0.17 0.63,0.56 0.9,3 2.43,4.25 3.71,4.25 0.57,0 0.88,-0.28 0.88,-1.22 0,-0.8 -0.2,-1.33 -1.08,-3.48 z"
         id="path6061"
         inkscape:connector-curvature="0"
         style="fill:#000000;stroke-width:0" /></g>  </g>
  <g
     id="g6181"
     transform="matrix(0.38120458,0,0,0.38120458,-32.050559,411.85591)">
    <g
       word-spacing="normal"
       letter-spacing="normal"
       font-size-adjust="none"
       font-stretch="normal"
       font-weight="normal"
       font-variant="normal"
       font-style="normal"
       stroke-miterlimit="10.433"
       xml:space="preserve"
       transform="matrix(1.0629921,0,0,-1.0629921,-186.02362,789.27165)"
       id="g6183"
       style="font-style:normal;font-variant:normal;font-weight:normal;font-stretch:normal;letter-spacing:normal;word-spacing:normal;text-anchor:start;fill:none;fill-opacity:1;fill-rule:evenodd;stroke:#000000;stroke-linecap:butt;stroke-linejoin:miter;stroke-miterlimit:10.43299961;stroke-dasharray:none;stroke-dashoffset:0;stroke-opacity:1"><path
         id="path6185"
         d="m 492.39,436.93 0.06,0.12 0.06,0.12 0.03,0.05 0.03,0.06 0.04,0.05 0.04,0.05 0.05,0.05 0.05,0.05 0.06,0.04 0.06,0.05 0.07,0.04 0.08,0.04 0.09,0.04 0.09,0.04 0.11,0.03 0.12,0.03 0.12,0.04 0.14,0.02 0.08,0.02 0.07,0.01 0.09,0.01 0.08,0.02 0.09,0.01 0.09,0.01 0.09,0.01 0.1,0.01 0.1,0.01 0.11,0.01 0.11,0 0.11,0.01 0.12,0.01 0.12,0.01 0.13,0 0.13,0.01 0.13,0 0.14,0.01 0.15,0 0.15,0 0.15,0 0.16,0.01 0.16,0 0.17,0 0.95,0 0,2.34 c -1.89,-0.05 -4.28,-0.14 -5.64,-0.14 -1.98,0 -4.58,0 -6.51,0.14 l 0,-2.34 c 0.43,0 4.37,0 4.37,-0.6 0,-0.2 -0.14,-0.43 -0.19,-0.59 l -10.06,-22.67 -10.62,23.86 4.68,0 0,2.34 c -1.89,-0.14 -6.67,-0.14 -8.81,-0.14 -1.95,0 -6.12,0 -7.87,0.14 l 0,-2.34 4.57,0 13.75,-30.94 c 0.41,-0.89 0.61,-1.3 2,-1.3 0.8,0 1.44,0 1.99,1.21 z"
         inkscape:connector-curvature="0"
         style="fill:#000000;stroke-width:0" /><path
         id="path6187"
         d="m 516.78,407.76 -0.01,0.28 -0.01,0.28 -0.02,0.26 -0.03,0.26 -0.04,0.25 -0.05,0.24 -0.06,0.23 -0.07,0.23 -0.08,0.22 -0.09,0.21 -0.1,0.2 -0.11,0.19 -0.12,0.19 -0.13,0.17 -0.14,0.17 -0.15,0.16 -0.16,0.15 -0.18,0.14 -0.18,0.13 -0.2,0.12 -0.21,0.11 -0.22,0.11 -0.23,0.09 -0.24,0.09 -0.26,0.07 -0.26,0.07 -0.28,0.05 -0.29,0.05 -0.31,0.03 -0.32,0.03 -0.33,0.01 -0.34,0.01 c -3.11,0 -4.81,-1.85 -5.58,-3.16 l -0.03,0 0,11.99 -5.24,-0.39 0,-1.25 c 2.35,0 2.63,-0.25 2.63,-1.96 l 0,-17.84 c 0,-1.5 -0.36,-1.5 -2.63,-1.5 l 0,-1.25 c 0.08,0 2.52,0.14 3.99,0.14 1.28,0 3.69,-0.11 4,-0.14 l 0,1.25 c -2.27,0 -2.61,0 -2.61,1.5 l 0,6.28 c 0,3.66 2.89,5.36 5.19,5.36 2.44,0 2.75,-1.92 2.75,-3.69 l 0,-7.95 c 0,-1.5 -0.35,-1.5 -2.61,-1.5 l 0,-1.25 c 0.08,0 2.51,0.14 3.97,0.14 1.29,0 3.7,-0.11 4.01,-0.14 l 0,1.25 c -2.26,0 -2.62,0 -2.62,1.5 z"
         inkscape:connector-curvature="0"
         style="fill:#000000;stroke-width:0" /><path
         id="path6189"
         d="m 538.37,421.79 0.01,0.02 0.01,0.02 0.01,0.02 0.01,0.02 0.01,0.02 0.01,0.02 0.01,0.02 0,0.02 0.01,0.01 0.01,0.02 0.01,0.03 0.02,0.03 0.01,0.03 0.01,0.03 0.01,0.02 0.01,0.03 0.01,0.02 0,0.02 0.01,0.02 0.01,0.02 0,0.02 0.01,0.01 0,0.02 0.01,0.01 0,0.02 0,0.01 0,0.02 0.01,0.01 0,0.01 0,0.03 0,0.02 0,0.03 0,0.02 c 0,0.55 -0.45,0.88 -0.84,0.88 -0.6,0 -0.77,-0.42 -0.94,-0.88 l -13,-32.43 c -0.21,-0.46 -0.21,-0.53 -0.21,-0.67 0,-0.55 0.46,-0.88 0.83,-0.88 0.6,0 0.77,0.42 0.94,0.88 z"
         inkscape:connector-curvature="0"
         style="fill:#000000;stroke-width:0" /><path
         id="path6191"
         d="m 552.61,418.98 0,0.05 0,0.06 -0.01,0.05 -0.01,0.05 -0.01,0.06 -0.01,0.06 -0.02,0.05 -0.02,0.06 -0.02,0.05 -0.02,0.06 -0.03,0.06 -0.03,0.05 -0.04,0.05 -0.03,0.06 -0.04,0.05 -0.04,0.05 -0.05,0.05 -0.04,0.05 -0.05,0.04 -0.06,0.04 -0.05,0.04 -0.06,0.04 -0.06,0.04 -0.07,0.03 -0.07,0.03 -0.07,0.02 -0.07,0.03 -0.08,0.01 -0.08,0.02 -0.09,0.01 -0.08,0.01 -0.09,0 c -0.94,0 -1.96,-0.91 -1.96,-1.92 0,-0.6 0.46,-1.33 1.41,-1.33 1,0 1.95,0.98 1.95,1.92 z"
         inkscape:connector-curvature="0"
         style="fill:#000000;stroke-width:0" /><path
         id="path6193"
         d="m 545.5,401.28 -0.05,-0.17 -0.05,-0.17 -0.03,-0.08 -0.03,-0.09 -0.02,-0.09 -0.03,-0.08 -0.02,-0.09 -0.02,-0.1 -0.01,-0.09 -0.02,-0.1 -0.01,-0.09 -0.01,-0.05 0,-0.06 0,-0.05 -0.01,-0.05 0,-0.06 0,-0.05 c 0,-1.64 1.39,-2.95 3.3,-2.95 3.48,0 5.03,4.79 5.03,5.32 0,0.46 -0.45,0.46 -0.56,0.46 -0.49,0 -0.53,-0.21 -0.68,-0.6 -0.79,-2.78 -2.32,-4.22 -3.68,-4.22 -0.7,0 -0.88,0.46 -0.88,1.22 0,0.8 0.25,1.47 0.56,2.24 0.35,0.93 0.74,1.87 1.12,2.78 0.31,0.84 1.57,4.01 1.71,4.44 0.1,0.34 0.21,0.76 0.21,1.11 0,1.64 -1.39,2.95 -3.32,2.95 -3.45,0 -5.04,-4.74 -5.04,-5.33 0,-0.45 0.48,-0.45 0.59,-0.45 0.48,0 0.52,0.17 0.63,0.56 0.9,3 2.43,4.25 3.72,4.25 0.56,0 0.87,-0.28 0.87,-1.22 0,-0.8 -0.2,-1.33 -1.08,-3.48 z"
         inkscape:connector-curvature="0"
         style="fill:#000000;stroke-width:0" /></g>  </g>
  <g
     id="g6596"
     transform="matrix(0.3746432,0,0,0.3746432,248.14861,306.55467)"
     style="fill:#4d4d4d">
    <g
       word-spacing="normal"
       letter-spacing="normal"
       font-size-adjust="none"
       font-stretch="normal"
       font-weight="normal"
       font-variant="normal"
       font-style="normal"
       stroke-miterlimit="10.433"
       xml:space="preserve"
       transform="matrix(1.0629921,0,0,-1.0629921,-186.02362,789.27165)"
       id="g6598"
       style="font-style:normal;font-variant:normal;font-weight:normal;font-stretch:normal;letter-spacing:normal;word-spacing:normal;text-anchor:start;fill:#4d4d4d;fill-opacity:1;fill-rule:evenodd;stroke:#000000;stroke-linecap:butt;stroke-linejoin:miter;stroke-miterlimit:10.43299961;stroke-dasharray:none;stroke-dashoffset:0;stroke-opacity:1"><path
         id="path6600"
         d="m 492.39,436.93 0.06,0.12 0.06,0.12 0.03,0.05 0.03,0.06 0.04,0.05 0.04,0.05 0.05,0.05 0.05,0.05 0.06,0.04 0.06,0.05 0.07,0.04 0.08,0.04 0.09,0.04 0.09,0.04 0.11,0.03 0.12,0.03 0.12,0.04 0.14,0.02 0.08,0.02 0.07,0.01 0.09,0.01 0.08,0.02 0.09,0.01 0.09,0.01 0.09,0.01 0.1,0.01 0.1,0.01 0.11,0.01 0.11,0 0.11,0.01 0.12,0.01 0.12,0.01 0.13,0 0.13,0.01 0.13,0 0.14,0.01 0.15,0 0.15,0 0.15,0 0.16,0.01 0.16,0 0.17,0 0.95,0 0,2.34 c -1.89,-0.05 -4.28,-0.14 -5.64,-0.14 -1.98,0 -4.58,0 -6.51,0.14 l 0,-2.34 c 0.43,0 4.37,0 4.37,-0.6 0,-0.2 -0.14,-0.43 -0.19,-0.59 l -10.06,-22.67 -10.62,23.86 4.68,0 0,2.34 c -1.89,-0.14 -6.67,-0.14 -8.81,-0.14 -1.95,0 -6.12,0 -7.87,0.14 l 0,-2.34 4.57,0 13.75,-30.94 c 0.41,-0.89 0.61,-1.3 2,-1.3 0.8,0 1.44,0 1.99,1.21 z"
         inkscape:connector-curvature="0"
         style="fill:#4d4d4d;stroke-width:0" /><path
         id="path6602"
         d="m 505.84,412.53 5.44,0 0,1.25 -5.44,0 0,6.4 -1.19,0 c -0.03,-3.12 -1.45,-6.57 -4.79,-6.68 l 0,-0.97 3.23,0 0,-9.41 c 0,-3.91 2.92,-4.7 4.87,-4.7 2.35,0 3.94,1.98 3.94,4.73 l 0,1.92 -1.19,0 0,-1.89 c 0,-2.36 -1.1,-3.65 -2.46,-3.65 -2.41,0 -2.41,2.92 -2.41,3.56 z"
         inkscape:connector-curvature="0"
         style="fill:#4d4d4d;stroke-width:0" /><path
         id="path6604"
         d="m 529.98,408.11 0,0.33 0,0.33 -0.01,0.32 -0.01,0.31 -0.01,0.15 -0.02,0.15 -0.01,0.14 -0.02,0.15 -0.02,0.14 -0.03,0.14 -0.03,0.14 -0.04,0.13 -0.04,0.14 -0.04,0.13 -0.05,0.13 -0.06,0.13 -0.06,0.13 -0.07,0.13 -0.07,0.13 -0.08,0.12 -0.09,0.13 -0.1,0.12 -0.1,0.12 -0.11,0.13 -0.12,0.12 -0.13,0.12 -0.14,0.12 -0.14,0.12 c -1.43,1.19 -3.1,1.75 -5.16,1.75 -3.31,0 -5.64,-1.27 -5.64,-3.39 0,-1.11 0.76,-1.71 1.67,-1.71 0.94,0 1.64,0.71 1.64,1.65 0,0.59 -0.28,1.32 -1.22,1.59 1.25,0.87 3.27,0.87 3.49,0.87 1.93,0 4.06,-1.28 4.06,-4.21 l 0,-1.08 0,-0.91 0,-3.45 c 0,-3.35 -2.92,-4.28 -4.49,-4.28 -1.78,0 -3.45,1.18 -3.45,2.89 0,1.92 1.67,4.61 7.94,4.84 l 0,0.91 c -1.91,-0.07 -4.2,-0.17 -6.75,-1.11 -3.14,-1.16 -4.11,-3.06 -4.11,-4.64 0,-3 3.62,-3.86 6.09,-3.86 2.78,0 4.43,1.56 5.16,2.92 0.14,-1.42 1.08,-2.75 2.69,-2.75 0.06,0 3.43,0 3.43,3.31 l 0,1.91 -1.17,0 0,-1.88 c 0,-0.34 0,-2.01 -1.29,-2.01 -1.29,0 -1.29,1.62 -1.29,2.08 z"
         inkscape:connector-curvature="0"
         style="fill:#4d4d4d;stroke-width:0" /><path
         id="path6606"
         d="m 552.17,409.32 0,0.28 -0.02,0.28 -0.02,0.26 -0.03,0.26 -0.04,0.25 -0.05,0.24 -0.06,0.24 -0.07,0.22 -0.08,0.22 -0.09,0.21 -0.1,0.2 -0.1,0.19 -0.12,0.19 -0.13,0.17 -0.15,0.17 -0.15,0.16 -0.16,0.15 -0.17,0.14 -0.19,0.13 -0.19,0.12 -0.21,0.12 -0.22,0.1 -0.23,0.09 -0.25,0.09 -0.25,0.07 -0.27,0.07 -0.28,0.05 -0.29,0.05 -0.31,0.03 -0.31,0.03 -0.33,0.02 -0.35,0 c -2.86,0 -4.7,-1.56 -5.68,-3.37 l -0.04,0 0,3.37 -5.12,-0.37 0,-1.25 c 2.34,0 2.62,-0.25 2.62,-1.96 l 0,-9.03 c 0,-1.5 -0.35,-1.5 -2.62,-1.5 l 0,-1.25 c 0.08,0 2.51,0.14 3.98,0.14 1.29,0 3.69,-0.11 4,-0.14 l 0,1.25 c -2.26,0 -2.61,0 -2.61,1.5 l 0,6.28 c 0,3.66 2.9,5.36 5.19,5.36 2.44,0 2.75,-1.92 2.75,-3.69 l 0,-7.95 c 0,-1.5 -0.34,-1.5 -2.61,-1.5 l 0,-1.25 c 0.08,0 2.52,0.14 3.97,0.14 1.3,0 3.7,-0.11 4.02,-0.14 l 0,1.25 c -2.27,0 -2.63,0 -2.63,1.5 z"
         inkscape:connector-curvature="0"
         style="fill:#4d4d4d;stroke-width:0" /></g>  </g>
  <g
     transform="matrix(0.3746432,0,0,0.3746432,230.09265,229.5142)"
     id="g6762"
     style="fill:#4d4d4d">
    <g
       style="font-style:normal;font-variant:normal;font-weight:normal;font-stretch:normal;letter-spacing:normal;word-spacing:normal;text-anchor:start;fill:#4d4d4d;fill-opacity:1;fill-rule:evenodd;stroke:#000000;stroke-linecap:butt;stroke-linejoin:miter;stroke-miterlimit:10.43299961;stroke-dasharray:none;stroke-dashoffset:0;stroke-opacity:1"
       id="g6764"
       transform="matrix(1.0629921,0,0,-1.0629921,-186.02362,789.27165)"
       xml:space="preserve"
       stroke-miterlimit="10.433"
       font-style="normal"
       font-variant="normal"
       font-weight="normal"
       font-stretch="normal"
       font-size-adjust="none"
       letter-spacing="normal"
       word-spacing="normal"><path
         style="fill:#4d4d4d;stroke-width:0"
         inkscape:connector-curvature="0"
         d="m 492.39,436.93 0.06,0.12 0.06,0.12 0.03,0.05 0.03,0.06 0.04,0.05 0.04,0.05 0.05,0.05 0.05,0.05 0.06,0.04 0.06,0.05 0.07,0.04 0.08,0.04 0.09,0.04 0.09,0.04 0.11,0.03 0.12,0.03 0.12,0.04 0.14,0.02 0.08,0.02 0.07,0.01 0.09,0.01 0.08,0.02 0.09,0.01 0.09,0.01 0.09,0.01 0.1,0.01 0.1,0.01 0.11,0.01 0.11,0 0.11,0.01 0.12,0.01 0.12,0.01 0.13,0 0.13,0.01 0.13,0 0.14,0.01 0.15,0 0.15,0 0.15,0 0.16,0.01 0.16,0 0.17,0 0.95,0 0,2.34 c -1.89,-0.05 -4.28,-0.14 -5.64,-0.14 -1.98,0 -4.58,0 -6.51,0.14 l 0,-2.34 c 0.43,0 4.37,0 4.37,-0.6 0,-0.2 -0.14,-0.43 -0.19,-0.59 l -10.06,-22.67 -10.62,23.86 4.68,0 0,2.34 c -1.89,-0.14 -6.67,-0.14 -8.81,-0.14 -1.95,0 -6.12,0 -7.87,0.14 l 0,-2.34 4.57,0 13.75,-30.94 c 0.41,-0.89 0.61,-1.3 2,-1.3 0.8,0 1.44,0 1.99,1.21 z"
         id="path6766" /><path
         style="fill:#4d4d4d;stroke-width:0"
         inkscape:connector-curvature="0"
         d="m 505.78,406.7 0,0.28 0.01,0.28 0.02,0.28 0.03,0.28 0.04,0.28 0.04,0.29 0.06,0.28 0.06,0.28 0.07,0.27 0.08,0.28 0.09,0.27 0.1,0.26 0.11,0.26 0.12,0.25 0.12,0.25 0.14,0.24 0.15,0.23 0.15,0.22 0.17,0.21 0.18,0.19 0.18,0.19 0.2,0.18 0.2,0.16 0.22,0.15 0.23,0.13 0.24,0.12 0.25,0.1 0.26,0.09 0.27,0.06 0.28,0.05 0.29,0.03 0.31,0.01 c -0.31,-0.25 -0.59,-0.7 -0.59,-1.25 0,-1.15 0.9,-1.61 1.56,-1.61 0.84,0 1.61,0.57 1.61,1.61 0,1.19 -1.13,2.22 -2.77,2.22 -1.73,0 -3.65,-1.08 -4.7,-3.72 l -0.03,0 0,3.72 -4.99,-0.37 0,-1.25 c 2.35,0 2.63,-0.25 2.63,-1.96 l 0,-9.03 c 0,-1.5 -0.36,-1.5 -2.63,-1.5 l 0,-1.25 c 0.17,0 2.55,0.14 3.97,0.14 1.5,0 3.05,-0.08 4.53,-0.14 l 0,1.25 -0.68,0 c -2.58,0 -2.58,0.39 -2.58,1.58 z"
         id="path6768" /><path
         style="fill:#4d4d4d;stroke-width:0"
         inkscape:connector-curvature="0"
         d="m 529.98,408.11 0,0.33 0,0.33 -0.01,0.32 -0.01,0.31 -0.01,0.15 -0.02,0.15 -0.01,0.14 -0.02,0.15 -0.02,0.14 -0.03,0.14 -0.03,0.14 -0.04,0.13 -0.04,0.14 -0.04,0.13 -0.05,0.13 -0.06,0.13 -0.06,0.13 -0.07,0.13 -0.07,0.13 -0.08,0.12 -0.09,0.13 -0.1,0.12 -0.1,0.12 -0.11,0.13 -0.12,0.12 -0.13,0.12 -0.14,0.12 -0.14,0.12 c -1.43,1.19 -3.1,1.75 -5.16,1.75 -3.31,0 -5.64,-1.27 -5.64,-3.39 0,-1.11 0.76,-1.71 1.67,-1.71 0.94,0 1.64,0.71 1.64,1.65 0,0.59 -0.28,1.32 -1.22,1.59 1.25,0.87 3.27,0.87 3.49,0.87 1.93,0 4.06,-1.28 4.06,-4.21 l 0,-1.08 0,-0.91 0,-3.45 c 0,-3.35 -2.92,-4.28 -4.49,-4.28 -1.78,0 -3.45,1.18 -3.45,2.89 0,1.92 1.67,4.61 7.94,4.84 l 0,0.91 c -1.91,-0.07 -4.2,-0.17 -6.75,-1.11 -3.14,-1.16 -4.11,-3.06 -4.11,-4.64 0,-3 3.62,-3.86 6.09,-3.86 2.78,0 4.43,1.56 5.16,2.92 0.14,-1.42 1.08,-2.75 2.69,-2.75 0.06,0 3.43,0 3.43,3.31 l 0,1.91 -1.17,0 0,-1.88 c 0,-0.34 0,-2.01 -1.29,-2.01 -1.29,0 -1.29,1.62 -1.29,2.08 z"
         id="path6770" /><path
         style="fill:#4d4d4d;stroke-width:0"
         inkscape:connector-curvature="0"
         d="m 546.64,422.56 0,-1.25 c 2.33,0 2.61,-0.25 2.61,-1.95 l 0,-7.22 c -1.28,1.26 -2.95,1.98 -4.87,1.98 l 0.17,-0.97 c 1.67,0 3.17,-0.76 4.14,-2.01 0.42,-0.57 0.42,-0.6 0.42,-1.27 l 0,-7.45 c -0.91,-1.64 -2.67,-3.03 -4.94,-3.03 -1.95,0 -3.36,1.15 -4.05,2.15 -0.7,1.05 -1.1,2.46 -1.1,4.67 0,0.82 0,3.43 1.42,5.07 1.39,1.56 3.09,1.87 4.11,1.87 l -0.17,0.97 c -4.65,0 -8.54,-3.48 -8.54,-7.87 0,-4.35 3.69,-7.83 8.11,-7.83 2.86,0 4.57,1.53 5.16,2.15 l 0,-2.15 5.37,0.34 0,1.25 c -2.34,0 -2.62,0.25 -2.62,1.95 l 0,20.99 z"
         id="path6772" /></g>  </g>
  <g
     id="g6940"
     transform="matrix(0.3746432,0,0,0.3746432,47.420499,418.83723)">
    <g
       word-spacing="normal"
       letter-spacing="normal"
       font-size-adjust="none"
       font-stretch="normal"
       font-weight="normal"
       font-variant="normal"
       font-style="normal"
       stroke-miterlimit="10.433"
       xml:space="preserve"
       transform="matrix(1.0629921,0,0,-1.0629921,-186.02362,789.27165)"
       id="g6942"
       style="font-style:normal;font-variant:normal;font-weight:normal;font-stretch:normal;letter-spacing:normal;word-spacing:normal;text-anchor:start;fill:none;fill-opacity:1;fill-rule:evenodd;stroke:#000000;stroke-linecap:butt;stroke-linejoin:miter;stroke-miterlimit:10.43299961;stroke-dasharray:none;stroke-dashoffset:0;stroke-opacity:1"><path
         id="path6944"
         d="m 491.44,423.09 -0.02,0.95 -0.07,0.93 -0.1,0.92 -0.15,0.9 -0.19,0.89 -0.22,0.86 -0.27,0.85 -0.3,0.83 -0.33,0.81 -0.37,0.79 -0.4,0.76 -0.44,0.74 -0.47,0.72 -0.49,0.68 -0.53,0.66 -0.55,0.64 -0.58,0.6 -0.6,0.57 -0.63,0.54 -0.65,0.5 -0.67,0.47 -0.7,0.44 -0.71,0.4 -0.74,0.36 -0.75,0.33 -0.77,0.28 -0.78,0.25 -0.8,0.2 -0.81,0.16 -0.82,0.11 -0.84,0.07 -0.84,0.02 0,-1.09 c 5.03,0 11.76,-4.53 11.76,-17.14 0,-12.7 -7.03,-16.84 -11.72,-16.84 l 0,0 c -4.92,0 -11.75,4.28 -11.75,16.84 0,12.8 6.93,17.14 11.71,17.14 l 0,1.09 c -8.92,0 -16.53,-7.96 -16.53,-18.23 0,-10.22 7.67,-17.98 16.53,-17.98 9.06,0 16.59,7.92 16.59,17.98 z"
         inkscape:connector-curvature="0"
         style="fill:#000000;stroke-width:0" /><polygon
         id="polygon6946"
         points="465.99,426.82 465.99,419.65 467.22,419.65 467.22,421.34 482.52,421.34 482.52,419.65 483.77,419.65 483.77,426.82 482.52,426.82 482.52,425.14 467.22,425.14 467.22,426.82 "
         style="fill:#000000;stroke-width:0" /></g>  </g>
  <g
     id="g8298"
     transform="matrix(0.40879896,0,0,0.40879896,96.587599,326.5549)">
    <g
       word-spacing="normal"
       letter-spacing="normal"
       font-size-adjust="none"
       font-stretch="normal"
       font-weight="normal"
       font-variant="normal"
       font-style="normal"
       stroke-miterlimit="10.433"
       xml:space="preserve"
       transform="matrix(1.0629921,0,0,-1.0629921,-186.02362,789.27165)"
       id="g8300"
       style="font-style:normal;font-variant:normal;font-weight:normal;font-stretch:normal;letter-spacing:normal;word-spacing:normal;text-anchor:start;fill:none;fill-opacity:1;fill-rule:evenodd;stroke:#000000;stroke-linecap:butt;stroke-linejoin:miter;stroke-miterlimit:10.43299961;stroke-dasharray:none;stroke-dashoffset:0;stroke-opacity:1"><path
         id="path8302"
         d="m 466.47,408.14 0.21,-0.16 0.2,-0.15 0.2,-0.15 0.2,-0.14 0.21,-0.13 0.2,-0.12 0.2,-0.12 0.2,-0.11 0.21,-0.11 0.2,-0.1 0.2,-0.09 0.2,-0.09 0.2,-0.09 0.21,-0.07 0.2,-0.07 0.2,-0.07 0.2,-0.06 0.2,-0.06 0.4,-0.1 0.4,-0.08 0.39,-0.06 0.4,-0.05 0.39,-0.03 0.39,-0.02 0.38,-0.01 -0.54,1.8 c -0.71,0 -3.05,0 -5.28,2.69 -0.57,0.64 -0.57,0.68 -0.57,1.64 l 0,10.56 c 0,0.95 0.07,1 0.75,1.69 2,2.04 4.6,2.34 5.69,2.34 3.33,0 6.13,-3.03 6.13,-9.31 0,-7.03 -3.49,-9.61 -6.72,-9.61 l 0.54,-1.8 c 7.47,0 12.55,4.49 12.55,11.41 0,6.62 -4.53,11.31 -11.7,11.31 -3.74,0 -6.38,-1.55 -7.53,-2.44 l 0,2.44 -8.82,-0.41 0,-2.34 c 3.1,0 3.44,0 3.44,-1.89 l 0,-25.11 -3.44,0 0,-2.34 c 1.39,0.06 4.39,0.15 6.28,0.15 1.94,0 4.88,-0.09 6.27,-0.15 l 0,2.34 -3.44,0 z"
         inkscape:connector-curvature="0"
         style="fill:#000000;stroke-width:0" /><path
         id="path8304"
         d="m 499.13,406.57 0,0.01 0,0 0,0 -0.01,0 0,0.01 0,0 0,0 -0.01,0.01 0,0 -0.01,0.01 0,0 -0.01,0.02 -0.01,0.01 -0.01,0.01 -0.02,0.01 -0.01,0.01 -0.01,0.02 -0.01,0.01 -0.01,0.02 -0.03,0.03 -0.02,0.03 -0.02,0.01 -0.01,0.01 -0.01,0.02 -0.01,0.01 -0.01,0.01 -0.01,0.02 -0.01,0.01 0,0.01 -0.01,0 0,0.01 0,0 -0.01,0.01 0,0 0,0 0,0.01 -0.01,0 0,0 0,0 0,0.01 0,0 c 0,0.11 2.3,2.58 2.61,2.89 1.22,1.36 2.44,2.69 5.2,2.72 l 0,1.25 c -0.98,-0.07 -1.98,-0.14 -2.93,-0.14 -1.05,0 -2.41,0.03 -3.44,0.14 l 0,-1.25 c 0.58,-0.11 0.69,-0.49 0.69,-0.8 0,-0.08 0,-0.59 -0.52,-1.19 l -2.44,-2.75 -2.89,3.3 c -0.36,0.39 -0.39,0.56 -0.39,0.7 0,0.52 0.49,0.74 0.94,0.74 l 0,1.25 c -1.28,-0.11 -2.61,-0.14 -3.91,-0.14 -1.03,0 -2.36,0.03 -3.37,0.14 l 0,-1.25 c 1.61,0 2.51,0 3.42,-1.05 l 4.34,-5.02 c 0.05,-0.03 0.29,-0.31 0.29,-0.34 0,-0.11 -2.61,-2.97 -2.96,-3.36 -1.29,-1.39 -2.48,-2.67 -5.26,-2.75 l 0,-1.25 c 1.04,0.06 1.81,0.14 2.89,0.14 1.04,0 2.43,-0.03 3.48,-0.14 l 0,1.25 c -0.42,0.08 -0.7,0.31 -0.7,0.81 0,0.66 0.39,1.11 0.95,1.71 l 2.44,2.68 3.03,-3.45 c 0.66,-0.73 0.66,-0.81 0.66,-1.01 0,-0.69 -0.8,-0.74 -0.94,-0.74 l 0,-1.25 c 0.31,0.03 2.83,0.14 3.94,0.14 1.11,0 2.23,-0.03 3.34,-0.14 l 0,1.25 c -2.33,0 -2.61,0.22 -3.42,1.13 z"
         inkscape:connector-curvature="0"
         style="fill:#000000;stroke-width:0" /><path
         id="path8306"
         d="m 524.68,410.37 0.05,0.1 0.05,0.09 0.05,0.1 0.04,0.09 0.05,0.08 0.06,0.09 0.1,0.15 0.11,0.15 0.11,0.14 0.11,0.13 0.12,0.11 0.12,0.11 0.12,0.1 0.12,0.09 0.12,0.09 0.12,0.07 0.12,0.07 0.12,0.06 0.12,0.06 0.12,0.04 0.12,0.05 0.11,0.03 0.12,0.04 0.11,0.02 0.1,0.02 0.11,0.02 0.1,0.02 0.09,0.01 0.09,0.01 0.09,0.01 0.08,0 0.08,0 0.07,0.01 0.06,0 0.06,0 0,1.25 c -0.99,-0.07 -1.65,-0.14 -2.66,-0.14 -0.94,0 -2.24,0.03 -3.17,0.14 l 0,-1.25 c 1.15,-0.08 1.43,-0.77 1.43,-1.33 0,-0.42 -0.17,-0.74 -0.31,-1.08 l -3.87,-8.26 -4.28,9.2 c -0.11,0.22 -0.22,0.42 -0.22,0.67 0,0.8 1.18,0.8 1.78,0.8 l 0,1.25 c -0.52,-0.03 -3.03,-0.14 -4,-0.14 -1.05,0 -2.41,0.03 -3.42,0.14 l 0,-1.25 c 1.95,0 2.34,-0.11 2.86,-1.22 L 518,398.76 c -0.32,-0.7 -0.68,-1.36 -0.99,-2.06 -0.76,-1.67 -1.87,-4.06 -4.25,-4.06 -0.87,0 -1.14,0.17 -1.5,0.4 0.03,0 1.02,0.36 1.02,1.5 0,0.88 -0.63,1.5 -1.5,1.5 -0.91,0 -1.53,-0.62 -1.53,-1.53 0,-1.64 1.64,-2.86 3.51,-2.86 2.97,0 4.67,3.11 5.16,4.14 z"
         inkscape:connector-curvature="0"
         style="fill:#000000;stroke-width:0" /></g>  </g>
</svg>
