<?xml version="1.0" encoding="UTF-8" standalone="no"?>
<!-- Created with matplotlib (http://matplotlib.org/) -->

<svg
   xmlns:dc="http://purl.org/dc/elements/1.1/"
   xmlns:cc="http://creativecommons.org/ns#"
   xmlns:rdf="http://www.w3.org/1999/02/22-rdf-syntax-ns#"
   xmlns:svg="http://www.w3.org/2000/svg"
   xmlns="http://www.w3.org/2000/svg"
   xmlns:xlink="http://www.w3.org/1999/xlink"
   xmlns:sodipodi="http://sodipodi.sourceforge.net/DTD/sodipodi-0.dtd"
   xmlns:inkscape="http://www.inkscape.org/namespaces/inkscape"
   height="348pt"
   version="1.1"
   viewBox="0 0 444 348"
   width="444pt"
   id="svg19134"
   inkscape:version="0.91 r13725"
   sodipodi:docname="stable_position.svg"
   inkscape:export-filename="/home/skyler/research/handoff_research/figures/orbit_tuning/stable_position.png"
   inkscape:export-xdpi="200"
   inkscape:export-ydpi="200">
  <metadata
     id="metadata19592">
    <rdf:RDF>
      <cc:Work
         rdf:about="">
        <dc:format>image/svg+xml</dc:format>
        <dc:type
           rdf:resource="http://purl.org/dc/dcmitype/StillImage" />
      </cc:Work>
    </rdf:RDF>
  </metadata>
  <sodipodi:namedview
     pagecolor="#ffffff"
     bordercolor="#666666"
     borderopacity="1"
     objecttolerance="10"
     gridtolerance="10"
     guidetolerance="10"
     inkscape:pageopacity="0"
     inkscape:pageshadow="2"
     inkscape:window-width="1468"
     inkscape:window-height="819"
     id="namedview19590"
     showgrid="false"
     inkscape:zoom="0.54252874"
     inkscape:cx="77.510593"
     inkscape:cy="217.5"
     inkscape:window-x="53"
     inkscape:window-y="24"
     inkscape:window-maximized="0"
     inkscape:current-layer="svg19134" />
  <defs
     id="defs19136">
    <style
       type="text/css"
       id="style19138">
*{stroke-linecap:butt;stroke-linejoin:round;stroke-miterlimit:100000;}
  </style>
  </defs>
  <g
     id="figure_1">
    <g
       id="patch_1" />
    <g
       id="axes_1">
      <g
         id="patch_2">
        <path
           d="M 67.68 313.632  L 431.28 313.632  L 431.28 18.81792  L 67.68 18.81792  z "
           style="fill:#ffffff;"
           id="path19146" />
      </g>
      <g
         id="line2d_1">
        <path
           clip-path="url(#pb0da7ff15f)"
           d="M 337.371543 156.662821  L 338.321972 151.758179  L 339.071352 146.722816  L 339.577224 141.817272  L 339.862987 136.726627  L 339.904261 131.924515  L 339.735572 127.378666  L 339.373719 122.96485  L 338.807091 118.514817  L 337.983463 113.821468  L 337.00325 109.45295  L 335.789268 105.011398  L 334.401362 100.722591  L 332.672239 96.139637  L 330.750685 91.726868  L 328.685291 87.556931  L 326.357699 83.390393  L 324.056753 79.699989  L 321.304888 75.728066  L 318.565368 72.162354  L 315.812588 68.90439  L 313.374913 66.252104  L 309.782127 62.686306  L 306.204218 59.486511  L 302.334129 56.368667  L 298.647591 53.695144  L 294.676961 51.108704  L 291.124613 49.031609  L 287.554194 47.15434  L 283.278209 45.167361  L 279.111098 43.489813  L 274.926092 42.048997  L 270.558915 40.794576  L 266.028896 39.753697  L 261.59311 38.984317  L 261.59311 38.984317  L 257.127056 38.451774  L 253.088093 38.174016  L 248.790389 38.087039  L 244.451589 38.214078  L 240.178203 38.547495  L 235.61864 39.128227  L 235.61864 39.128227  L 230.85554 39.980046  L 226.311711 41.025789  L 221.845321 42.288637  L 217.64047 43.711594  L 217.64047 43.711594  L 213.454409 45.376594  L 209.606868 47.143504  L 205.682931 49.198223  L 202.234872 51.230152  L 198.489643 53.695835  L 194.774123 56.430505  L 191.465264 59.130491  L 188.277508 61.993259  L 184.855652 65.385774  L 181.561898 69.005307  L 178.50662 72.719285  L 175.870721 76.24478  L 173.12923 80.28581  L 173.12923 80.28581  L 170.574723 84.465144  L 168.223062 88.744338  L 165.979285 93.310269  L 164.154482 97.465002  L 162.255765 102.336887  L 162.255765 102.336887  L 160.543628 107.382717  L 160.543628 107.382717  L 159.04076 112.551174  L 157.817507 117.54073  L 156.776702 122.699489  L 155.908394 128.197662  L 155.287 133.628232  L 154.897286 139.007979  L 154.726194 144.549714  L 154.784588 150.048763  L 155.032119 155.017689  L 155.508007 160.387434  L 156.243847 166.039833  L 157.150416 171.31429  L 158.325139 176.803351  L 159.799544 182.487843  L 161.299451 187.415156  L 161.299451 187.415156  L 163.112483 192.604376  L 165.178085 197.797615  L 167.351761 202.659816  L 169.819763 207.613132  L 172.411254 212.303513  L 175.23402 216.927413  L 178.169527 221.287007  L 181.096597 225.241628  L 184.087867 228.925701  L 187.354939 232.582639  L 190.665012 235.939669  L 194.234419 239.211656  L 197.54118 241.955296  L 197.54118 241.955296  L 201.009297 244.566293  L 204.39746 246.876707  L 208.112224 249.157728  L 211.687159 251.121055  L 215.791743 253.112874  L 219.567713 254.711752  L 223.769081 256.241602  L 227.552294 257.403773  L 231.627575 258.434487  L 235.74607 259.247675  L 239.842346 259.83126  L 244.11473 260.201577  L 248.232374 260.328445  L 252.47669 260.22128  L 256.612916 259.881909  L 260.174968 259.401596  L 264.535753 258.573443  L 268.469485 257.595501  L 272.473354 256.368355  L 276.05949 255.062412  L 280.087001 253.350536  L 283.760473 251.549475  L 287.358544 249.548044  L 290.941686 247.30023  L 294.432865 244.836865  L 297.630336 242.314278  L 300.797692 239.530286  L 303.922186 236.464284  L 306.84477 233.260558  L 309.670793 229.797505  L 312.221758 226.303962  L 314.666109 222.557815  L 316.726734 219.024353  L 318.85183 214.922808  L 320.715842 210.827382  L 322.257378 206.96915  L 323.680464 202.882661  L 325.088392 198.109418  L 326.193108 193.554683  L 327.088942 188.932541  L 327.746028 184.477288  L 328.232587 179.680861  L 328.504512 174.50547  L 328.523501 169.801722  L 328.31904 165.043712  L 327.921315 160.616152  L 327.301691 156.097277  L 326.49294 151.750536  L 325.612641 147.973442  L 324.221537 143.106116  L 322.686111 138.670297  L 321.133576 134.822276  L 319.572279 131.406955  L 319.572279 131.406955  L 317.403314 127.217234  L 315.441177 123.852222  L 313.011195 120.1187  L 310.310338 116.413264  L 307.727793 113.223628  L 304.815848 109.971018  L 301.762179 106.892954  L 298.392119 103.835224  L 294.96597 101.043646  L 291.388298 98.426374  L 287.812622 96.081538  L 283.88557 93.790511  L 280.373822 91.977055  L 276.566232 90.247589  L 272.603612 88.695327  L 268.59864 87.372356  L 264.385049 86.238526  L 260.340569 85.392651  L 256.204732 84.769041  L 252.545598 84.417658  L 248.13461 84.240844  L 243.763161 84.328937  L 243.763161 84.328937  L 240.000709 84.613218  L 235.756946 85.16391  L 231.559562 85.949237  L 227.622044 86.90583  L 223.892335 88.011659  L 220.10746 89.335969  L 215.78778 91.103759  L 211.964366 92.905529  L 207.840534 95.112315  L 203.753899 97.584583  L 200.171773 99.998801  L 196.498979 102.726544  L 192.57976 105.929476  L 188.853386 109.270272  L 185.637636 112.41762  L 182.22737 116.080694  L 179.295261 119.549426  L 176.276658 123.489941  L 173.564054 127.420132  L 171.156737 131.287599  L 168.773568 135.559805  L 166.730452 139.677217  L 164.882982 143.882782  L 163.245335 148.138516  L 161.812408 152.446514  L 160.61031 156.694555  L 159.557041 161.188408  L 158.685389 165.894525  L 158.041412 170.597399  L 157.617357 175.284008  L 157.396243 180.315979  L 157.408471 185.249005  L 157.652252 190.309806  L 158.100872 195.129212  L 158.824355 200.348557  L 159.726621 205.231293  L 160.721474 209.602292  L 162.120634 214.738717  L 163.585346 219.319639  L 163.585346 219.319639  L 165.363887 224.15845  L 167.205914 228.579412  L 169.48234 233.440609  L 171.842927 237.949056  L 174.436633 242.413327  L 174.436633 242.413327  L 177.073341 246.525739  L 180.223827 250.97686  L 183.401315 255.041751  L 186.647444 258.823274  L 189.920097 262.307684  L 193.667787 265.949738  L 197.362471 269.223962  L 201.379272 272.470403  L 205.51692 275.511132  L 209.512619 278.184329  L 213.583852 280.663094  L 218.098186 283.141698  L 222.725261 285.404512  L 227.483855 287.451625  L 231.571982 288.991978  L 236.292294 290.525504  L 240.80373 291.749499  L 245.376916 292.751652  L 249.865036 293.50313  L 254.534394 294.038749  L 258.791498 294.30536  L 262.930451 294.357915  L 267.109311 294.200364  L 270.985602 293.860628  L 275.436253 293.23362  L 279.344931 292.46591  L 279.344931 292.46591  L 283.4849 291.421155  L 287.728077 290.090018  L 291.492804 288.675004  L 295.378565 286.968219  L 295.378565 286.968219  L 298.800606 285.243445  L 302.482298 283.138502  L 306.172877 280.746241  L 309.566856 278.272294  L 312.870259 275.585604  L 315.977351 272.778633  L 319.158338 269.586905  L 322.194923 266.195162  L 324.8736 262.878268  L 327.404932 259.411642  L 330.042426 255.377172  L 330.042426 255.377172  L 332.373454 251.358843  L 334.314304 247.597673  L 335.972763 243.999294  L 337.654166 239.867157  L 337.654166 239.867157  L 339.288114 235.198019  L 340.677321 230.46958  L 341.730958 226.136891  L 342.684045 221.255901  L 343.411359 216.30045  L 343.891139 211.551624  L 343.891139 211.551624  L 344.180569 206.365406  L 344.231391 201.245634  L 344.087537 196.802333  L 343.690841 191.535947  L 343.065668 186.401393  L 342.196421 181.232383  L 341.115249 176.202118  L 339.861802 171.404737  L 338.245619 166.195295  L 336.517017 161.411168  L 334.516199 156.569999  L 332.34038 151.917413  L 330.076719 147.585917  L 330.076719 147.585917  L 327.657424 143.40534  L 324.978435 139.210305  L 322.01024 134.999304  L 319.004102 131.126309  L 315.776646 127.341593  L 312.769062 124.117309  L 309.111263 120.541486  L 309.026941 120.463179  L 309.026941 120.463179  "
           style="fill:none;stroke:#b40000;stroke-linecap:square;"
           id="path19149" />
      </g>
      <g
         id="line2d_2">
        <path
           clip-path="url(#pb0da7ff15f)"
           d="M 317.591559 120.463179  L 317.574315 119.881062  L 317.522655 119.30129  L 317.436785 118.726196  L 317.317051 118.158097  L 317.163937 117.599279  L 316.978057 117.051993  L 316.760162 116.518443  L 316.511127 116.000777  L 316.231956 115.501079  L 315.923773 115.021362  L 315.587819 114.563557  L 315.225446 114.129508  L 314.838115 113.720962  L 314.427384 113.339565  L 313.994907 112.986853  L 313.542426 112.664244  L 313.071762 112.37304  L 312.584812 112.114411  L 312.083535 111.8894  L 311.569951 111.698912  L 311.046126 111.543716  L 310.514172 111.424434  L 309.976228 111.341549  L 309.434462 111.295393  L 308.891055 111.286152  L 308.348196 111.313864  L 307.808069 111.378418  L 307.272851 111.479552  L 306.744695 111.61686  L 306.225729 111.789789  L 305.718043 111.997643  L 305.223681 112.239585  L 304.744633 112.51464  L 304.282828 112.821701  L 303.840126 113.159532  L 303.41831 113.526772  L 303.019077 113.921942  L 302.644037 114.343452  L 302.294697 114.789603  L 301.972467 115.2586  L 301.678642 115.748554  L 301.414406 116.257492  L 301.180823 116.783365  L 300.978834 117.324056  L 300.809251 117.877386  L 300.672759 118.441129  L 300.569905 119.013013  L 300.501105 119.590737  L 300.466636 120.171974  L 300.466636 120.754383  L 300.501105 121.33562  L 300.569905 121.913344  L 300.672759 122.485229  L 300.809251 123.048971  L 300.978834 123.602302  L 301.180823 124.142992  L 301.414406 124.668865  L 301.678642 125.177803  L 301.972467 125.667757  L 302.294697 126.136754  L 302.644037 126.582906  L 303.019077 127.004415  L 303.41831 127.399586  L 303.840126 127.766825  L 304.282828 128.104656  L 304.744633 128.411717  L 305.223681 128.686772  L 305.718043 128.928714  L 306.225729 129.136568  L 306.744695 129.309497  L 307.272851 129.446805  L 307.808069 129.54794  L 308.348196 129.612493  L 308.891055 129.640205  L 309.434462 129.630965  L 309.976228 129.584809  L 310.514172 129.501923  L 311.046126 129.382642  L 311.569951 129.227445  L 312.083535 129.036957  L 312.584812 128.811946  L 313.071762 128.553318  L 313.542426 128.262113  L 313.994907 127.939505  L 314.427384 127.586792  L 314.838115 127.205395  L 315.225446 126.796849  L 315.587819 126.3628  L 315.923773 125.904995  L 316.231956 125.425278  L 316.511127 124.925581  L 316.760162 124.407914  L 316.978057 123.874364  L 317.163937 123.327078  L 317.317051 122.76826  L 317.436785 122.200161  L 317.522655 121.625067  L 317.574315 121.045295  L 317.591559 120.463179  "
           style="fill:none;stroke:#b40000;stroke-linecap:square;"
           id="path19152" />
      </g>
      <g
         id="line2d_3">
        <path
           clip-path="url(#pb0da7ff15f)"
           d="M 253.611799 126.055948  L 253.788397 125.168692  L 253.635099 124.47901  L 253.255091 123.838493  L 252.785165 123.500946  L 252.785165 123.500946  L 251.331417 123.043988  L 251.331417 123.043988  L 250.817321 123.121485  L 250.348892 123.361346  L 250.348892 123.361346  L 249.900767 123.883357  L 249.214774 125.030292  L 249.214774 125.030292  L 248.949864 126.580658  L 248.906343 127.645372  L 249.104357 128.375278  L 249.104357 128.375278  L 249.238186 128.964324  L 249.140026 129.61403  L 249.140026 129.61403  L 248.750726 130.539433  L 248.627418 131.131109  L 248.534103 133.149586  L 248.198103 133.759134  L 247.782501 134.093566  L 247.782501 134.093566  L 247.270237 134.541495  L 246.920204 135.083215  L 246.920204 135.083215  L 246.774277 135.87675  L 246.774277 135.87675  L 246.559102 136.437438  L 245.531249 138.17631  L 245.274367 139.621979  L 244.983063 140.141983  L 244.592547 140.712573  L 244.456956 141.354626  L 244.524523 142.111417  L 244.524523 142.111417  L 244.537306 142.667598  L 244.537306 142.667598  L 244.344704 144.295954  L 244.272279 144.897219  L 244.032702 145.919498  L 244.032702 145.919498  L 244.003364 146.724848  L 244.003364 146.724848  L 243.718429 148.03447  L 244.11601 150.574394  L 244.491048 151.030464  L 244.903618 151.368174  L 245.833213 151.9469  L 245.833213 151.9469  L 246.157092 152.563042  L 246.157092 152.563042  L 246.213336 153.217818  L 246.033546 154.005796  L 246.033546 154.005796  L 245.900336 154.802049  L 246.015901 155.758874  L 246.296529 156.562218  L 246.296529 156.562218  L 246.951256 157.296424  L 247.614998 158.011552  L 248.975979 158.909495  L 249.248697 159.440653  L 249.327232 160.142347  L 249.140996 160.823836  L 248.715088 161.786052  L 248.288316 162.184018  L 247.54476 162.512609  L 245.698118 162.91441  L 245.698118 162.91441  L 243.950211 162.494296  L 242.835034 161.866606  L 242.835034 161.866606  L 242.409542 161.876218  L 242.409542 161.876218  L 241.836685 162.113615  L 241.398247 162.496742  L 241.101952 163.07302  L 241.038917 163.625254  L 241.003927 164.589581  L 241.003927 164.589581  L 241.025101 165.245764  L 241.286825 165.841454  L 241.426993 166.428803  L 241.5624 167.371993  L 241.975889 168.486935  L 242.078492 169.083134  L 242.611628 170.675137  L 242.611628 170.675137  L 242.824812 171.236698  L 243.603965 172.564229  L 243.641763 173.169209  L 243.478889 173.69747  L 243.478889 173.69747  L 243.000142 174.325903  L 242.787921 174.833646  L 242.554188 175.548219  L 241.947292 176.725233  L 241.947292 176.725233  L 241.760702 177.297561  L 241.055215 178.691622  L 241.151321 179.289069  L 241.151321 179.289069  L 241.377248 180.110583  L 241.377248 180.110583  L 241.48908 181.44998  L 242.114046 182.588256  L 242.89056 183.847175  L 242.89056 183.847175  L 242.917351 184.704665  L 242.718114 185.984817  L 242.972983 186.63603  L 243.421627 187.085483  L 243.985785 187.34691  L 244.774049 187.677757  L 244.774049 187.677757  L 245.377122 188.071318  L 245.377122 188.071318  L 245.987026 188.157774  L 245.987026 188.157774  L 247.398787 188.323393  L 247.398787 188.323393  L 248.027049 188.669  L 248.027049 188.669  L 249.140453 189.719629  L 249.562988 189.77414  L 250.955786 189.743867  L 251.385491 190.056078  L 252.338867 191.006731  L 252.338867 191.006731  L 252.845524 191.374853  L 253.20796 191.968825  L 253.325885 192.56176  L 253.325885 192.56176  L 253.232993 193.210745  L 253.232993 193.210745  L 252.785786 194.5257  L 252.785786 194.5257  L 252.945769 195.158882  L 252.945769 195.158882  L 253.451739 196.338023  L 253.381579 196.990279  L 253.008161 198.376744  L 253.008161 198.376744  L 253.167966 198.958307  L 253.167966 198.958307  L 253.753688 200.26048  L 253.967921 200.821582  L 254.398364 201.29091  L 254.872939 201.516484  L 254.872939 201.516484  L 255.539925 201.764766  L 256.589968 202.41141  L 257.087891 202.568897  L 257.60935 203.005717  L 258.121158 203.264079  L 258.121158 203.264079  L 258.686398 203.318339  L 258.686398 203.318339  L 259.228884 203.146362  L 259.228884 203.146362  L 260.056758 202.554962  L 260.402587 202.075175  L 260.402587 202.075175  L 260.543751 201.436875  L 260.543751 201.436875  L 260.435635 200.841797  L 260.171697 199.978529  L 260.225726 199.222909  L 260.568346 198.441329  L 260.568346 198.441329  L 260.926257 197.396852  L 260.85805 196.691307  L 260.865549 195.879376  L 260.865549 195.879376  L 260.833067 195.17137  L 260.833067 195.17137  L 260.559285 194.417588  L 260.122129 193.95494  L 259.801772 193.455257  L 259.630028 192.716678  L 259.630028 192.716678  L 259.633703 191.598809  L 259.573887 190.339154  L 259.573887 190.339154  L 259.416731 189.447007  L 259.416731 189.447007  L 259.546891 188.804939  L 259.870403 188.306076  L 259.870403 188.306076  L 260.399227 187.526219  L 260.399227 187.526219  L 260.586479 186.954038  L 260.574367 186.346357  L 260.353562 185.788189  L 260.353562 185.788189  L 259.873667 184.924778  L 259.556311 183.441869  L 259.556311 183.441869  "
           style="fill:none;stroke:#0048b4;stroke-linecap:square;"
           id="path19155" />
      </g>
      <g
         id="line2d_4">
        <path
           clip-path="url(#pb0da7ff15f)"
           d="M 268.120928 183.441869  L 268.103685 182.859753  L 268.052024 182.27998  L 267.966154 181.704887  L 267.846421 181.136787  L 267.693306 180.577969  L 267.507427 180.030683  L 267.289531 179.497133  L 267.040496 178.979467  L 266.761325 178.479769  L 266.453142 178.000052  L 266.117188 177.542248  L 265.754816 177.108198  L 265.367484 176.699653  L 264.956753 176.318256  L 264.524276 175.965543  L 264.071795 175.642935  L 263.601132 175.35173  L 263.114181 175.093101  L 262.612905 174.86809  L 262.09932 174.677603  L 261.575496 174.522406  L 261.043541 174.403125  L 260.505597 174.320239  L 259.963832 174.274083  L 259.420425 174.264843  L 258.877565 174.292555  L 258.337439 174.357108  L 257.80222 174.458242  L 257.274064 174.595551  L 256.755099 174.76848  L 256.247413 174.976334  L 255.75305 175.218275  L 255.274002 175.49333  L 254.812197 175.800392  L 254.369496 176.138222  L 253.947679 176.505462  L 253.548447 176.900632  L 253.173406 177.322142  L 252.824067 177.768294  L 252.501836 178.237291  L 252.208011 178.727245  L 251.943775 179.236183  L 251.710192 179.762056  L 251.508203 180.302746  L 251.338621 180.856076  L 251.202128 181.419819  L 251.099275 181.991703  L 251.030475 182.569427  L 250.996005 183.150664  L 250.996005 183.733074  L 251.030475 184.314311  L 251.099275 184.892034  L 251.202128 185.463919  L 251.338621 186.027662  L 251.508203 186.580992  L 251.710192 187.121682  L 251.943775 187.647555  L 252.208011 188.156493  L 252.501836 188.646447  L 252.824067 189.115444  L 253.173406 189.561596  L 253.548447 189.983106  L 253.947679 190.378276  L 254.369496 190.745516  L 254.812197 191.083346  L 255.274002 191.390407  L 255.75305 191.665463  L 256.247413 191.907404  L 256.755099 192.115258  L 257.274064 192.288187  L 257.80222 192.425496  L 258.337439 192.52663  L 258.877565 192.591183  L 259.420425 192.618895  L 259.963832 192.609655  L 260.505597 192.563499  L 261.043541 192.480613  L 261.575496 192.361332  L 262.09932 192.206135  L 262.612905 192.015648  L 263.114181 191.790637  L 263.601132 191.532008  L 264.071795 191.240803  L 264.524276 190.918195  L 264.956753 190.565482  L 265.367484 190.184085  L 265.754816 189.77554  L 266.117188 189.34149  L 266.453142 188.883686  L 266.761325 188.403969  L 267.040496 187.904271  L 267.289531 187.386605  L 267.507427 186.853055  L 267.693306 186.305769  L 267.846421 185.746951  L 267.966154 185.178851  L 268.052024 184.603758  L 268.103685 184.023985  L 268.120928 183.441869  "
           style="fill:none;stroke:#0048b4;stroke-linecap:square;"
           id="path19158" />
      </g>
      <g
         id="patch_3">
        <path
           d="M 67.68 18.81792  L 431.28 18.81792  "
           style="fill:none;"
           id="path19161" />
      </g>
      <g
         id="patch_4">
        <path
           d="M 431.28 313.632  L 431.28 18.81792  "
           style="fill:none;"
           id="path19164" />
      </g>
      <g
         id="patch_5">
        <path
           d="M 67.68 313.632  L 431.28 313.632  "
           style="fill:none;stroke:#000000;stroke-linecap:square;stroke-linejoin:miter;"
           id="path19167" />
      </g>
      <g
         id="patch_6">
        <path
           d="M 67.68 313.632  L 67.68 18.81792  "
           style="fill:none;stroke:#000000;stroke-linecap:square;stroke-linejoin:miter;"
           id="path19170" />
      </g>
      <g
         id="matplotlib.axis_1">
        <g
           id="xtick_1">
          <g
             id="line2d_5">
            <defs
               id="defs19175">
              <path
                 d="M 0 0  L 0 -4  "
                 id="md6381dde4e"
                 style="stroke:#000000;stroke-width:0.5;" />
            </defs>
            <g
               id="g19178">
              <use
                 style="stroke:#000000;stroke-width:0.5;"
                 x="134.09955560559575"
                 xlink:href="#md6381dde4e"
                 y="313.632"
                 id="use19180" />
            </g>
          </g>
          <g
             id="text_1">
            <!-- −300 -->
            <defs
               id="defs19183">
              <path
                 d="M 10.59375 35.5  L 73.1875 35.5  L 73.1875 27.203125  L 10.59375 27.203125  z "
                 id="BitstreamVeraSans-Roman-2212" />
              <path
                 d="M 40.578125 39.3125  Q 47.65625 37.796875 51.625 33  Q 55.609375 28.21875 55.609375 21.1875  Q 55.609375 10.40625 48.1875 4.484375  Q 40.765625 -1.421875 27.09375 -1.421875  Q 22.515625 -1.421875 17.65625 -0.515625  Q 12.796875 0.390625 7.625 2.203125  L 7.625 11.71875  Q 11.71875 9.328125 16.59375 8.109375  Q 21.484375 6.890625 26.8125 6.890625  Q 36.078125 6.890625 40.9375 10.546875  Q 45.796875 14.203125 45.796875 21.1875  Q 45.796875 27.640625 41.28125 31.265625  Q 36.765625 34.90625 28.71875 34.90625  L 20.21875 34.90625  L 20.21875 43.015625  L 29.109375 43.015625  Q 36.375 43.015625 40.234375 45.921875  Q 44.09375 48.828125 44.09375 54.296875  Q 44.09375 59.90625 40.109375 62.90625  Q 36.140625 65.921875 28.71875 65.921875  Q 24.65625 65.921875 20.015625 65.03125  Q 15.375 64.15625 9.8125 62.3125  L 9.8125 71.09375  Q 15.4375 72.65625 20.34375 73.4375  Q 25.25 74.21875 29.59375 74.21875  Q 40.828125 74.21875 47.359375 69.109375  Q 53.90625 64.015625 53.90625 55.328125  Q 53.90625 49.265625 50.4375 45.09375  Q 46.96875 40.921875 40.578125 39.3125  "
                 id="BitstreamVeraSans-Roman-33" />
              <path
                 d="M 31.78125 66.40625  Q 24.171875 66.40625 20.328125 58.90625  Q 16.5 51.421875 16.5 36.375  Q 16.5 21.390625 20.328125 13.890625  Q 24.171875 6.390625 31.78125 6.390625  Q 39.453125 6.390625 43.28125 13.890625  Q 47.125 21.390625 47.125 36.375  Q 47.125 51.421875 43.28125 58.90625  Q 39.453125 66.40625 31.78125 66.40625  M 31.78125 74.21875  Q 44.046875 74.21875 50.515625 64.515625  Q 56.984375 54.828125 56.984375 36.375  Q 56.984375 17.96875 50.515625 8.265625  Q 44.046875 -1.421875 31.78125 -1.421875  Q 19.53125 -1.421875 13.0625 8.265625  Q 6.59375 17.96875 6.59375 36.375  Q 6.59375 54.828125 13.0625 64.515625  Q 19.53125 74.21875 31.78125 74.21875  "
                 id="BitstreamVeraSans-Roman-30" />
            </defs>
            <g
               transform="translate(117.61924310559576 326.750125)scale(0.12 -0.12)"
               id="g19188">
              <use
                 xlink:href="#BitstreamVeraSans-Roman-2212"
                 id="use19190" />
              <use
                 x="83.7890625"
                 xlink:href="#BitstreamVeraSans-Roman-33"
                 id="use19192" />
              <use
                 x="147.412109375"
                 xlink:href="#BitstreamVeraSans-Roman-30"
                 id="use19194" />
              <use
                 x="211.03515625"
                 xlink:href="#BitstreamVeraSans-Roman-30"
                 id="use19196" />
            </g>
          </g>
        </g>
        <g
           id="xtick_2">
          <g
             id="line2d_6">
            <g
               id="g19200">
              <use
                 style="stroke:#000000;stroke-width:0.5;"
                 x="203.90842712265024"
                 xlink:href="#md6381dde4e"
                 y="313.632"
                 id="use19202" />
            </g>
          </g>
          <g
             id="text_2">
            <!-- −200 -->
            <defs
               id="defs19205">
              <path
                 d="M 19.1875 8.296875  L 53.609375 8.296875  L 53.609375 0  L 7.328125 0  L 7.328125 8.296875  Q 12.9375 14.109375 22.625 23.890625  Q 32.328125 33.6875 34.8125 36.53125  Q 39.546875 41.84375 41.421875 45.53125  Q 43.3125 49.21875 43.3125 52.78125  Q 43.3125 58.59375 39.234375 62.25  Q 35.15625 65.921875 28.609375 65.921875  Q 23.96875 65.921875 18.8125 64.3125  Q 13.671875 62.703125 7.8125 59.421875  L 7.8125 69.390625  Q 13.765625 71.78125 18.9375 73  Q 24.125 74.21875 28.421875 74.21875  Q 39.75 74.21875 46.484375 68.546875  Q 53.21875 62.890625 53.21875 53.421875  Q 53.21875 48.921875 51.53125 44.890625  Q 49.859375 40.875 45.40625 35.40625  Q 44.1875 33.984375 37.640625 27.21875  Q 31.109375 20.453125 19.1875 8.296875  "
                 id="BitstreamVeraSans-Roman-32" />
            </defs>
            <g
               transform="translate(187.42811462265024 326.750125)scale(0.12 -0.12)"
               id="g19208">
              <use
                 xlink:href="#BitstreamVeraSans-Roman-2212"
                 id="use19210" />
              <use
                 x="83.7890625"
                 xlink:href="#BitstreamVeraSans-Roman-32"
                 id="use19212" />
              <use
                 x="147.412109375"
                 xlink:href="#BitstreamVeraSans-Roman-30"
                 id="use19214" />
              <use
                 x="211.03515625"
                 xlink:href="#BitstreamVeraSans-Roman-30"
                 id="use19216" />
            </g>
          </g>
        </g>
        <g
           id="xtick_3">
          <g
             id="line2d_7">
            <g
               id="g19220">
              <use
                 style="stroke:#000000;stroke-width:0.5;"
                 x="273.7172986397047"
                 xlink:href="#md6381dde4e"
                 y="313.632"
                 id="use19222" />
            </g>
          </g>
          <g
             id="text_3">
            <!-- −100 -->
            <defs
               id="defs19225">
              <path
                 d="M 12.40625 8.296875  L 28.515625 8.296875  L 28.515625 63.921875  L 10.984375 60.40625  L 10.984375 69.390625  L 28.421875 72.90625  L 38.28125 72.90625  L 38.28125 8.296875  L 54.390625 8.296875  L 54.390625 0  L 12.40625 0  z "
                 id="BitstreamVeraSans-Roman-31" />
            </defs>
            <g
               transform="translate(257.2369861397047 326.750125)scale(0.12 -0.12)"
               id="g19228">
              <use
                 xlink:href="#BitstreamVeraSans-Roman-2212"
                 id="use19230" />
              <use
                 x="83.7890625"
                 xlink:href="#BitstreamVeraSans-Roman-31"
                 id="use19232" />
              <use
                 x="147.412109375"
                 xlink:href="#BitstreamVeraSans-Roman-30"
                 id="use19234" />
              <use
                 x="211.03515625"
                 xlink:href="#BitstreamVeraSans-Roman-30"
                 id="use19236" />
            </g>
          </g>
        </g>
        <g
           id="xtick_4">
          <g
             id="line2d_8">
            <g
               id="g19240">
              <use
                 style="stroke:#000000;stroke-width:0.5;"
                 x="343.5261701567592"
                 xlink:href="#md6381dde4e"
                 y="313.632"
                 id="use19242" />
            </g>
          </g>
          <g
             id="text_4">
            <!-- 0 -->
            <g
               transform="translate(339.7086701567592 326.750125)scale(0.12 -0.12)"
               id="g19245">
              <use
                 xlink:href="#BitstreamVeraSans-Roman-30"
                 id="use19247" />
            </g>
          </g>
        </g>
        <g
           id="xtick_5">
          <g
             id="line2d_9">
            <g
               id="g19251">
              <use
                 style="stroke:#000000;stroke-width:0.5;"
                 x="413.33504167381363"
                 xlink:href="#md6381dde4e"
                 y="313.632"
                 id="use19253" />
            </g>
          </g>
          <g
             id="text_5">
            <!-- 100 -->
            <g
               transform="translate(401.88254167381365 326.750125)scale(0.12 -0.12)"
               id="g19256">
              <use
                 xlink:href="#BitstreamVeraSans-Roman-31"
                 id="use19258" />
              <use
                 x="63.623046875"
                 xlink:href="#BitstreamVeraSans-Roman-30"
                 id="use19260" />
              <use
                 x="127.24609375"
                 xlink:href="#BitstreamVeraSans-Roman-30"
                 id="use19262" />
            </g>
          </g>
        </g>
        <g
           id="text_6">
          <!-- East (m)  -->
          <defs
             id="defs19265">
            <path
               id="BitstreamVeraSans-Roman-20" />
            <path
               d="M 8.015625 75.875  L 15.828125 75.875  Q 23.140625 64.359375 26.78125 53.3125  Q 30.421875 42.28125 30.421875 31.390625  Q 30.421875 20.453125 26.78125 9.375  Q 23.140625 -1.703125 15.828125 -13.1875  L 8.015625 -13.1875  Q 14.5 -2 17.703125 9.0625  Q 20.90625 20.125 20.90625 31.390625  Q 20.90625 42.671875 17.703125 53.65625  Q 14.5 64.65625 8.015625 75.875  "
               id="BitstreamVeraSans-Roman-29" />
            <path
               d="M 31 75.875  Q 24.46875 64.65625 21.28125 53.65625  Q 18.109375 42.671875 18.109375 31.390625  Q 18.109375 20.125 21.3125 9.0625  Q 24.515625 -2 31 -13.1875  L 23.1875 -13.1875  Q 15.875 -1.703125 12.234375 9.375  Q 8.59375 20.453125 8.59375 31.390625  Q 8.59375 42.28125 12.203125 53.3125  Q 15.828125 64.359375 23.1875 75.875  z "
               id="BitstreamVeraSans-Roman-28" />
            <path
               d="M 9.8125 72.90625  L 55.90625 72.90625  L 55.90625 64.59375  L 19.671875 64.59375  L 19.671875 43.015625  L 54.390625 43.015625  L 54.390625 34.71875  L 19.671875 34.71875  L 19.671875 8.296875  L 56.78125 8.296875  L 56.78125 0  L 9.8125 0  z "
               id="BitstreamVeraSans-Roman-45" />
            <path
               d="M 52 44.1875  Q 55.375 50.25 60.0625 53.125  Q 64.75 56 71.09375 56  Q 79.640625 56 84.28125 50.015625  Q 88.921875 44.046875 88.921875 33.015625  L 88.921875 0  L 79.890625 0  L 79.890625 32.71875  Q 79.890625 40.578125 77.09375 44.375  Q 74.3125 48.1875 68.609375 48.1875  Q 61.625 48.1875 57.5625 43.546875  Q 53.515625 38.921875 53.515625 30.90625  L 53.515625 0  L 44.484375 0  L 44.484375 32.71875  Q 44.484375 40.625 41.703125 44.40625  Q 38.921875 48.1875 33.109375 48.1875  Q 26.21875 48.1875 22.15625 43.53125  Q 18.109375 38.875 18.109375 30.90625  L 18.109375 0  L 9.078125 0  L 9.078125 54.6875  L 18.109375 54.6875  L 18.109375 46.1875  Q 21.1875 51.21875 25.484375 53.609375  Q 29.78125 56 35.6875 56  Q 41.65625 56 45.828125 52.96875  Q 50 49.953125 52 44.1875  "
               id="BitstreamVeraSans-Roman-6d" />
            <path
               d="M 18.3125 70.21875  L 18.3125 54.6875  L 36.8125 54.6875  L 36.8125 47.703125  L 18.3125 47.703125  L 18.3125 18.015625  Q 18.3125 11.328125 20.140625 9.421875  Q 21.96875 7.515625 27.59375 7.515625  L 36.8125 7.515625  L 36.8125 0  L 27.59375 0  Q 17.1875 0 13.234375 3.875  Q 9.28125 7.765625 9.28125 18.015625  L 9.28125 47.703125  L 2.6875 47.703125  L 2.6875 54.6875  L 9.28125 54.6875  L 9.28125 70.21875  z "
               id="BitstreamVeraSans-Roman-74" />
            <path
               d="M 34.28125 27.484375  Q 23.390625 27.484375 19.1875 25  Q 14.984375 22.515625 14.984375 16.5  Q 14.984375 11.71875 18.140625 8.90625  Q 21.296875 6.109375 26.703125 6.109375  Q 34.1875 6.109375 38.703125 11.40625  Q 43.21875 16.703125 43.21875 25.484375  L 43.21875 27.484375  z M 52.203125 31.203125  L 52.203125 0  L 43.21875 0  L 43.21875 8.296875  Q 40.140625 3.328125 35.546875 0.953125  Q 30.953125 -1.421875 24.3125 -1.421875  Q 15.921875 -1.421875 10.953125 3.296875  Q 6 8.015625 6 15.921875  Q 6 25.140625 12.171875 29.828125  Q 18.359375 34.515625 30.609375 34.515625  L 43.21875 34.515625  L 43.21875 35.40625  Q 43.21875 41.609375 39.140625 45  Q 35.0625 48.390625 27.6875 48.390625  Q 23 48.390625 18.546875 47.265625  Q 14.109375 46.140625 10.015625 43.890625  L 10.015625 52.203125  Q 14.9375 54.109375 19.578125 55.046875  Q 24.21875 56 28.609375 56  Q 40.484375 56 46.34375 49.84375  Q 52.203125 43.703125 52.203125 31.203125  "
               id="BitstreamVeraSans-Roman-61" />
            <path
               d="M 44.28125 53.078125  L 44.28125 44.578125  Q 40.484375 46.53125 36.375 47.5  Q 32.28125 48.484375 27.875 48.484375  Q 21.1875 48.484375 17.84375 46.4375  Q 14.5 44.390625 14.5 40.28125  Q 14.5 37.15625 16.890625 35.375  Q 19.28125 33.59375 26.515625 31.984375  L 29.59375 31.296875  Q 39.15625 29.25 43.1875 25.515625  Q 47.21875 21.78125 47.21875 15.09375  Q 47.21875 7.46875 41.1875 3.015625  Q 35.15625 -1.421875 24.609375 -1.421875  Q 20.21875 -1.421875 15.453125 -0.5625  Q 10.6875 0.296875 5.421875 2  L 5.421875 11.28125  Q 10.40625 8.6875 15.234375 7.390625  Q 20.0625 6.109375 24.8125 6.109375  Q 31.15625 6.109375 34.5625 8.28125  Q 37.984375 10.453125 37.984375 14.40625  Q 37.984375 18.0625 35.515625 20.015625  Q 33.0625 21.96875 24.703125 23.78125  L 21.578125 24.515625  Q 13.234375 26.265625 9.515625 29.90625  Q 5.8125 33.546875 5.8125 39.890625  Q 5.8125 47.609375 11.28125 51.796875  Q 16.75 56 26.8125 56  Q 31.78125 56 36.171875 55.265625  Q 40.578125 54.546875 44.28125 53.078125  "
               id="BitstreamVeraSans-Roman-73" />
          </defs>
          <g
             transform="translate(222.1940625 343.363875)scale(0.12 -0.12)"
             id="g19275">
            <use
               xlink:href="#BitstreamVeraSans-Roman-45"
               id="use19277" />
            <use
               x="63.18359375"
               xlink:href="#BitstreamVeraSans-Roman-61"
               id="use19279" />
            <use
               x="124.462890625"
               xlink:href="#BitstreamVeraSans-Roman-73"
               id="use19281" />
            <use
               x="176.5625"
               xlink:href="#BitstreamVeraSans-Roman-74"
               id="use19283" />
            <use
               x="215.771484375"
               xlink:href="#BitstreamVeraSans-Roman-20"
               id="use19285" />
            <use
               x="247.55859375"
               xlink:href="#BitstreamVeraSans-Roman-28"
               id="use19287" />
            <use
               x="286.572265625"
               xlink:href="#BitstreamVeraSans-Roman-6d"
               id="use19289" />
            <use
               x="383.984375"
               xlink:href="#BitstreamVeraSans-Roman-29"
               id="use19291" />
            <use
               x="422.998046875"
               xlink:href="#BitstreamVeraSans-Roman-20"
               id="use19293" />
          </g>
        </g>
      </g>
      <g
         id="matplotlib.axis_2">
        <g
           id="ytick_1">
          <g
             id="line2d_10">
            <defs
               id="defs19298">
              <path
                 d="M 0 0  L 4 0  "
                 id="mb228246d54"
                 style="stroke:#000000;stroke-width:0.5;" />
            </defs>
            <g
               id="g19301">
              <use
                 style="stroke:#000000;stroke-width:0.5;"
                 x="67.68"
                 xlink:href="#mb228246d54"
                 y="311.8086900397353"
                 id="use19303" />
            </g>
          </g>
          <g
             id="line2d_11">
            <defs
               id="defs19306">
              <path
                 d="M 0 0  L -4 0  "
                 id="m098e8fda1d"
                 style="stroke:#000000;stroke-width:0.5;" />
            </defs>
            <g
               id="g19309">
              <use
                 style="stroke:#000000;stroke-width:0.5;"
                 x="431.28"
                 xlink:href="#m098e8fda1d"
                 y="311.8086900397353"
                 id="use19311" />
            </g>
          </g>
          <g
             id="text_7">
            <!-- −300 -->
            <g
               transform="translate(30.719375000000007 315.1199400397353)scale(0.12 -0.12)"
               id="g19314">
              <use
                 xlink:href="#BitstreamVeraSans-Roman-2212"
                 id="use19316" />
              <use
                 x="83.7890625"
                 xlink:href="#BitstreamVeraSans-Roman-33"
                 id="use19318" />
              <use
                 x="147.412109375"
                 xlink:href="#BitstreamVeraSans-Roman-30"
                 id="use19320" />
              <use
                 x="211.03515625"
                 xlink:href="#BitstreamVeraSans-Roman-30"
                 id="use19322" />
            </g>
          </g>
        </g>
        <g
           id="ytick_2">
          <g
             id="line2d_12">
            <g
               id="g19326">
              <use
                 style="stroke:#000000;stroke-width:0.5;"
                 x="67.68"
                 xlink:href="#mb228246d54"
                 y="274.40371984731564"
                 id="use19328" />
            </g>
          </g>
          <g
             id="line2d_13">
            <g
               id="g19331">
              <use
                 style="stroke:#000000;stroke-width:0.5;"
                 x="431.28"
                 xlink:href="#m098e8fda1d"
                 y="274.40371984731564"
                 id="use19333" />
            </g>
          </g>
          <g
             id="text_8">
            <!-- −250 -->
            <defs
               id="defs19336">
              <path
                 d="M 10.796875 72.90625  L 49.515625 72.90625  L 49.515625 64.59375  L 19.828125 64.59375  L 19.828125 46.734375  Q 21.96875 47.46875 24.109375 47.828125  Q 26.265625 48.1875 28.421875 48.1875  Q 40.625 48.1875 47.75 41.5  Q 54.890625 34.8125 54.890625 23.390625  Q 54.890625 11.625 47.5625 5.09375  Q 40.234375 -1.421875 26.90625 -1.421875  Q 22.3125 -1.421875 17.546875 -0.640625  Q 12.796875 0.140625 7.71875 1.703125  L 7.71875 11.625  Q 12.109375 9.234375 16.796875 8.0625  Q 21.484375 6.890625 26.703125 6.890625  Q 35.15625 6.890625 40.078125 11.328125  Q 45.015625 15.765625 45.015625 23.390625  Q 45.015625 31 40.078125 35.4375  Q 35.15625 39.890625 26.703125 39.890625  Q 22.75 39.890625 18.8125 39.015625  Q 14.890625 38.140625 10.796875 36.28125  z "
                 id="BitstreamVeraSans-Roman-35" />
            </defs>
            <g
               transform="translate(30.719375000000007 277.7149698473156)scale(0.12 -0.12)"
               id="g19339">
              <use
                 xlink:href="#BitstreamVeraSans-Roman-2212"
                 id="use19341" />
              <use
                 x="83.7890625"
                 xlink:href="#BitstreamVeraSans-Roman-32"
                 id="use19343" />
              <use
                 x="147.412109375"
                 xlink:href="#BitstreamVeraSans-Roman-35"
                 id="use19345" />
              <use
                 x="211.03515625"
                 xlink:href="#BitstreamVeraSans-Roman-30"
                 id="use19347" />
            </g>
          </g>
        </g>
        <g
           id="ytick_3">
          <g
             id="line2d_14">
            <g
               id="g19351">
              <use
                 style="stroke:#000000;stroke-width:0.5;"
                 x="67.68"
                 xlink:href="#mb228246d54"
                 y="236.99874965489602"
                 id="use19353" />
            </g>
          </g>
          <g
             id="line2d_15">
            <g
               id="g19356">
              <use
                 style="stroke:#000000;stroke-width:0.5;"
                 x="431.28"
                 xlink:href="#m098e8fda1d"
                 y="236.99874965489602"
                 id="use19358" />
            </g>
          </g>
          <g
             id="text_9">
            <!-- −200 -->
            <g
               transform="translate(30.719375000000007 240.30999965489602)scale(0.12 -0.12)"
               id="g19361">
              <use
                 xlink:href="#BitstreamVeraSans-Roman-2212"
                 id="use19363" />
              <use
                 x="83.7890625"
                 xlink:href="#BitstreamVeraSans-Roman-32"
                 id="use19365" />
              <use
                 x="147.412109375"
                 xlink:href="#BitstreamVeraSans-Roman-30"
                 id="use19367" />
              <use
                 x="211.03515625"
                 xlink:href="#BitstreamVeraSans-Roman-30"
                 id="use19369" />
            </g>
          </g>
        </g>
        <g
           id="ytick_4">
          <g
             id="line2d_16">
            <g
               id="g19373">
              <use
                 style="stroke:#000000;stroke-width:0.5;"
                 x="67.68"
                 xlink:href="#mb228246d54"
                 y="199.5937794624764"
                 id="use19375" />
            </g>
          </g>
          <g
             id="line2d_17">
            <g
               id="g19378">
              <use
                 style="stroke:#000000;stroke-width:0.5;"
                 x="431.28"
                 xlink:href="#m098e8fda1d"
                 y="199.5937794624764"
                 id="use19380" />
            </g>
          </g>
          <g
             id="text_10">
            <!-- −150 -->
            <g
               transform="translate(30.719375000000007 202.9050294624764)scale(0.12 -0.12)"
               id="g19383">
              <use
                 xlink:href="#BitstreamVeraSans-Roman-2212"
                 id="use19385" />
              <use
                 x="83.7890625"
                 xlink:href="#BitstreamVeraSans-Roman-31"
                 id="use19387" />
              <use
                 x="147.412109375"
                 xlink:href="#BitstreamVeraSans-Roman-35"
                 id="use19389" />
              <use
                 x="211.03515625"
                 xlink:href="#BitstreamVeraSans-Roman-30"
                 id="use19391" />
            </g>
          </g>
        </g>
        <g
           id="ytick_5">
          <g
             id="line2d_18">
            <g
               id="g19395">
              <use
                 style="stroke:#000000;stroke-width:0.5;"
                 x="67.68"
                 xlink:href="#mb228246d54"
                 y="162.18880927005674"
                 id="use19397" />
            </g>
          </g>
          <g
             id="line2d_19">
            <g
               id="g19400">
              <use
                 style="stroke:#000000;stroke-width:0.5;"
                 x="431.28"
                 xlink:href="#m098e8fda1d"
                 y="162.18880927005674"
                 id="use19402" />
            </g>
          </g>
          <g
             id="text_11">
            <!-- −100 -->
            <g
               transform="translate(30.719375000000007 165.50005927005674)scale(0.12 -0.12)"
               id="g19405">
              <use
                 xlink:href="#BitstreamVeraSans-Roman-2212"
                 id="use19407" />
              <use
                 x="83.7890625"
                 xlink:href="#BitstreamVeraSans-Roman-31"
                 id="use19409" />
              <use
                 x="147.412109375"
                 xlink:href="#BitstreamVeraSans-Roman-30"
                 id="use19411" />
              <use
                 x="211.03515625"
                 xlink:href="#BitstreamVeraSans-Roman-30"
                 id="use19413" />
            </g>
          </g>
        </g>
        <g
           id="ytick_6">
          <g
             id="line2d_20">
            <g
               id="g19417">
              <use
                 style="stroke:#000000;stroke-width:0.5;"
                 x="67.68"
                 xlink:href="#mb228246d54"
                 y="124.7838390776371"
                 id="use19419" />
            </g>
          </g>
          <g
             id="line2d_21">
            <g
               id="g19422">
              <use
                 style="stroke:#000000;stroke-width:0.5;"
                 x="431.28"
                 xlink:href="#m098e8fda1d"
                 y="124.7838390776371"
                 id="use19424" />
            </g>
          </g>
          <g
             id="text_12">
            <!-- −50 -->
            <g
               transform="translate(38.354375000000005 128.09508907763708)scale(0.12 -0.12)"
               id="g19427">
              <use
                 xlink:href="#BitstreamVeraSans-Roman-2212"
                 id="use19429" />
              <use
                 x="83.7890625"
                 xlink:href="#BitstreamVeraSans-Roman-35"
                 id="use19431" />
              <use
                 x="147.412109375"
                 xlink:href="#BitstreamVeraSans-Roman-30"
                 id="use19433" />
            </g>
          </g>
        </g>
        <g
           id="ytick_7">
          <g
             id="line2d_22">
            <g
               id="g19437">
              <use
                 style="stroke:#000000;stroke-width:0.5;"
                 x="67.68"
                 xlink:href="#mb228246d54"
                 y="87.37886888521746"
                 id="use19439" />
            </g>
          </g>
          <g
             id="line2d_23">
            <g
               id="g19442">
              <use
                 style="stroke:#000000;stroke-width:0.5;"
                 x="431.28"
                 xlink:href="#m098e8fda1d"
                 y="87.37886888521746"
                 id="use19444" />
            </g>
          </g>
          <g
             id="text_13">
            <!-- 0 -->
            <g
               transform="translate(56.04500000000001 90.69011888521743)scale(0.12 -0.12)"
               id="g19447">
              <use
                 xlink:href="#BitstreamVeraSans-Roman-30"
                 id="use19449" />
            </g>
          </g>
        </g>
        <g
           id="ytick_8">
          <g
             id="line2d_24">
            <g
               id="g19453">
              <use
                 style="stroke:#000000;stroke-width:0.5;"
                 x="67.68"
                 xlink:href="#mb228246d54"
                 y="49.97389869279782"
                 id="use19455" />
            </g>
          </g>
          <g
             id="line2d_25">
            <g
               id="g19458">
              <use
                 style="stroke:#000000;stroke-width:0.5;"
                 x="431.28"
                 xlink:href="#m098e8fda1d"
                 y="49.97389869279782"
                 id="use19460" />
            </g>
          </g>
          <g
             id="text_14">
            <!-- 50 -->
            <g
               transform="translate(48.41000000000001 53.285148692797804)scale(0.12 -0.12)"
               id="g19463">
              <use
                 xlink:href="#BitstreamVeraSans-Roman-35"
                 id="use19465" />
              <use
                 x="63.623046875"
                 xlink:href="#BitstreamVeraSans-Roman-30"
                 id="use19467" />
            </g>
          </g>
        </g>
        <g
           id="text_15">
          <!-- North (m)  -->
          <defs
             id="defs19470">
            <path
               d="M 9.8125 72.90625  L 23.09375 72.90625  L 55.421875 11.921875  L 55.421875 72.90625  L 64.984375 72.90625  L 64.984375 0  L 51.703125 0  L 19.390625 60.984375  L 19.390625 0  L 9.8125 0  z "
               id="BitstreamVeraSans-Roman-4e" />
            <path
               d="M 30.609375 48.390625  Q 23.390625 48.390625 19.1875 42.75  Q 14.984375 37.109375 14.984375 27.296875  Q 14.984375 17.484375 19.15625 11.84375  Q 23.34375 6.203125 30.609375 6.203125  Q 37.796875 6.203125 41.984375 11.859375  Q 46.1875 17.53125 46.1875 27.296875  Q 46.1875 37.015625 41.984375 42.703125  Q 37.796875 48.390625 30.609375 48.390625  M 30.609375 56  Q 42.328125 56 49.015625 48.375  Q 55.71875 40.765625 55.71875 27.296875  Q 55.71875 13.875 49.015625 6.21875  Q 42.328125 -1.421875 30.609375 -1.421875  Q 18.84375 -1.421875 12.171875 6.21875  Q 5.515625 13.875 5.515625 27.296875  Q 5.515625 40.765625 12.171875 48.375  Q 18.84375 56 30.609375 56  "
               id="BitstreamVeraSans-Roman-6f" />
            <path
               d="M 41.109375 46.296875  Q 39.59375 47.171875 37.8125 47.578125  Q 36.03125 48 33.890625 48  Q 26.265625 48 22.1875 43.046875  Q 18.109375 38.09375 18.109375 28.8125  L 18.109375 0  L 9.078125 0  L 9.078125 54.6875  L 18.109375 54.6875  L 18.109375 46.1875  Q 20.953125 51.171875 25.484375 53.578125  Q 30.03125 56 36.53125 56  Q 37.453125 56 38.578125 55.875  Q 39.703125 55.765625 41.0625 55.515625  z "
               id="BitstreamVeraSans-Roman-72" />
            <path
               d="M 54.890625 33.015625  L 54.890625 0  L 45.90625 0  L 45.90625 32.71875  Q 45.90625 40.484375 42.875 44.328125  Q 39.84375 48.1875 33.796875 48.1875  Q 26.515625 48.1875 22.3125 43.546875  Q 18.109375 38.921875 18.109375 30.90625  L 18.109375 0  L 9.078125 0  L 9.078125 75.984375  L 18.109375 75.984375  L 18.109375 46.1875  Q 21.34375 51.125 25.703125 53.5625  Q 30.078125 56 35.796875 56  Q 45.21875 56 50.046875 50.171875  Q 54.890625 44.34375 54.890625 33.015625  "
               id="BitstreamVeraSans-Roman-68" />
          </defs>
          <g
             transform="translate(23.223750000000003 197.34621000000004)rotate(-90.0)scale(0.12 -0.12)"
             id="g19476">
            <use
               xlink:href="#BitstreamVeraSans-Roman-4e"
               id="use19478" />
            <use
               x="74.8046875"
               xlink:href="#BitstreamVeraSans-Roman-6f"
               id="use19480" />
            <use
               x="135.986328125"
               xlink:href="#BitstreamVeraSans-Roman-72"
               id="use19482" />
            <use
               x="177.099609375"
               xlink:href="#BitstreamVeraSans-Roman-74"
               id="use19484" />
            <use
               x="216.30859375"
               xlink:href="#BitstreamVeraSans-Roman-68"
               id="use19486" />
            <use
               x="279.6875"
               xlink:href="#BitstreamVeraSans-Roman-20"
               id="use19488" />
            <use
               x="311.474609375"
               xlink:href="#BitstreamVeraSans-Roman-28"
               id="use19490" />
            <use
               x="350.48828125"
               xlink:href="#BitstreamVeraSans-Roman-6d"
               id="use19492" />
            <use
               x="447.900390625"
               xlink:href="#BitstreamVeraSans-Roman-29"
               id="use19494" />
            <use
               x="486.9140625"
               xlink:href="#BitstreamVeraSans-Roman-20"
               id="use19496" />
          </g>
        </g>
      </g>
      <g
         id="text_16">
        <!-- XY-Position -->
        <defs
           id="defs19499">
          <path
             d="M 54.890625 33.015625  L 54.890625 0  L 45.90625 0  L 45.90625 32.71875  Q 45.90625 40.484375 42.875 44.328125  Q 39.84375 48.1875 33.796875 48.1875  Q 26.515625 48.1875 22.3125 43.546875  Q 18.109375 38.921875 18.109375 30.90625  L 18.109375 0  L 9.078125 0  L 9.078125 54.6875  L 18.109375 54.6875  L 18.109375 46.1875  Q 21.34375 51.125 25.703125 53.5625  Q 30.078125 56 35.796875 56  Q 45.21875 56 50.046875 50.171875  Q 54.890625 44.34375 54.890625 33.015625  "
             id="BitstreamVeraSans-Roman-6e" />
          <path
             d="M 19.671875 64.796875  L 19.671875 37.40625  L 32.078125 37.40625  Q 38.96875 37.40625 42.71875 40.96875  Q 46.484375 44.53125 46.484375 51.125  Q 46.484375 57.671875 42.71875 61.234375  Q 38.96875 64.796875 32.078125 64.796875  z M 9.8125 72.90625  L 32.078125 72.90625  Q 44.34375 72.90625 50.609375 67.359375  Q 56.890625 61.8125 56.890625 51.125  Q 56.890625 40.328125 50.609375 34.8125  Q 44.34375 29.296875 32.078125 29.296875  L 19.671875 29.296875  L 19.671875 0  L 9.8125 0  z "
             id="BitstreamVeraSans-Roman-50" />
          <path
             d="M 9.421875 54.6875  L 18.40625 54.6875  L 18.40625 0  L 9.421875 0  z M 9.421875 75.984375  L 18.40625 75.984375  L 18.40625 64.59375  L 9.421875 64.59375  z "
             id="BitstreamVeraSans-Roman-69" />
          <path
             d="M 4.890625 31.390625  L 31.203125 31.390625  L 31.203125 23.390625  L 4.890625 23.390625  z "
             id="BitstreamVeraSans-Roman-2d" />
          <path
             d="M 6.296875 72.90625  L 16.890625 72.90625  L 35.015625 45.796875  L 53.21875 72.90625  L 63.8125 72.90625  L 40.375 37.890625  L 65.375 0  L 54.78125 0  L 34.28125 31  L 13.625 0  L 2.984375 0  L 29 38.921875  z "
             id="BitstreamVeraSans-Roman-58" />
          <path
             d="M -0.203125 72.90625  L 10.40625 72.90625  L 30.609375 42.921875  L 50.6875 72.90625  L 61.28125 72.90625  L 35.5 34.71875  L 35.5 0  L 25.59375 0  L 25.59375 34.71875  z "
             id="BitstreamVeraSans-Roman-59" />
        </defs>
        <g
           transform="translate(209.27925 13.817920000000015)scale(0.144 -0.144)"
           id="g19507">
          <use
             xlink:href="#BitstreamVeraSans-Roman-58"
             id="use19509" />
          <use
             x="68.505859375"
             xlink:href="#BitstreamVeraSans-Roman-59"
             id="use19511" />
          <use
             x="129.41796875"
             xlink:href="#BitstreamVeraSans-Roman-2d"
             id="use19513" />
          <use
             x="165.501953125"
             xlink:href="#BitstreamVeraSans-Roman-50"
             id="use19515" />
          <use
             x="225.7578125"
             xlink:href="#BitstreamVeraSans-Roman-6f"
             id="use19517" />
          <use
             x="286.939453125"
             xlink:href="#BitstreamVeraSans-Roman-73"
             id="use19519" />
          <use
             x="339.0390625"
             xlink:href="#BitstreamVeraSans-Roman-69"
             id="use19521" />
          <use
             x="366.822265625"
             xlink:href="#BitstreamVeraSans-Roman-74"
             id="use19523" />
          <use
             x="406.03125"
             xlink:href="#BitstreamVeraSans-Roman-69"
             id="use19525" />
          <use
             x="433.814453125"
             xlink:href="#BitstreamVeraSans-Roman-6f"
             id="use19527" />
          <use
             x="494.99609375"
             xlink:href="#BitstreamVeraSans-Roman-6e"
             id="use19529" />
        </g>
      </g>
      <g
         id="legend_1">
        <g
           id="patch_7">
          <path
             d="M 315.369 72.61092  L 424.08 72.61092  L 424.08 26.01792  L 315.369 26.01792  z "
             style="fill:#ffffff;stroke:#000000;stroke-linejoin:miter;"
             id="path19533" />
        </g>
        <g
           id="line2d_26">
          <path
             d="M 325.449 37.67967  L 345.609 37.67967  "
             style="fill:none;stroke:#b40000;stroke-linecap:square;"
             id="path19536" />
        </g>
        <g
           id="line2d_27" />
        <g
           id="text_17">
          <!-- Handoff -->
          <defs
             id="defs19540">
            <path
               d="M 45.40625 46.390625  L 45.40625 75.984375  L 54.390625 75.984375  L 54.390625 0  L 45.40625 0  L 45.40625 8.203125  Q 42.578125 3.328125 38.25 0.953125  Q 33.9375 -1.421875 27.875 -1.421875  Q 17.96875 -1.421875 11.734375 6.484375  Q 5.515625 14.40625 5.515625 27.296875  Q 5.515625 40.1875 11.734375 48.09375  Q 17.96875 56 27.875 56  Q 33.9375 56 38.25 53.625  Q 42.578125 51.265625 45.40625 46.390625  M 14.796875 27.296875  Q 14.796875 17.390625 18.875 11.75  Q 22.953125 6.109375 30.078125 6.109375  Q 37.203125 6.109375 41.296875 11.75  Q 45.40625 17.390625 45.40625 27.296875  Q 45.40625 37.203125 41.296875 42.84375  Q 37.203125 48.484375 30.078125 48.484375  Q 22.953125 48.484375 18.875 42.84375  Q 14.796875 37.203125 14.796875 27.296875  "
               id="BitstreamVeraSans-Roman-64" />
            <path
               d="M 37.109375 75.984375  L 37.109375 68.5  L 28.515625 68.5  Q 23.6875 68.5 21.796875 66.546875  Q 19.921875 64.59375 19.921875 59.515625  L 19.921875 54.6875  L 34.71875 54.6875  L 34.71875 47.703125  L 19.921875 47.703125  L 19.921875 0  L 10.890625 0  L 10.890625 47.703125  L 2.296875 47.703125  L 2.296875 54.6875  L 10.890625 54.6875  L 10.890625 58.5  Q 10.890625 67.625 15.140625 71.796875  Q 19.390625 75.984375 28.609375 75.984375  z "
               id="BitstreamVeraSans-Roman-66" />
            <path
               d="M 9.8125 72.90625  L 19.671875 72.90625  L 19.671875 43.015625  L 55.515625 43.015625  L 55.515625 72.90625  L 65.375 72.90625  L 65.375 0  L 55.515625 0  L 55.515625 34.71875  L 19.671875 34.71875  L 19.671875 0  L 9.8125 0  z "
               id="BitstreamVeraSans-Roman-48" />
          </defs>
          <g
             transform="translate(361.449 42.71967000000001)scale(0.144 -0.144)"
             id="g19545">
            <use
               xlink:href="#BitstreamVeraSans-Roman-48"
               id="use19547" />
            <use
               x="75.1953125"
               xlink:href="#BitstreamVeraSans-Roman-61"
               id="use19549" />
            <use
               x="136.474609375"
               xlink:href="#BitstreamVeraSans-Roman-6e"
               id="use19551" />
            <use
               x="199.853515625"
               xlink:href="#BitstreamVeraSans-Roman-64"
               id="use19553" />
            <use
               x="263.330078125"
               xlink:href="#BitstreamVeraSans-Roman-6f"
               id="use19555" />
            <use
               x="324.51171875"
               xlink:href="#BitstreamVeraSans-Roman-66"
               id="use19557" />
            <use
               x="359.716796875"
               xlink:href="#BitstreamVeraSans-Roman-66"
               id="use19559" />
          </g>
        </g>
        <g
           id="line2d_28">
          <path
             d="M 325.449 58.81617  L 345.609 58.81617  "
             style="fill:none;stroke:#0048b4;stroke-linecap:square;"
             id="path19562" />
        </g>
        <g
           id="line2d_29" />
        <g
           id="text_18">
          <!-- Target -->
          <defs
             id="defs19566">
            <path
               d="M 56.203125 29.59375  L 56.203125 25.203125  L 14.890625 25.203125  Q 15.484375 15.921875 20.484375 11.0625  Q 25.484375 6.203125 34.421875 6.203125  Q 39.59375 6.203125 44.453125 7.46875  Q 49.3125 8.734375 54.109375 11.28125  L 54.109375 2.78125  Q 49.265625 0.734375 44.1875 -0.34375  Q 39.109375 -1.421875 33.890625 -1.421875  Q 20.796875 -1.421875 13.15625 6.1875  Q 5.515625 13.8125 5.515625 26.8125  Q 5.515625 40.234375 12.765625 48.109375  Q 20.015625 56 32.328125 56  Q 43.359375 56 49.78125 48.890625  Q 56.203125 41.796875 56.203125 29.59375  M 47.21875 32.234375  Q 47.125 39.59375 43.09375 43.984375  Q 39.0625 48.390625 32.421875 48.390625  Q 24.90625 48.390625 20.390625 44.140625  Q 15.875 39.890625 15.1875 32.171875  z "
               id="BitstreamVeraSans-Roman-65" />
            <path
               d="M 45.40625 27.984375  Q 45.40625 37.75 41.375 43.109375  Q 37.359375 48.484375 30.078125 48.484375  Q 22.859375 48.484375 18.828125 43.109375  Q 14.796875 37.75 14.796875 27.984375  Q 14.796875 18.265625 18.828125 12.890625  Q 22.859375 7.515625 30.078125 7.515625  Q 37.359375 7.515625 41.375 12.890625  Q 45.40625 18.265625 45.40625 27.984375  M 54.390625 6.78125  Q 54.390625 -7.171875 48.1875 -13.984375  Q 42 -20.796875 29.203125 -20.796875  Q 24.46875 -20.796875 20.265625 -20.09375  Q 16.0625 -19.390625 12.109375 -17.921875  L 12.109375 -9.1875  Q 16.0625 -11.328125 19.921875 -12.34375  Q 23.78125 -13.375 27.78125 -13.375  Q 36.625 -13.375 41.015625 -8.765625  Q 45.40625 -4.15625 45.40625 5.171875  L 45.40625 9.625  Q 42.625 4.78125 38.28125 2.390625  Q 33.9375 0 27.875 0  Q 17.828125 0 11.671875 7.65625  Q 5.515625 15.328125 5.515625 27.984375  Q 5.515625 40.671875 11.671875 48.328125  Q 17.828125 56 27.875 56  Q 33.9375 56 38.28125 53.609375  Q 42.625 51.21875 45.40625 46.390625  L 45.40625 54.6875  L 54.390625 54.6875  z "
               id="BitstreamVeraSans-Roman-67" />
            <path
               d="M -0.296875 72.90625  L 61.375 72.90625  L 61.375 64.59375  L 35.5 64.59375  L 35.5 0  L 25.59375 0  L 25.59375 64.59375  L -0.296875 64.59375  z "
               id="BitstreamVeraSans-Roman-54" />
          </defs>
          <g
             transform="translate(361.449 63.85617000000002)scale(0.144 -0.144)"
             id="g19571">
            <use
               xlink:href="#BitstreamVeraSans-Roman-54"
               id="use19573" />
            <use
               x="60.833984375"
               xlink:href="#BitstreamVeraSans-Roman-61"
               id="use19575" />
            <use
               x="122.11328125"
               xlink:href="#BitstreamVeraSans-Roman-72"
               id="use19577" />
            <use
               x="163.2109375"
               xlink:href="#BitstreamVeraSans-Roman-67"
               id="use19579" />
            <use
               x="226.6875"
               xlink:href="#BitstreamVeraSans-Roman-65"
               id="use19581" />
            <use
               x="288.2109375"
               xlink:href="#BitstreamVeraSans-Roman-74"
               id="use19583" />
          </g>
        </g>
      </g>
    </g>
  </g>
  <defs
     id="defs19585">
    <clipPath
       id="pb0da7ff15f">
      <rect
         height="294.81408"
         width="363.59999999999997"
         x="67.68"
         y="18.817920000000015"
         id="rect19588" />
    </clipPath>
  </defs>
</svg>
