<?xml version="1.0" encoding="UTF-8" standalone="no"?>
<!-- Created with matplotlib (http://matplotlib.org/) -->

<svg
   xmlns:dc="http://purl.org/dc/elements/1.1/"
   xmlns:cc="http://creativecommons.org/ns#"
   xmlns:rdf="http://www.w3.org/1999/02/22-rdf-syntax-ns#"
   xmlns:svg="http://www.w3.org/2000/svg"
   xmlns="http://www.w3.org/2000/svg"
   xmlns:xlink="http://www.w3.org/1999/xlink"
   xmlns:sodipodi="http://sodipodi.sourceforge.net/DTD/sodipodi-0.dtd"
   xmlns:inkscape="http://www.inkscape.org/namespaces/inkscape"
   height="288pt"
   version="1.1"
   viewBox="0 0 360 288"
   width="360pt"
   id="svg23029"
   inkscape:version="0.91 r13725"
   sodipodi:docname="stable_error.svg"
   inkscape:export-filename="/home/skyler/research/handoff_research/figures/orbit_tuning/stable_error.png"
   inkscape:export-xdpi="200"
   inkscape:export-ydpi="200">
  <metadata
     id="metadata23380">
    <rdf:RDF>
      <cc:Work
         rdf:about="">
        <dc:format>image/svg+xml</dc:format>
        <dc:type
           rdf:resource="http://purl.org/dc/dcmitype/StillImage" />
      </cc:Work>
    </rdf:RDF>
  </metadata>
  <sodipodi:namedview
     pagecolor="#ffffff"
     bordercolor="#666666"
     borderopacity="1"
     objecttolerance="10"
     gridtolerance="10"
     guidetolerance="10"
     inkscape:pageopacity="0"
     inkscape:pageshadow="2"
     inkscape:window-width="741"
     inkscape:window-height="480"
     id="namedview23378"
     showgrid="false"
     inkscape:zoom="0.65555556"
     inkscape:cx="28.983051"
     inkscape:cy="180"
     inkscape:window-x="53"
     inkscape:window-y="24"
     inkscape:window-maximized="0"
     inkscape:current-layer="svg23029" />
  <defs
     id="defs23031">
    <style
       type="text/css"
       id="style23033">
*{stroke-linecap:butt;stroke-linejoin:round;stroke-miterlimit:100000;}
  </style>
  </defs>
  <g
     id="figure_1">
    <g
       id="patch_1" />
    <g
       id="axes_1">
      <g
         id="patch_2">
        <path
           d="M 48.6 250.56  L 347.04 250.56  L 347.04 22.464  L 48.6 22.464  z "
           style="fill:#ffffff;"
           id="path23041" />
      </g>
      <g
         id="line2d_1">
        <path
           clip-path="url(#pc548c4cceb)"
           d="M 65.122043 36.425216  L 65.199167 36.421374  L 65.199167 36.421374  L 65.199167 36.421374  L 65.62886 36.609347  L 65.926339 36.933099  L 66.430953 37.818146  L 67.279321 40.236422  L 67.634093 41.685057  L 67.887502 42.776448  L 68.184981 44.166847  L 68.601453 46.270655  L 68.680781 46.92709  L 68.898932 48.062623  L 69.020128 48.914761  L 69.848664 54.196813  L 70.674996 59.42327  L 70.785174 59.892947  L 73.782006 80.301695  L 73.923033 81.415791  L 74.033211 82.477255  L 74.310858 84.110035  L 74.407815 84.84954  L 74.870561 88.057833  L 74.971924 88.77172  L 75.225333 90.37404  L 76.690696 97.10651  L 76.853758 97.581546  L 76.933086 97.927892  L 77.052078 98.060713  L 77.142424 98.341359  L 77.693312 99.294076  L 78.319121 99.634832  L 79.224781 99.594004  L 79.511243 99.558396  L 79.94975 99.671533  L 80.654887 100.387264  L 81.029491 101.210037  L 81.384263 102.107731  L 81.384263 102.107731  L 81.802938 103.43853  L 81.979223 104.03071  L 82.243649 104.932398  L 82.31857 105.322136  L 82.362641 105.347816  L 82.805555 107.44389  L 83.069981 108.710815  L 83.222026 109.627575  L 83.874278 113.81651  L 83.984456 114.155227  L 84.753496 120.262442  L 84.753496 120.262442  L 84.863673 121.240816  L 84.931983 121.240816  L 85.194206 123.468213  L 85.194206 123.468213  L 85.471854 125.78996  L 85.537961 125.78996  L 85.626103 126.545361  L 85.846458 128.405904  L 86.075627 130.819585  L 86.196823 131.080719  L 86.408364 133.241794  L 86.529559 133.888508  L 90.54884 170.026273  L 91.322287 175.100083  L 91.586713 176.702864  L 91.948096 179.238665  L 92.633401 183.908126  L 92.752393 184.674  L 93.019023 186.267862  L 93.140218 187.31245  L 93.270228 188.020734  L 97.655298 216.24079  L 97.745644 216.415651  L 98.096009 218.615259  L 98.23924 219.13064  L 98.338399 219.711853  L 98.516887 220.778153  L 98.715207 221.697601  L 98.900305 222.661835  L 100.841636 231.764385  L 100.971645 232.260476  L 101.45863 233.787247  L 101.58864 234.096032  L 101.75611 234.564851  L 102.064607 235.286193  L 102.130714 235.46829  L 102.370901 235.80998  L 102.901958 236.366486  L 103.287579 236.575186  L 103.750325 236.54556  L 104.191036 236.27286  L 104.210868 236.198119  L 104.356303 236.059907  L 104.464277 235.964295  L 104.675818 235.668761  L 105.072457 235.035703  L 105.599106 233.765138  L 106.493749 231.075029  L 106.780211 230.037692  L 106.978531 229.375162  L 108.465929 224.449429  L 108.664248 223.986885  L 108.849347 223.514565  L 110.722367 219.822507  L 110.933908 219.519973  L 111.724984 218.657627  L 112.914902 217.855035  L 114.137874 217.461549  L 114.140078 217.504454  L 117.643727 216.943982  L 117.709833 216.903643  L 118.040366 216.668645  L 119.682013 215.761284  L 119.781173 215.768641  L 119.781173 215.760029  L 120.365115 215.557721  L 120.794807 215.329892  L 121.235518 215.150376  L 122.921236 214.320932  L 123.174645 214.047536  L 123.392796 213.876797  L 124.155226 213.135307  L 124.651025 212.837645  L 124.717132 212.777409  L 125.73958 212.628924  L 126.180291 212.72949  L 126.180291 212.726541  L 126.524045 212.856296  L 126.568116 212.891234  L 126.579134 212.88181  L 127.107987 213.176013  L 127.196129 213.281036  L 127.658875 213.628731  L 128.681323 214.60892  L 130.721813 217.756519  L 131.479836 219.182298  L 132.815189 221.738786  L 133.487272 222.80986  L 133.619485 223.026475  L 135.029759 224.900884  L 135.261132 225.125671  L 135.40216 225.306575  L 137.134152 227.445399  L 137.200259 227.534531  L 138.885977 228.467767  L 138.885977 228.467767  L 139.51399 228.42157  L 140.604748 227.713859  L 141.85857 226.351738  L 141.959933 226.217776  L 142.321316 225.71223  L 142.455733 225.472579  L 142.673884 225.202744  L 142.861186 224.895883  L 142.960346 224.701237  L 143.546491 223.663909  L 143.621412 223.572537  L 143.777864 223.143278  L 143.962963 222.933475  L 144.701153 221.771174  L 144.800313 221.486084  L 144.954562 221.305182  L 144.954562 221.329322  L 145.141864 220.877571  L 145.353405 220.669782  L 145.428326 220.506273  L 145.935143 219.7695  L 146.408907 219.094735  L 146.554341 218.913558  L 147.114044 218.166332  L 147.457798 217.618286  L 147.631878 217.341785  L 148.956214 215.417339  L 149.110463 215.285536  L 149.824414 214.501552  L 149.901538 214.420688  L 151.501317 212.815304  L 153.06584 211.887255  L 154.013368 211.981741  L 155.643997 212.642022  L 156.470329 213.218229  L 158.48658 215.000394  L 158.61659 215.120177  L 159.62141 215.943934  L 159.940925 216.198882  L 161.084569 217.086157  L 161.183729 217.209274  L 162.243638 218.138972  L 162.596206 218.485305  L 162.761473 218.603856  L 163.618655 219.082335  L 164.753485 219.183802  L 165.449807 219.288843  L 165.557782 219.311426  L 166.240883 219.494014  L 168.545799 219.822541  L 169.328061 219.638991  L 171.134974 218.744575  L 171.463303 218.646326  L 171.463303 218.646687  L 173.096136 218.128244  L 173.096136 218.1345  L 174.418268 218.372284  L 174.418268 218.432178  L 174.526242 218.396667  L 175.066112 218.931599  L 175.134423 219.009778  L 175.663275 219.785825  L 178.384663 225.683421  L 178.384663 225.706266  L 178.384663 225.706266  L 180.533127 229.966836  L 181.346238 231.077957  L 181.489469 231.215637  L 181.745081 231.479616  L 182.516325 232.027211  L 183.089249 232.175704  L 183.87151 232.097433  L 185.524175 231.56233  L 186.714093 230.710392  L 186.81105 230.608066  L 187.353124 230.053151  L 188.111146 229.076267  L 188.388793 228.660732  L 188.507785 228.525778  L 188.573892 228.444507  L 191.416475 225.781048  L 193.014051 224.816185  L 195.329985 224.862821  L 195.40711 224.905395  L 195.40711 224.905395  L 196.837215 225.531443  L 197.368272 225.68688  L 197.853053 225.955935  L 198.644129 226.709326  L 198.965848 227.012247  L 199.814215 227.785448  L 200.287979 228.164101  L 200.475281 228.330648  L 200.695637 228.470238  L 202.458479 229.438809  L 202.777994 229.465456  L 202.855118 229.526004  L 203.513981 229.566001  L 203.747557 229.521912  L 204.714917 228.945836  L 207.934308 225.6523  L 207.934308 225.6523  L 208.088557 225.478136  L 209.69715 223.459506  L 209.818346 223.362042  L 210.29211 222.659311  L 210.389066 222.515179  L 211.0303 221.523731  L 211.534913 220.594612  L 211.735437 220.234404  L 213.10164 217.189774  L 213.288942 216.747932  L 213.727449 215.6173  L 213.782537 215.556547  L 213.782537 215.556547  L 213.994078 214.919701  L 214.137309 214.646917  L 214.245284 214.46098  L 214.600056 213.651161  L 215.137722 212.558675  L 215.195015 212.383497  L 216.197631 210.183311  L 216.462058 209.713646  L 216.561218 209.519197  L 216.759537 209.221819  L 216.869715 208.968245  L 217.045999 208.724501  L 218.002341 207.296469  L 218.12574 207.181505  L 218.786806 206.54143  L 218.786806 206.54143  L 219.225313 206.36396  L 220.216912 206.443062  L 220.393196 206.479497  L 220.503374 206.574546  L 220.734747 206.643549  L 222.136207 207.7834  L 222.213331 207.892811  L 222.398429 208.122018  L 222.73998 208.600322  L 222.885415 208.93243  L 223.180691 209.401726  L 225.331358 213.916275  L 225.835972 214.759481  L 225.992424 215.039091  L 226.400081 215.644569  L 226.530091 215.792905  L 226.697561 216.051805  L 228.405315 218.274355  L 228.405315 218.274355  L 228.537528 218.33113  L 228.537528 218.358484  L 229.460817 219.216671  L 229.824403 219.512668  L 230.575814 219.911301  L 230.840241 219.982146  L 231.73268 220.470313  L 231.842857 220.535045  L 232.085248 220.664647  L 233.319238 220.99442  L 239.786666 221.642705  L 239.786666 221.638001  L 240.381625 221.504666  L 241.130833 221.174354  L 241.329153 221.086793  L 241.943944 220.812511  L 242.915711 220.289365  L 243.136066 220.211348  L 243.753061 219.853158  L 245.615063 219.183471  L 245.846436 219.066077  L 245.846436 219.067783  L 246.747689 218.720053  L 248.083042 218.371857  L 248.499514 218.258048  L 248.499514 218.266811  L 248.499514 218.266811  L 248.499514 218.266811  L 249.292793 218.218981  L 250.06624 218.380191  L 251.287008 218.407134  L 251.74094 218.574989  L 252.653211 218.756675  L 252.653211 218.773551  L 252.653211 218.773551  L 252.653211 218.773551  L 252.895602 218.804141  L 252.895602 218.804141  L 253.193082 218.933367  L 253.193082 218.9325  L 253.272409 218.974943  L 253.922458 219.203734  L 253.922458 219.203734  L 254.195698 219.260075  L 254.647426 219.457673  L 254.903039 219.607395  L 256.809112 219.967365  L 257.767657 219.861454  L 258.878248 219.291433  L 259.783908 219.051216  L 260.235637 219.064241  L 260.66533 219.145576  L 260.894499 219.164138  L 261.524715 219.150441  L 261.524715 219.127235  L 262.185781 219.01345  L 262.185781 219.013909  L 262.767519 218.817553  L 265.136338 217.770907  L 265.876732 217.794278  L 266.064034 217.859665  L 266.513559 218.028945  L 268.210295 218.78384  L 268.576085 218.849946  L 269.887199 218.934991  L 270.438087 218.837968  L 270.636407 218.764027  L 271.030843 218.657526  L 271.716147 218.397052  L 272.256018 218.124261  L 272.694525 217.956725  L 273.157271 217.868113  L 274.34719 218.145844  L 274.776882 218.393408  L 275.429134 218.875382  L 276.154103 219.410653  L 276.242245 219.506363  L 278.99889 221.279644  L 279.591646 221.555269  L 279.63792 221.573587  L 282.094882 221.96498  L 282.094882 221.96498  L 282.899179 221.670879  L 282.899179 221.672524  L 283.370739 221.40169  L 284.794234 220.699212  L 285.309865 220.443369  L 285.838718 220.193101  L 286.127384 220.050997  L 286.336721 219.964651  L 287.932093 219.380136  L 290.157682 218.993249  L 290.466179 218.982985  L 293.099425 218.971967  L 293.099425 218.98493  L 293.099425 218.98493  L 293.099425 218.98493  L 293.498268 218.93399  L 294.126281 218.954995  L 294.291547 218.899026  L 296.473065 218.462909  L 296.889536 218.342137  L 296.913775 218.361494  L 296.913775 218.361494  L 296.913775 218.361494  L 297.134131 218.260951  L 297.453646 218.17716  L 297.75994 218.084748  L 297.949445 218.033789  L 299.5338 217.745817  L 299.5338 217.752917  L 299.70127 217.794819  L 299.70127 217.794819  L 299.787208 217.722166  L 299.811447 217.733283  L 300.208087 217.653122  L 300.305043 217.626936  L 301.318678 217.637988  L 301.453094 217.653661  L 301.618361 217.661071  L 301.618361 217.669853  L 302.103142 217.631911  L 302.806076 217.75972  L 303.610373 218.229212  L 303.711736 218.32279  L 303.910056 218.509862  L 305.009629 219.450122  L 305.606792 219.748685  L 306.003431 219.898024  L 306.135644 219.988542  L 307.213182 220.84846  L 307.290306 220.93746  L 308.438357 221.630332  L 309.372663 221.935041  L 309.738453 222.096766  L 310.143907 222.170995  L 310.763105 222.111341  L 310.917354 222.057224  L 313.032765 221.810954  L 313.341262 221.860182  L 313.407369 221.836712  L 313.713663 221.859987  L 314.652376 221.665543  L 315.046812 221.515235  L 315.434638 221.401601  L 315.544815 221.372696  L 316.99916 220.672994  L 316.99916 220.672994  L 317.329693 220.516397  L 318.111954 220.351653  L 322.783487 221.444345  L 322.926718 221.519002  L 322.926718 221.516657  L 323.464384 221.820764  L 326.232047 223.777359  L 326.331207 223.890117  L 326.670554 224.290419  L 326.780732 224.427461  L 326.923963 224.510508  L 327.849455 225.3143  L 328.444414 225.618782  L 329.801803 225.988433  L 329.978087 226.054916  L 330.517957 226.214414  L 330.517957 226.214414  "
           style="fill:none;stroke:#b40000;stroke-linecap:square;"
           id="path23044" />
      </g>
      <g
         id="line2d_2">
        <path
           clip-path="url(#pc548c4cceb)"
           d="M 65.122043 222.678985  L 65.199167 222.678985  L 65.199167 222.678985  L 65.199167 222.678985  L 330.517957 222.678985  L 330.517957 222.678985  "
           style="fill:none;stroke:#9000b4;stroke-linecap:square;stroke-width:0.5;"
           id="path23047" />
      </g>
      <g
         id="patch_3">
        <path
           d="M 48.6 22.464  L 347.04 22.464  "
           style="fill:none;"
           id="path23050" />
      </g>
      <g
         id="patch_4">
        <path
           d="M 347.04 250.56  L 347.04 22.464  "
           style="fill:none;"
           id="path23053" />
      </g>
      <g
         id="patch_5">
        <path
           d="M 48.6 250.56  L 347.04 250.56  "
           style="fill:none;stroke:#000000;stroke-linecap:square;stroke-linejoin:miter;"
           id="path23056" />
      </g>
      <g
         id="patch_6">
        <path
           d="M 48.6 250.56  L 48.6 22.464  "
           style="fill:none;stroke:#000000;stroke-linecap:square;stroke-linejoin:miter;"
           id="path23059" />
      </g>
      <g
         id="matplotlib.axis_1">
        <g
           id="xtick_1">
          <g
             id="line2d_3">
            <defs
               id="defs23064">
              <path
                 d="M 0 0  L 0 -4  "
                 id="m0e08a6681f"
                 style="stroke:#000000;stroke-width:0.5;" />
            </defs>
            <g
               id="g23067">
              <use
                 style="stroke:#000000;stroke-width:0.5;"
                 x="90.13677547393446"
                 xlink:href="#m0e08a6681f"
                 y="250.56"
                 id="use23069" />
            </g>
          </g>
          <g
             id="text_1">
            <!-- 50 -->
            <defs
               id="defs23072">
              <path
                 d="M 31.78125 66.40625  Q 24.171875 66.40625 20.328125 58.90625  Q 16.5 51.421875 16.5 36.375  Q 16.5 21.390625 20.328125 13.890625  Q 24.171875 6.390625 31.78125 6.390625  Q 39.453125 6.390625 43.28125 13.890625  Q 47.125 21.390625 47.125 36.375  Q 47.125 51.421875 43.28125 58.90625  Q 39.453125 66.40625 31.78125 66.40625  M 31.78125 74.21875  Q 44.046875 74.21875 50.515625 64.515625  Q 56.984375 54.828125 56.984375 36.375  Q 56.984375 17.96875 50.515625 8.265625  Q 44.046875 -1.421875 31.78125 -1.421875  Q 19.53125 -1.421875 13.0625 8.265625  Q 6.59375 17.96875 6.59375 36.375  Q 6.59375 54.828125 13.0625 64.515625  Q 19.53125 74.21875 31.78125 74.21875  "
                 id="BitstreamVeraSans-Roman-30" />
              <path
                 d="M 10.796875 72.90625  L 49.515625 72.90625  L 49.515625 64.59375  L 19.828125 64.59375  L 19.828125 46.734375  Q 21.96875 47.46875 24.109375 47.828125  Q 26.265625 48.1875 28.421875 48.1875  Q 40.625 48.1875 47.75 41.5  Q 54.890625 34.8125 54.890625 23.390625  Q 54.890625 11.625 47.5625 5.09375  Q 40.234375 -1.421875 26.90625 -1.421875  Q 22.3125 -1.421875 17.546875 -0.640625  Q 12.796875 0.140625 7.71875 1.703125  L 7.71875 11.625  Q 12.109375 9.234375 16.796875 8.0625  Q 21.484375 6.890625 26.703125 6.890625  Q 35.15625 6.890625 40.078125 11.328125  Q 45.015625 15.765625 45.015625 23.390625  Q 45.015625 31 40.078125 35.4375  Q 35.15625 39.890625 26.703125 39.890625  Q 22.75 39.890625 18.8125 39.015625  Q 14.890625 38.140625 10.796875 36.28125  z "
                 id="BitstreamVeraSans-Roman-35" />
            </defs>
            <g
               transform="translate(82.50177547393446 263.678125)scale(0.12 -0.12)"
               id="g23076">
              <use
                 xlink:href="#BitstreamVeraSans-Roman-35"
                 id="use23078" />
              <use
                 x="63.623046875"
                 xlink:href="#BitstreamVeraSans-Roman-30"
                 id="use23080" />
            </g>
          </g>
        </g>
        <g
           id="xtick_2">
          <g
             id="line2d_4">
            <g
               id="g23084">
              <use
                 style="stroke:#000000;stroke-width:0.5;"
                 x="145.225598694685"
                 xlink:href="#m0e08a6681f"
                 y="250.56"
                 id="use23086" />
            </g>
          </g>
          <g
             id="text_2">
            <!-- 100 -->
            <defs
               id="defs23089">
              <path
                 d="M 12.40625 8.296875  L 28.515625 8.296875  L 28.515625 63.921875  L 10.984375 60.40625  L 10.984375 69.390625  L 28.421875 72.90625  L 38.28125 72.90625  L 38.28125 8.296875  L 54.390625 8.296875  L 54.390625 0  L 12.40625 0  z "
                 id="BitstreamVeraSans-Roman-31" />
            </defs>
            <g
               transform="translate(133.77309869468502 263.678125)scale(0.12 -0.12)"
               id="g23092">
              <use
                 xlink:href="#BitstreamVeraSans-Roman-31"
                 id="use23094" />
              <use
                 x="63.623046875"
                 xlink:href="#BitstreamVeraSans-Roman-30"
                 id="use23096" />
              <use
                 x="127.24609375"
                 xlink:href="#BitstreamVeraSans-Roman-30"
                 id="use23098" />
            </g>
          </g>
        </g>
        <g
           id="xtick_3">
          <g
             id="line2d_5">
            <g
               id="g23102">
              <use
                 style="stroke:#000000;stroke-width:0.5;"
                 x="200.31442191543556"
                 xlink:href="#m0e08a6681f"
                 y="250.56"
                 id="use23104" />
            </g>
          </g>
          <g
             id="text_3">
            <!-- 150 -->
            <g
               transform="translate(188.86192191543557 263.678125)scale(0.12 -0.12)"
               id="g23107">
              <use
                 xlink:href="#BitstreamVeraSans-Roman-31"
                 id="use23109" />
              <use
                 x="63.623046875"
                 xlink:href="#BitstreamVeraSans-Roman-35"
                 id="use23111" />
              <use
                 x="127.24609375"
                 xlink:href="#BitstreamVeraSans-Roman-30"
                 id="use23113" />
            </g>
          </g>
        </g>
        <g
           id="xtick_4">
          <g
             id="line2d_6">
            <g
               id="g23117">
              <use
                 style="stroke:#000000;stroke-width:0.5;"
                 x="255.40324513618611"
                 xlink:href="#m0e08a6681f"
                 y="250.56"
                 id="use23119" />
            </g>
          </g>
          <g
             id="text_4">
            <!-- 200 -->
            <defs
               id="defs23122">
              <path
                 d="M 19.1875 8.296875  L 53.609375 8.296875  L 53.609375 0  L 7.328125 0  L 7.328125 8.296875  Q 12.9375 14.109375 22.625 23.890625  Q 32.328125 33.6875 34.8125 36.53125  Q 39.546875 41.84375 41.421875 45.53125  Q 43.3125 49.21875 43.3125 52.78125  Q 43.3125 58.59375 39.234375 62.25  Q 35.15625 65.921875 28.609375 65.921875  Q 23.96875 65.921875 18.8125 64.3125  Q 13.671875 62.703125 7.8125 59.421875  L 7.8125 69.390625  Q 13.765625 71.78125 18.9375 73  Q 24.125 74.21875 28.421875 74.21875  Q 39.75 74.21875 46.484375 68.546875  Q 53.21875 62.890625 53.21875 53.421875  Q 53.21875 48.921875 51.53125 44.890625  Q 49.859375 40.875 45.40625 35.40625  Q 44.1875 33.984375 37.640625 27.21875  Q 31.109375 20.453125 19.1875 8.296875  "
                 id="BitstreamVeraSans-Roman-32" />
            </defs>
            <g
               transform="translate(243.95074513618613 263.678125)scale(0.12 -0.12)"
               id="g23125">
              <use
                 xlink:href="#BitstreamVeraSans-Roman-32"
                 id="use23127" />
              <use
                 x="63.623046875"
                 xlink:href="#BitstreamVeraSans-Roman-30"
                 id="use23129" />
              <use
                 x="127.24609375"
                 xlink:href="#BitstreamVeraSans-Roman-30"
                 id="use23131" />
            </g>
          </g>
        </g>
        <g
           id="xtick_5">
          <g
             id="line2d_7">
            <g
               id="g23135">
              <use
                 style="stroke:#000000;stroke-width:0.5;"
                 x="310.4920683569366"
                 xlink:href="#m0e08a6681f"
                 y="250.56"
                 id="use23137" />
            </g>
          </g>
          <g
             id="text_5">
            <!-- 250 -->
            <g
               transform="translate(299.0395683569366 263.678125)scale(0.12 -0.12)"
               id="g23140">
              <use
                 xlink:href="#BitstreamVeraSans-Roman-32"
                 id="use23142" />
              <use
                 x="63.623046875"
                 xlink:href="#BitstreamVeraSans-Roman-35"
                 id="use23144" />
              <use
                 x="127.24609375"
                 xlink:href="#BitstreamVeraSans-Roman-30"
                 id="use23146" />
            </g>
          </g>
        </g>
        <g
           id="text_6">
          <!-- time (s) -->
          <defs
             id="defs23149">
            <path
               id="BitstreamVeraSans-Roman-20" />
            <path
               d="M 8.015625 75.875  L 15.828125 75.875  Q 23.140625 64.359375 26.78125 53.3125  Q 30.421875 42.28125 30.421875 31.390625  Q 30.421875 20.453125 26.78125 9.375  Q 23.140625 -1.703125 15.828125 -13.1875  L 8.015625 -13.1875  Q 14.5 -2 17.703125 9.0625  Q 20.90625 20.125 20.90625 31.390625  Q 20.90625 42.671875 17.703125 53.65625  Q 14.5 64.65625 8.015625 75.875  "
               id="BitstreamVeraSans-Roman-29" />
            <path
               d="M 52 44.1875  Q 55.375 50.25 60.0625 53.125  Q 64.75 56 71.09375 56  Q 79.640625 56 84.28125 50.015625  Q 88.921875 44.046875 88.921875 33.015625  L 88.921875 0  L 79.890625 0  L 79.890625 32.71875  Q 79.890625 40.578125 77.09375 44.375  Q 74.3125 48.1875 68.609375 48.1875  Q 61.625 48.1875 57.5625 43.546875  Q 53.515625 38.921875 53.515625 30.90625  L 53.515625 0  L 44.484375 0  L 44.484375 32.71875  Q 44.484375 40.625 41.703125 44.40625  Q 38.921875 48.1875 33.109375 48.1875  Q 26.21875 48.1875 22.15625 43.53125  Q 18.109375 38.875 18.109375 30.90625  L 18.109375 0  L 9.078125 0  L 9.078125 54.6875  L 18.109375 54.6875  L 18.109375 46.1875  Q 21.1875 51.21875 25.484375 53.609375  Q 29.78125 56 35.6875 56  Q 41.65625 56 45.828125 52.96875  Q 50 49.953125 52 44.1875  "
               id="BitstreamVeraSans-Roman-6d" />
            <path
               d="M 9.421875 54.6875  L 18.40625 54.6875  L 18.40625 0  L 9.421875 0  z M 9.421875 75.984375  L 18.40625 75.984375  L 18.40625 64.59375  L 9.421875 64.59375  z "
               id="BitstreamVeraSans-Roman-69" />
            <path
               d="M 31 75.875  Q 24.46875 64.65625 21.28125 53.65625  Q 18.109375 42.671875 18.109375 31.390625  Q 18.109375 20.125 21.3125 9.0625  Q 24.515625 -2 31 -13.1875  L 23.1875 -13.1875  Q 15.875 -1.703125 12.234375 9.375  Q 8.59375 20.453125 8.59375 31.390625  Q 8.59375 42.28125 12.203125 53.3125  Q 15.828125 64.359375 23.1875 75.875  z "
               id="BitstreamVeraSans-Roman-28" />
            <path
               d="M 56.203125 29.59375  L 56.203125 25.203125  L 14.890625 25.203125  Q 15.484375 15.921875 20.484375 11.0625  Q 25.484375 6.203125 34.421875 6.203125  Q 39.59375 6.203125 44.453125 7.46875  Q 49.3125 8.734375 54.109375 11.28125  L 54.109375 2.78125  Q 49.265625 0.734375 44.1875 -0.34375  Q 39.109375 -1.421875 33.890625 -1.421875  Q 20.796875 -1.421875 13.15625 6.1875  Q 5.515625 13.8125 5.515625 26.8125  Q 5.515625 40.234375 12.765625 48.109375  Q 20.015625 56 32.328125 56  Q 43.359375 56 49.78125 48.890625  Q 56.203125 41.796875 56.203125 29.59375  M 47.21875 32.234375  Q 47.125 39.59375 43.09375 43.984375  Q 39.0625 48.390625 32.421875 48.390625  Q 24.90625 48.390625 20.390625 44.140625  Q 15.875 39.890625 15.1875 32.171875  z "
               id="BitstreamVeraSans-Roman-65" />
            <path
               d="M 18.3125 70.21875  L 18.3125 54.6875  L 36.8125 54.6875  L 36.8125 47.703125  L 18.3125 47.703125  L 18.3125 18.015625  Q 18.3125 11.328125 20.140625 9.421875  Q 21.96875 7.515625 27.59375 7.515625  L 36.8125 7.515625  L 36.8125 0  L 27.59375 0  Q 17.1875 0 13.234375 3.875  Q 9.28125 7.765625 9.28125 18.015625  L 9.28125 47.703125  L 2.6875 47.703125  L 2.6875 54.6875  L 9.28125 54.6875  L 9.28125 70.21875  z "
               id="BitstreamVeraSans-Roman-74" />
            <path
               d="M 44.28125 53.078125  L 44.28125 44.578125  Q 40.484375 46.53125 36.375 47.5  Q 32.28125 48.484375 27.875 48.484375  Q 21.1875 48.484375 17.84375 46.4375  Q 14.5 44.390625 14.5 40.28125  Q 14.5 37.15625 16.890625 35.375  Q 19.28125 33.59375 26.515625 31.984375  L 29.59375 31.296875  Q 39.15625 29.25 43.1875 25.515625  Q 47.21875 21.78125 47.21875 15.09375  Q 47.21875 7.46875 41.1875 3.015625  Q 35.15625 -1.421875 24.609375 -1.421875  Q 20.21875 -1.421875 15.453125 -0.5625  Q 10.6875 0.296875 5.421875 2  L 5.421875 11.28125  Q 10.40625 8.6875 15.234375 7.390625  Q 20.0625 6.109375 24.8125 6.109375  Q 31.15625 6.109375 34.5625 8.28125  Q 37.984375 10.453125 37.984375 14.40625  Q 37.984375 18.0625 35.515625 20.015625  Q 33.0625 21.96875 24.703125 23.78125  L 21.578125 24.515625  Q 13.234375 26.265625 9.515625 29.90625  Q 5.8125 33.546875 5.8125 39.890625  Q 5.8125 47.609375 11.28125 51.796875  Q 16.75 56 26.8125 56  Q 31.78125 56 36.171875 55.265625  Q 40.578125 54.546875 44.28125 53.078125  "
               id="BitstreamVeraSans-Roman-73" />
          </defs>
          <g
             transform="translate(174.55031249999996 280.291875)scale(0.12 -0.12)"
             id="g23159">
            <use
               xlink:href="#BitstreamVeraSans-Roman-74"
               id="use23161" />
            <use
               x="39.208984375"
               xlink:href="#BitstreamVeraSans-Roman-69"
               id="use23163" />
            <use
               x="66.9921875"
               xlink:href="#BitstreamVeraSans-Roman-6d"
               id="use23165" />
            <use
               x="164.404296875"
               xlink:href="#BitstreamVeraSans-Roman-65"
               id="use23167" />
            <use
               x="225.927734375"
               xlink:href="#BitstreamVeraSans-Roman-20"
               id="use23169" />
            <use
               x="257.71484375"
               xlink:href="#BitstreamVeraSans-Roman-28"
               id="use23171" />
            <use
               x="296.728515625"
               xlink:href="#BitstreamVeraSans-Roman-73"
               id="use23173" />
            <use
               x="348.828125"
               xlink:href="#BitstreamVeraSans-Roman-29"
               id="use23175" />
          </g>
        </g>
      </g>
      <g
         id="matplotlib.axis_2">
        <g
           id="ytick_1">
          <g
             id="line2d_8">
            <defs
               id="defs23180">
              <path
                 d="M 0 0  L 4 0  "
                 id="m6a4cbb8666"
                 style="stroke:#000000;stroke-width:0.5;" />
            </defs>
            <g
               id="g23183">
              <use
                 style="stroke:#000000;stroke-width:0.5;"
                 x="48.6"
                 xlink:href="#m6a4cbb8666"
                 y="222.67898507363947"
                 id="use23185" />
            </g>
          </g>
          <g
             id="line2d_9">
            <defs
               id="defs23188">
              <path
                 d="M 0 0  L -4 0  "
                 id="m5ab006509e"
                 style="stroke:#000000;stroke-width:0.5;" />
            </defs>
            <g
               id="g23191">
              <use
                 style="stroke:#000000;stroke-width:0.5;"
                 x="347.03999999999996"
                 xlink:href="#m5ab006509e"
                 y="222.67898507363947"
                 id="use23193" />
            </g>
          </g>
          <g
             id="text_7">
            <!-- 0 -->
            <g
               transform="translate(36.965 225.99023507363944)scale(0.12 -0.12)"
               id="g23196">
              <use
                 xlink:href="#BitstreamVeraSans-Roman-30"
                 id="use23198" />
            </g>
          </g>
        </g>
        <g
           id="ytick_2">
          <g
             id="line2d_10">
            <g
               id="g23202">
              <use
                 style="stroke:#000000;stroke-width:0.5;"
                 x="48.6"
                 xlink:href="#m6a4cbb8666"
                 y="187.17842735039147"
                 id="use23204" />
            </g>
          </g>
          <g
             id="line2d_11">
            <g
               id="g23207">
              <use
                 style="stroke:#000000;stroke-width:0.5;"
                 x="347.03999999999996"
                 xlink:href="#m5ab006509e"
                 y="187.17842735039147"
                 id="use23209" />
            </g>
          </g>
          <g
             id="text_8">
            <!-- 100 -->
            <g
               transform="translate(21.695000000000004 190.48967735039147)scale(0.12 -0.12)"
               id="g23212">
              <use
                 xlink:href="#BitstreamVeraSans-Roman-31"
                 id="use23214" />
              <use
                 x="63.623046875"
                 xlink:href="#BitstreamVeraSans-Roman-30"
                 id="use23216" />
              <use
                 x="127.24609375"
                 xlink:href="#BitstreamVeraSans-Roman-30"
                 id="use23218" />
            </g>
          </g>
        </g>
        <g
           id="ytick_3">
          <g
             id="line2d_12">
            <g
               id="g23222">
              <use
                 style="stroke:#000000;stroke-width:0.5;"
                 x="48.6"
                 xlink:href="#m6a4cbb8666"
                 y="151.67786962714348"
                 id="use23224" />
            </g>
          </g>
          <g
             id="line2d_13">
            <g
               id="g23227">
              <use
                 style="stroke:#000000;stroke-width:0.5;"
                 x="347.03999999999996"
                 xlink:href="#m5ab006509e"
                 y="151.67786962714348"
                 id="use23229" />
            </g>
          </g>
          <g
             id="text_9">
            <!-- 200 -->
            <g
               transform="translate(21.695000000000004 154.98911962714348)scale(0.12 -0.12)"
               id="g23232">
              <use
                 xlink:href="#BitstreamVeraSans-Roman-32"
                 id="use23234" />
              <use
                 x="63.623046875"
                 xlink:href="#BitstreamVeraSans-Roman-30"
                 id="use23236" />
              <use
                 x="127.24609375"
                 xlink:href="#BitstreamVeraSans-Roman-30"
                 id="use23238" />
            </g>
          </g>
        </g>
        <g
           id="ytick_4">
          <g
             id="line2d_14">
            <g
               id="g23242">
              <use
                 style="stroke:#000000;stroke-width:0.5;"
                 x="48.6"
                 xlink:href="#m6a4cbb8666"
                 y="116.1773119038955"
                 id="use23244" />
            </g>
          </g>
          <g
             id="line2d_15">
            <g
               id="g23247">
              <use
                 style="stroke:#000000;stroke-width:0.5;"
                 x="347.03999999999996"
                 xlink:href="#m5ab006509e"
                 y="116.1773119038955"
                 id="use23249" />
            </g>
          </g>
          <g
             id="text_10">
            <!-- 300 -->
            <defs
               id="defs23252">
              <path
                 d="M 40.578125 39.3125  Q 47.65625 37.796875 51.625 33  Q 55.609375 28.21875 55.609375 21.1875  Q 55.609375 10.40625 48.1875 4.484375  Q 40.765625 -1.421875 27.09375 -1.421875  Q 22.515625 -1.421875 17.65625 -0.515625  Q 12.796875 0.390625 7.625 2.203125  L 7.625 11.71875  Q 11.71875 9.328125 16.59375 8.109375  Q 21.484375 6.890625 26.8125 6.890625  Q 36.078125 6.890625 40.9375 10.546875  Q 45.796875 14.203125 45.796875 21.1875  Q 45.796875 27.640625 41.28125 31.265625  Q 36.765625 34.90625 28.71875 34.90625  L 20.21875 34.90625  L 20.21875 43.015625  L 29.109375 43.015625  Q 36.375 43.015625 40.234375 45.921875  Q 44.09375 48.828125 44.09375 54.296875  Q 44.09375 59.90625 40.109375 62.90625  Q 36.140625 65.921875 28.71875 65.921875  Q 24.65625 65.921875 20.015625 65.03125  Q 15.375 64.15625 9.8125 62.3125  L 9.8125 71.09375  Q 15.4375 72.65625 20.34375 73.4375  Q 25.25 74.21875 29.59375 74.21875  Q 40.828125 74.21875 47.359375 69.109375  Q 53.90625 64.015625 53.90625 55.328125  Q 53.90625 49.265625 50.4375 45.09375  Q 46.96875 40.921875 40.578125 39.3125  "
                 id="BitstreamVeraSans-Roman-33" />
            </defs>
            <g
               transform="translate(21.695000000000004 119.48856190389549)scale(0.12 -0.12)"
               id="g23255">
              <use
                 xlink:href="#BitstreamVeraSans-Roman-33"
                 id="use23257" />
              <use
                 x="63.623046875"
                 xlink:href="#BitstreamVeraSans-Roman-30"
                 id="use23259" />
              <use
                 x="127.24609375"
                 xlink:href="#BitstreamVeraSans-Roman-30"
                 id="use23261" />
            </g>
          </g>
        </g>
        <g
           id="ytick_5">
          <g
             id="line2d_16">
            <g
               id="g23265">
              <use
                 style="stroke:#000000;stroke-width:0.5;"
                 x="48.6"
                 xlink:href="#m6a4cbb8666"
                 y="80.67675418064752"
                 id="use23267" />
            </g>
          </g>
          <g
             id="line2d_17">
            <g
               id="g23270">
              <use
                 style="stroke:#000000;stroke-width:0.5;"
                 x="347.03999999999996"
                 xlink:href="#m5ab006509e"
                 y="80.67675418064752"
                 id="use23272" />
            </g>
          </g>
          <g
             id="text_11">
            <!-- 400 -->
            <defs
               id="defs23275">
              <path
                 d="M 37.796875 64.3125  L 12.890625 25.390625  L 37.796875 25.390625  z M 35.203125 72.90625  L 47.609375 72.90625  L 47.609375 25.390625  L 58.015625 25.390625  L 58.015625 17.1875  L 47.609375 17.1875  L 47.609375 0  L 37.796875 0  L 37.796875 17.1875  L 4.890625 17.1875  L 4.890625 26.703125  z "
                 id="BitstreamVeraSans-Roman-34" />
            </defs>
            <g
               transform="translate(21.695000000000004 83.9880041806475)scale(0.12 -0.12)"
               id="g23278">
              <use
                 xlink:href="#BitstreamVeraSans-Roman-34"
                 id="use23280" />
              <use
                 x="63.623046875"
                 xlink:href="#BitstreamVeraSans-Roman-30"
                 id="use23282" />
              <use
                 x="127.24609375"
                 xlink:href="#BitstreamVeraSans-Roman-30"
                 id="use23284" />
            </g>
          </g>
        </g>
        <g
           id="ytick_6">
          <g
             id="line2d_18">
            <g
               id="g23288">
              <use
                 style="stroke:#000000;stroke-width:0.5;"
                 x="48.6"
                 xlink:href="#m6a4cbb8666"
                 y="45.17619645739953"
                 id="use23290" />
            </g>
          </g>
          <g
             id="line2d_19">
            <g
               id="g23293">
              <use
                 style="stroke:#000000;stroke-width:0.5;"
                 x="347.03999999999996"
                 xlink:href="#m5ab006509e"
                 y="45.17619645739953"
                 id="use23295" />
            </g>
          </g>
          <g
             id="text_12">
            <!-- 500 -->
            <g
               transform="translate(21.695000000000004 48.4874464573995)scale(0.12 -0.12)"
               id="g23298">
              <use
                 xlink:href="#BitstreamVeraSans-Roman-35"
                 id="use23300" />
              <use
                 x="63.623046875"
                 xlink:href="#BitstreamVeraSans-Roman-30"
                 id="use23302" />
              <use
                 x="127.24609375"
                 xlink:href="#BitstreamVeraSans-Roman-30"
                 id="use23304" />
            </g>
          </g>
        </g>
        <g
           id="text_13">
          <!-- Error  -->
          <defs
             id="defs23307">
            <path
               d="M 9.8125 72.90625  L 55.90625 72.90625  L 55.90625 64.59375  L 19.671875 64.59375  L 19.671875 43.015625  L 54.390625 43.015625  L 54.390625 34.71875  L 19.671875 34.71875  L 19.671875 8.296875  L 56.78125 8.296875  L 56.78125 0  L 9.8125 0  z "
               id="BitstreamVeraSans-Roman-45" />
            <path
               d="M 30.609375 48.390625  Q 23.390625 48.390625 19.1875 42.75  Q 14.984375 37.109375 14.984375 27.296875  Q 14.984375 17.484375 19.15625 11.84375  Q 23.34375 6.203125 30.609375 6.203125  Q 37.796875 6.203125 41.984375 11.859375  Q 46.1875 17.53125 46.1875 27.296875  Q 46.1875 37.015625 41.984375 42.703125  Q 37.796875 48.390625 30.609375 48.390625  M 30.609375 56  Q 42.328125 56 49.015625 48.375  Q 55.71875 40.765625 55.71875 27.296875  Q 55.71875 13.875 49.015625 6.21875  Q 42.328125 -1.421875 30.609375 -1.421875  Q 18.84375 -1.421875 12.171875 6.21875  Q 5.515625 13.875 5.515625 27.296875  Q 5.515625 40.765625 12.171875 48.375  Q 18.84375 56 30.609375 56  "
               id="BitstreamVeraSans-Roman-6f" />
            <path
               d="M 41.109375 46.296875  Q 39.59375 47.171875 37.8125 47.578125  Q 36.03125 48 33.890625 48  Q 26.265625 48 22.1875 43.046875  Q 18.109375 38.09375 18.109375 28.8125  L 18.109375 0  L 9.078125 0  L 9.078125 54.6875  L 18.109375 54.6875  L 18.109375 46.1875  Q 20.953125 51.171875 25.484375 53.578125  Q 30.03125 56 36.53125 56  Q 37.453125 56 38.578125 55.875  Q 39.703125 55.765625 41.0625 55.515625  z "
               id="BitstreamVeraSans-Roman-72" />
          </defs>
          <g
             transform="translate(14.199375000000002 153.27825)rotate(-90.0)scale(0.12 -0.12)"
             id="g23312">
            <use
               xlink:href="#BitstreamVeraSans-Roman-45"
               id="use23314" />
            <use
               x="63.18359375"
               xlink:href="#BitstreamVeraSans-Roman-72"
               id="use23316" />
            <use
               x="104.28125"
               xlink:href="#BitstreamVeraSans-Roman-72"
               id="use23318" />
            <use
               x="145.36328125"
               xlink:href="#BitstreamVeraSans-Roman-6f"
               id="use23320" />
            <use
               x="206.544921875"
               xlink:href="#BitstreamVeraSans-Roman-72"
               id="use23322" />
            <use
               x="247.658203125"
               xlink:href="#BitstreamVeraSans-Roman-20"
               id="use23324" />
          </g>
        </g>
      </g>
      <g
         id="text_14">
        <!-- Orbit Radius Error -->
        <defs
           id="defs23327">
          <path
             d="M 39.40625 66.21875  Q 28.65625 66.21875 22.328125 58.203125  Q 16.015625 50.203125 16.015625 36.375  Q 16.015625 22.609375 22.328125 14.59375  Q 28.65625 6.59375 39.40625 6.59375  Q 50.140625 6.59375 56.421875 14.59375  Q 62.703125 22.609375 62.703125 36.375  Q 62.703125 50.203125 56.421875 58.203125  Q 50.140625 66.21875 39.40625 66.21875  M 39.40625 74.21875  Q 54.734375 74.21875 63.90625 63.9375  Q 73.09375 53.65625 73.09375 36.375  Q 73.09375 19.140625 63.90625 8.859375  Q 54.734375 -1.421875 39.40625 -1.421875  Q 24.03125 -1.421875 14.8125 8.828125  Q 5.609375 19.09375 5.609375 36.375  Q 5.609375 53.65625 14.8125 63.9375  Q 24.03125 74.21875 39.40625 74.21875  "
             id="BitstreamVeraSans-Roman-4f" />
          <path
             d="M 44.390625 34.1875  Q 47.5625 33.109375 50.5625 29.59375  Q 53.5625 26.078125 56.59375 19.921875  L 66.609375 0  L 56 0  L 46.6875 18.703125  Q 43.0625 26.03125 39.671875 28.421875  Q 36.28125 30.8125 30.421875 30.8125  L 19.671875 30.8125  L 19.671875 0  L 9.8125 0  L 9.8125 72.90625  L 32.078125 72.90625  Q 44.578125 72.90625 50.734375 67.671875  Q 56.890625 62.453125 56.890625 51.90625  Q 56.890625 45.015625 53.6875 40.46875  Q 50.484375 35.9375 44.390625 34.1875  M 19.671875 64.796875  L 19.671875 38.921875  L 32.078125 38.921875  Q 39.203125 38.921875 42.84375 42.21875  Q 46.484375 45.515625 46.484375 51.90625  Q 46.484375 58.296875 42.84375 61.546875  Q 39.203125 64.796875 32.078125 64.796875  z "
             id="BitstreamVeraSans-Roman-52" />
          <path
             d="M 45.40625 46.390625  L 45.40625 75.984375  L 54.390625 75.984375  L 54.390625 0  L 45.40625 0  L 45.40625 8.203125  Q 42.578125 3.328125 38.25 0.953125  Q 33.9375 -1.421875 27.875 -1.421875  Q 17.96875 -1.421875 11.734375 6.484375  Q 5.515625 14.40625 5.515625 27.296875  Q 5.515625 40.1875 11.734375 48.09375  Q 17.96875 56 27.875 56  Q 33.9375 56 38.25 53.625  Q 42.578125 51.265625 45.40625 46.390625  M 14.796875 27.296875  Q 14.796875 17.390625 18.875 11.75  Q 22.953125 6.109375 30.078125 6.109375  Q 37.203125 6.109375 41.296875 11.75  Q 45.40625 17.390625 45.40625 27.296875  Q 45.40625 37.203125 41.296875 42.84375  Q 37.203125 48.484375 30.078125 48.484375  Q 22.953125 48.484375 18.875 42.84375  Q 14.796875 37.203125 14.796875 27.296875  "
             id="BitstreamVeraSans-Roman-64" />
          <path
             d="M 8.5 21.578125  L 8.5 54.6875  L 17.484375 54.6875  L 17.484375 21.921875  Q 17.484375 14.15625 20.5 10.265625  Q 23.53125 6.390625 29.59375 6.390625  Q 36.859375 6.390625 41.078125 11.03125  Q 45.3125 15.671875 45.3125 23.6875  L 45.3125 54.6875  L 54.296875 54.6875  L 54.296875 0  L 45.3125 0  L 45.3125 8.40625  Q 42.046875 3.421875 37.71875 1  Q 33.40625 -1.421875 27.6875 -1.421875  Q 18.265625 -1.421875 13.375 4.4375  Q 8.5 10.296875 8.5 21.578125  "
             id="BitstreamVeraSans-Roman-75" />
          <path
             d="M 34.28125 27.484375  Q 23.390625 27.484375 19.1875 25  Q 14.984375 22.515625 14.984375 16.5  Q 14.984375 11.71875 18.140625 8.90625  Q 21.296875 6.109375 26.703125 6.109375  Q 34.1875 6.109375 38.703125 11.40625  Q 43.21875 16.703125 43.21875 25.484375  L 43.21875 27.484375  z M 52.203125 31.203125  L 52.203125 0  L 43.21875 0  L 43.21875 8.296875  Q 40.140625 3.328125 35.546875 0.953125  Q 30.953125 -1.421875 24.3125 -1.421875  Q 15.921875 -1.421875 10.953125 3.296875  Q 6 8.015625 6 15.921875  Q 6 25.140625 12.171875 29.828125  Q 18.359375 34.515625 30.609375 34.515625  L 43.21875 34.515625  L 43.21875 35.40625  Q 43.21875 41.609375 39.140625 45  Q 35.0625 48.390625 27.6875 48.390625  Q 23 48.390625 18.546875 47.265625  Q 14.109375 46.140625 10.015625 43.890625  L 10.015625 52.203125  Q 14.9375 54.109375 19.578125 55.046875  Q 24.21875 56 28.609375 56  Q 40.484375 56 46.34375 49.84375  Q 52.203125 43.703125 52.203125 31.203125  "
             id="BitstreamVeraSans-Roman-61" />
          <path
             d="M 48.6875 27.296875  Q 48.6875 37.203125 44.609375 42.84375  Q 40.53125 48.484375 33.40625 48.484375  Q 26.265625 48.484375 22.1875 42.84375  Q 18.109375 37.203125 18.109375 27.296875  Q 18.109375 17.390625 22.1875 11.75  Q 26.265625 6.109375 33.40625 6.109375  Q 40.53125 6.109375 44.609375 11.75  Q 48.6875 17.390625 48.6875 27.296875  M 18.109375 46.390625  Q 20.953125 51.265625 25.265625 53.625  Q 29.59375 56 35.59375 56  Q 45.5625 56 51.78125 48.09375  Q 58.015625 40.1875 58.015625 27.296875  Q 58.015625 14.40625 51.78125 6.484375  Q 45.5625 -1.421875 35.59375 -1.421875  Q 29.59375 -1.421875 25.265625 0.953125  Q 20.953125 3.328125 18.109375 8.203125  L 18.109375 0  L 9.078125 0  L 9.078125 75.984375  L 18.109375 75.984375  z "
             id="BitstreamVeraSans-Roman-62" />
        </defs>
        <g
           transform="translate(133.093125 17.464)scale(0.144 -0.144)"
           id="g23335">
          <use
             xlink:href="#BitstreamVeraSans-Roman-4f"
             id="use23337" />
          <use
             x="78.7109375"
             xlink:href="#BitstreamVeraSans-Roman-72"
             id="use23339" />
          <use
             x="119.82421875"
             xlink:href="#BitstreamVeraSans-Roman-62"
             id="use23341" />
          <use
             x="183.30078125"
             xlink:href="#BitstreamVeraSans-Roman-69"
             id="use23343" />
          <use
             x="211.083984375"
             xlink:href="#BitstreamVeraSans-Roman-74"
             id="use23345" />
          <use
             x="250.29296875"
             xlink:href="#BitstreamVeraSans-Roman-20"
             id="use23347" />
          <use
             x="282.080078125"
             xlink:href="#BitstreamVeraSans-Roman-52"
             id="use23349" />
          <use
             x="351.53125"
             xlink:href="#BitstreamVeraSans-Roman-61"
             id="use23351" />
          <use
             x="412.810546875"
             xlink:href="#BitstreamVeraSans-Roman-64"
             id="use23353" />
          <use
             x="476.287109375"
             xlink:href="#BitstreamVeraSans-Roman-69"
             id="use23355" />
          <use
             x="504.0703125"
             xlink:href="#BitstreamVeraSans-Roman-75"
             id="use23357" />
          <use
             x="567.44921875"
             xlink:href="#BitstreamVeraSans-Roman-73"
             id="use23359" />
          <use
             x="619.548828125"
             xlink:href="#BitstreamVeraSans-Roman-20"
             id="use23361" />
          <use
             x="651.3359375"
             xlink:href="#BitstreamVeraSans-Roman-45"
             id="use23363" />
          <use
             x="714.51953125"
             xlink:href="#BitstreamVeraSans-Roman-72"
             id="use23365" />
          <use
             x="755.6171875"
             xlink:href="#BitstreamVeraSans-Roman-72"
             id="use23367" />
          <use
             x="796.69921875"
             xlink:href="#BitstreamVeraSans-Roman-6f"
             id="use23369" />
          <use
             x="857.880859375"
             xlink:href="#BitstreamVeraSans-Roman-72"
             id="use23371" />
        </g>
      </g>
    </g>
  </g>
  <defs
     id="defs23373">
    <clipPath
       id="pc548c4cceb">
      <rect
         height="228.096"
         width="298.43999999999994"
         x="48.6"
         y="22.464"
         id="rect23376" />
    </clipPath>
  </defs>
</svg>
