<?xml version="1.0" encoding="UTF-8" standalone="no"?>
<!-- Created with matplotlib (http://matplotlib.org/) -->

<svg
   xmlns:dc="http://purl.org/dc/elements/1.1/"
   xmlns:cc="http://creativecommons.org/ns#"
   xmlns:rdf="http://www.w3.org/1999/02/22-rdf-syntax-ns#"
   xmlns:svg="http://www.w3.org/2000/svg"
   xmlns="http://www.w3.org/2000/svg"
   xmlns:xlink="http://www.w3.org/1999/xlink"
   xmlns:sodipodi="http://sodipodi.sourceforge.net/DTD/sodipodi-0.dtd"
   xmlns:inkscape="http://www.inkscape.org/namespaces/inkscape"
   height="348pt"
   version="1.1"
   viewBox="0 0 442 348"
   width="442pt"
   id="svg21135"
   inkscape:version="0.91 r13725"
   sodipodi:docname="stable_relative_position.svg"
   inkscape:export-filename="/home/skyler/research/handoff_research/figures/orbit_tuning/stable_relative_position.png"
   inkscape:export-xdpi="200"
   inkscape:export-ydpi="200">
  <metadata
     id="metadata21643">
    <rdf:RDF>
      <cc:Work
         rdf:about="">
        <dc:format>image/svg+xml</dc:format>
        <dc:type
           rdf:resource="http://purl.org/dc/dcmitype/StillImage" />
      </cc:Work>
    </rdf:RDF>
  </metadata>
  <sodipodi:namedview
     pagecolor="#ffffff"
     bordercolor="#666666"
     borderopacity="1"
     objecttolerance="10"
     gridtolerance="10"
     guidetolerance="10"
     inkscape:pageopacity="0"
     inkscape:pageshadow="2"
     inkscape:window-width="1323"
     inkscape:window-height="851"
     id="namedview21641"
     showgrid="false"
     inkscape:zoom="0.54252874"
     inkscape:cx="39.396186"
     inkscape:cy="217.5"
     inkscape:window-x="53"
     inkscape:window-y="24"
     inkscape:window-maximized="0"
     inkscape:current-layer="svg21135" />
  <defs
     id="defs21137">
    <style
       type="text/css"
       id="style21139">
*{stroke-linecap:butt;stroke-linejoin:round;stroke-miterlimit:100000;}
  </style>
  </defs>
  <g
     id="figure_1">
    <g
       id="patch_1" />
    <g
       id="axes_1">
      <g
         id="patch_2">
        <path
           d="M 58.4496 309.79872  L 426.8592 309.79872  L 426.8592 22.6512  L 58.4496 22.6512  z "
           style="fill:#ffffff;"
           id="path21147" />
      </g>
      <g
         id="line2d_1">
        <path
           clip-path="url(#p402ca791ef)"
           d="M 353.162897 205.151972  L 353.845676 201.59498  L 355.622345 190.974157  L 356.092668 187.567698  L 356.627708 182.85283  L 356.627708 182.85283  L 356.748444 181.323407  L 356.840854 180.646352  L 357.034229 178.512387  L 357.113025 176.482836  L 357.451003 170.427758  L 357.47139 165.935426  L 357.409181 164.347017  L 357.334117 162.404937  L 357.198076 160.653338  L 357.276143 160.054167  L 356.452308 151.830245  L 356.20675 150.51592  L 355.759278 147.253029  L 355.354959 145.785426  L 355.394018 145.463575  L 355.236384 144.915013  L 354.795814 142.153718  L 353.822937 138.053815  L 351.276427 129.354791  L 350.617977 127.586572  L 348.307113 121.475387  L 344.716983 113.569721  L 343.495412 111.310679  L 342.844664 110.291843  L 342.109477 108.743097  L 340.466423 105.941891  L 338.881751 103.575569  L 338.610909 102.973597  L 335.092191 97.826372  L 333.696154 95.837882  L 332.513475 94.236994  L 329.141769 89.964831  L 323.671725 83.779633  L 322.499484 82.589624  L 318.620082 78.81299  L 315.512483 76.008406  L 312.791499 73.768333  L 310.455256 71.815037  L 308.39945 70.214042  L 306.747543 68.85339  L 302.237958 65.410831  L 302.237958 65.410831  L 299.593031 63.60482  L 298.220494 62.562655  L 289.147811 57.046405  L 289.147811 57.046405  L 281.179876 53.048982  L 280.112187 52.687099  L 279.807508 52.458262  L 277.191676 51.305566  L 276.431434 51.011536  L 275.20783 50.524919  L 273.945484 50.172029  L 273.945484 50.172029  L 273.518741 49.860961  L 270.201208 48.692587  L 268.962296 48.339984  L 268.010992 47.933494  L 263.121751 46.522418  L 262.212827 46.37017  L 261.353502 46.102508  L 260.916319 46.035473  L 258.717379 45.34338  L 258.717379 45.34338  L 257.602252 45.203351  L 257.289917 45.042276  L 256.633444 44.845127  L 254.99764 44.615799  L 254.99764 44.615799  L 254.314273 44.380903  L 246.600557 43.389786  L 235.947491 43.02818  L 230.181246 43.122741  L 230.181246 43.122741  L 227.069402 43.505275  L 226.608946 43.286948  L 226.608946 43.286948  L 223.197834 43.433529  L 221.614927 43.610303  L 215.181629 44.431098  L 212.022296 45.012744  L 210.241507 45.456523  L 206.944369 46.239818  L 202.885987 47.540246  L 202.885987 47.540246  L 201.544571 47.839081  L 199.044982 48.724648  L 188.156927 53.07512  L 186.76328 53.817059  L 185.518394 54.319002  L 183.466737 55.471458  L 183.466737 55.471458  L 183.09377 55.539457  L 177.323318 58.95514  L 176.616801 59.370596  L 174.645582 60.646693  L 170.489811 63.828867  L 166.300566 67.491319  L 160.80468 72.598321  L 159.653675 73.766049  L 158.521618 74.819856  L 157.629168 75.796827  L 156.636834 76.849219  L 150.986519 83.050074  L 149.064729 85.433967  L 145.636468 90.449511  L 141.998397 96.462674  L 141.236672 97.794154  L 141.014794 98.085987  L 139.954037 99.961636  L 138.032662 103.44363  L 134.543408 111.403699  L 134.568796 111.344266  L 132.938866 115.892475  L 129.346032 127.088479  L 128.40762 131.22241  L 128.024661 133.472558  L 127.026196 139.819659  L 125.788918 148.948257  L 125.280196 155.413367  L 125.081166 162.14941  L 125.105535 167.697566  L 125.851476 183.218959  L 125.955429 184.452503  L 126.273884 187.765587  L 126.371365 188.86742  L 126.650115 192.005815  L 126.964458 194.034871  L 127.483773 197.613248  L 127.816838 199.315647  L 127.816838 199.315647  L 127.968414 200.354718  L 128.831268 204.217423  L 130.211568 209.111933  L 131.604227 213.061705  L 133.276133 217.045451  L 134.532943 219.835218  L 136.11618 222.962489  L 136.941314 224.700043  L 137.1103 224.756268  L 138.907081 228.032293  L 139.442984 228.927546  L 141.610106 232.490401  L 142.548901 234.027833  L 144.391581 236.951883  L 150.213011 245.492898  L 151.082343 246.592254  L 155.664168 252.57987  L 159.217372 256.997908  L 162.612967 260.756202  L 165.990169 264.116235  L 171.163786 268.937817  L 174.986364 272.276643  L 178.464371 274.976326  L 182.15614 277.483904  L 185.60105 279.589505  L 190.6843 282.150921  L 197.150056 284.620766  L 198.416888 284.990888  L 199.338 285.323088  L 203.469715 286.516409  L 209.201114 287.920233  L 209.347346 287.899555  L 210.672851 288.249639  L 211.673289 288.418467  L 224.229241 290.198314  L 224.854004 290.253763  L 231.693813 290.738178  L 233.345191 290.839101  L 238.569599 290.993807  L 245.660176 290.951687  L 249.956125 290.727174  L 255.339235 290.218877  L 265.269949 288.650665  L 269.659862 287.831329  L 277.847647 285.990281  L 281.939885 284.789328  L 289.269949 282.257841  L 291.65298 281.385798  L 294.768768 280.179256  L 298.892615 278.344983  L 298.892615 278.344983  L 299.524997 278.198256  L 304.336697 275.862258  L 305.305379 275.369408  L 307.158845 274.276177  L 308.88506 273.325957  L 312.891974 270.761395  L 318.218298 266.780188  L 321.717284 263.789088  L 325.430184 260.293224  L 328.423037 257.108101  L 331.487275 253.467882  L 334.294337 249.728306  L 337.722598 244.627098  L 338.305468 243.490306  L 339.046757 242.304421  L 341.821474 237.321452  L 342.523045 235.992615  L 344.311763 232.407666  L 346.810169 226.899096  L 349.979829 217.988151  L 350.886072 214.50315  L 352.474695 208.738691  L 354.905484 197.713716  L 355.465481 193.532688  L 356.326155 183.395491  L 356.811183 171.476445  L 356.617531 166.375664  L 356.227065 161.614862  L 355.97007 159.622869  L 355.19903 153.271489  L 354.191021 146.271423  L 353.353897 142.027681  L 351.946741 136.415413  L 351.8806 136.305013  L 350.382473 131.610388  L 347.512999 123.844671  L 344.388333 116.599079  L 341.520533 110.408085  L 338.134801 103.595018  L 336.174457 99.938864  L 336.174457 99.938864  L 335.931637 99.577983  L 335.433719 98.529955  L 331.011601 91.365257  L 327.571065 86.438236  L 321.921441 79.549439  L 321.649786 79.290546  L 320.805421 78.239254  L 319.957917 77.37522  L 315.535972 72.664976  L 314.133345 71.470844  L 313.166195 70.406879  L 312.488762 69.817862  L 309.469682 67.191736  L 301.184018 60.787882  L 300.312988 60.224392  L 299.315851 59.532164  L 298.499752 58.953461  L 289.901923 53.712053  L 288.976521 53.26308  L 283.245256 50.534188  L 281.373826 49.671102  L 273.150491 46.761594  L 266.782375 44.833342  L 266.782375 44.833342  L 258.78701 42.998064  L 253.666993 42.202591  L 247.947576 41.651905  L 245.483773 41.56617  L 245.483773 41.56617  L 243.639354 41.553979  L 242.157012 41.426096  L 237.111204 41.534617  L 236.434546 41.623324  L 234.37691 41.684131  L 227.406842 42.338715  L 217.735484 43.984257  L 211.186528 45.503057  L 211.186528 45.503057  L 209.648085 45.964764  L 204.496744 47.57244  L 202.686264 48.297005  L 202.483224 48.282968  L 199.084105 49.686873  L 198.239875 50.031846  L 196.625012 50.800778  L 194.171114 51.903052  L 192.225256 52.805284  L 189.515917 54.153755  L 186.442535 55.829699  L 183.103121 57.649039  L 174.701109 63.048982  L 171.262153 65.639644  L 170.99724 65.877056  L 169.275905 66.984523  L 167.827768 68.188942  L 164.021172 71.316781  L 163.378299 71.973983  L 163.378299 71.973983  L 162.486072 72.649217  L 161.930135 73.234438  L 159.881885 74.997226  L 158.329309 76.453619  L 157.23423 77.718895  L 156.932898 77.778155  L 156.689572 78.065009  L 155.387805 79.230448  L 152.666025 82.148674  L 151.365985 83.464872  L 146.514543 89.290461  L 145.112259 91.245035  L 141.956818 95.569581  L 141.956818 95.569581  L 137.926477 101.533094  L 137.448271 102.480768  L 137.172611 102.76557  L 135.009473 106.459373  L 135.009473 106.459373  L 134.504734 107.585138  L 133.647844 108.766857  L 133.021573 110.089456  L 132.091693 111.71297  L 130.329577 115.523953  L 129.735608 116.525029  L 129.735608 116.525029  L 129.077796 118.137002  L 127.324005 122.494626  L 123.578555 133.690415  L 123.288975 134.972805  L 122.838077 136.966425  L 122.838077 136.966425  L 121.489316 142.495688  L 121.245848 143.684805  L 120.969121 146.080808  L 120.969121 146.080808  L 120.654966 147.083521  L 120.612271 147.674144  L 120.240601 149.692056  L 120.226266 149.959131  L 119.560045 154.887681  L 119.363499 156.538741  L 118.928403 163.26813  L 118.973469 168.742686  L 119.169956 171.946436  L 120.008658 181.440173  L 120.269903 183.281885  L 120.269903 183.281885  L 120.413379 185.114474  L 120.998655 188.48649  L 121.110449 189.33084  L 122.734605 195.821239  L 123.461293 198.231239  L 124.945802 202.352031  L 126.205412 205.429628  L 127.3876 207.806176  L 128.489581 210.170382  L 128.707747 210.46103  L 129.701942 212.42662  L 131.194111 214.725317  L 133.294684 218.141924  L 133.826404 218.927207  L 138.573831 226.099595  L 142.552042 231.683593  L 145.611187 235.884386  L 148.447931 239.345156  L 150.750245 241.840949  L 155.420941 246.396949  L 155.662013 246.577578  L 157.119137 247.85798  L 158.628398 249.135285  L 158.947768 249.451509  L 160.135133 250.443261  L 161.668993 251.73325  L 161.668993 251.73325  L 161.90351 251.694824  L 171.553994 258.503028  L 181.7337 264.962332  L 184.153675 266.378577  L 188.923069 268.890051  L 189.700028 269.11357  L 191.279532 269.929658  L 206.594164 275.935448  L 209.696707 277.04303  L 215.908476 279.16112  L 219.088778 280.023979  L 222.438811 280.744313  L 228.040069 281.649915  L 237.260343 282.861747  L 240.186984 283.055511  L 243.474936 283.092151  L 244.605815 283.065213  L 247.410029 282.913177  L 255.294442 282.246292  L 268.333302 280.335992  L 274.936548 278.976888  L 284.232407 276.238145  L 285.667279 275.729491  L 286.675124 275.385325  L 294.294285 272.527603  L 295.664049 271.845967  L 295.865859 271.867376  L 299.117273 270.327211  L 304.261575 267.684722  L 307.746951 265.649248  L 308.743087 265.119277  L 312.205083 262.780775  L 317.77208 258.52872  L 321.071007 255.547187  L 324.238303 252.253929  L 327.127325 249.007328  L 332.38163 242.321151  L 334.311815 239.642745  L 335.553272 237.831891  L 339.326388 231.944497  L 341.062116 228.765859  L 345.263973 219.70542  L 347.526684 213.777075  L 347.673275 213.550743  L 351.063889 203.133115  L 351.399277 201.942857  L 352.027221 199.776279  L 352.384947 198.070338  L 353.369327 192.704336  L 354.249942 183.237101  L 354.299436 178.794099  L 354.152248 174.054261  L 353.743821 168.816476  L 352.680169 160.254875  L 351.667017 154.142586  L 350.626174 149.720292  L 348.315699 142.374683  L 348.315699 142.374683  L 347.399288 140.145704  L 346.578598 137.981515  L 346.26179 137.530629  L 343.652514 131.808659  L 335.642979 118.073317  L 330.876723 110.787309  L 329.616382 108.953192  L 323.76509 100.85115  L 321.098955 97.75155  L 318.779501 95.347691  L 317.873638 94.436064  L 314.641042 91.270636  L 314.641042 91.270636  L 313.891062 90.688437  L 313.891062 90.688437  L 312.658634 89.535229  L 307.923523 85.547997  L 307.923523 85.547997  "
           style="fill:none;stroke:#b40000;stroke-linecap:square;"
           id="path21150" />
      </g>
      <g
         id="line2d_2">
        <path
           clip-path="url(#p402ca791ef)"
           d="M 318.604279 85.547997  L 318.582775 84.844795  L 318.51835 84.144425  L 318.411264 83.449706  L 318.261947 82.763436  L 318.071 82.088378  L 317.839194 81.427252  L 317.567461 80.782718  L 317.256895 80.157372  L 316.908746 79.553732  L 316.524418 78.974229  L 316.105457 78.421197  L 315.653549 77.896861  L 315.170516 77.403334  L 314.658302 76.942603  L 314.118969 76.516522  L 313.554689 76.126808  L 312.967735 75.77503  L 312.360469 75.462604  L 311.735337 75.190789  L 311.094857 74.960678  L 310.441607 74.773199  L 309.778217 74.629106  L 309.107359 74.528979  L 308.431734 74.473222  L 307.754062 74.46206  L 307.077073 74.495536  L 306.403493 74.573517  L 305.736033 74.695688  L 305.077381 74.861558  L 304.43019 75.070458  L 303.797065 75.321548  L 303.180556 75.613816  L 302.583145 75.946085  L 302.007238 76.317018  L 301.455154 76.725121  L 300.929115 77.16875  L 300.431241 77.646119  L 299.963535 78.155307  L 299.527882 78.694263  L 299.126034 79.260816  L 298.759612 79.852685  L 298.430089 80.467487  L 298.138792 81.102747  L 297.886895 81.755906  L 297.675413 82.424335  L 297.505196 83.105341  L 297.376929 83.796183  L 297.29113 84.494079  L 297.248144 85.196219  L 297.248144 85.899775  L 297.29113 86.601915  L 297.376929 87.299811  L 297.505196 87.990654  L 297.675413 88.67166  L 297.886895 89.340089  L 298.138792 89.993248  L 298.430089 90.628507  L 298.759612 91.24331  L 299.126034 91.835179  L 299.527882 92.401732  L 299.963535 92.940687  L 300.431241 93.449875  L 300.929115 93.927245  L 301.455154 94.370874  L 302.007238 94.778977  L 302.583145 95.14991  L 303.180556 95.482179  L 303.797065 95.774447  L 304.43019 96.025536  L 305.077381 96.234436  L 305.736033 96.400306  L 306.403493 96.522477  L 307.077073 96.600458  L 307.754062 96.633935  L 308.431734 96.622772  L 309.107359 96.567016  L 309.778217 96.466889  L 310.441607 96.322796  L 311.094857 96.135317  L 311.735337 95.905206  L 312.360469 95.63339  L 312.967735 95.320964  L 313.554689 94.969186  L 314.118969 94.579472  L 314.658302 94.153392  L 315.170516 93.69266  L 315.653549 93.199133  L 316.105457 92.674798  L 316.524418 92.121765  L 316.908746 91.542262  L 317.256895 90.938623  L 317.567461 90.313277  L 317.839194 89.668743  L 318.071 89.007616  L 318.261947 88.332559  L 318.411264 87.646289  L 318.51835 86.95157  L 318.582775 86.251199  L 318.604279 85.547997  "
           style="fill:none;stroke:#b40000;stroke-linecap:square;"
           id="path21153" />
      </g>
      <g
         id="line2d_3">
        <path
           clip-path="url(#p402ca791ef)"
           d="M 242.6544 166.035857  L 242.6544 166.035857  "
           style="fill:none;stroke:#0048b4;stroke-linecap:square;"
           id="path21156" />
      </g>
      <g
         id="line2d_4">
        <path
           clip-path="url(#p402ca791ef)"
           d="M 253.335156 166.035857  L 253.313652 165.332655  L 253.249227 164.632284  L 253.142141 163.937565  L 252.992824 163.251296  L 252.801878 162.576238  L 252.570071 161.915112  L 252.298338 161.270578  L 251.987772 160.645232  L 251.639624 160.041592  L 251.255295 159.462089  L 250.836334 158.909057  L 250.384427 158.384721  L 249.901393 157.891194  L 249.389179 157.430463  L 248.849846 157.004382  L 248.285566 156.614668  L 247.698612 156.26289  L 247.091346 155.950464  L 246.466215 155.678648  L 245.825734 155.448538  L 245.172484 155.261058  L 244.509094 155.116965  L 243.838236 155.016839  L 243.162611 154.961082  L 242.48494 154.949919  L 241.807951 154.983396  L 241.13437 155.061377  L 240.46691 155.183548  L 239.808258 155.349418  L 239.161067 155.558318  L 238.527942 155.809408  L 237.911433 156.101675  L 237.314022 156.433945  L 236.738115 156.804878  L 236.186031 157.21298  L 235.659992 157.65661  L 235.162118 158.133979  L 234.694412 158.643167  L 234.258759 159.182122  L 233.856912 159.748675  L 233.490489 160.340545  L 233.160966 160.955347  L 232.869669 161.590607  L 232.617773 162.243766  L 232.40629 162.912194  L 232.236073 163.593201  L 232.107806 164.284043  L 232.022007 164.981939  L 231.979022 165.684079  L 231.979022 166.387635  L 232.022007 167.089775  L 232.107806 167.787671  L 232.236073 168.478513  L 232.40629 169.15952  L 232.617773 169.827948  L 232.869669 170.481107  L 233.160966 171.116367  L 233.490489 171.731169  L 233.856912 172.323039  L 234.258759 172.889592  L 234.694412 173.428547  L 235.162118 173.937735  L 235.659992 174.415104  L 236.186031 174.858734  L 236.738115 175.266836  L 237.314022 175.637769  L 237.911433 175.970039  L 238.527942 176.262306  L 239.161067 176.513396  L 239.808258 176.722296  L 240.46691 176.888166  L 241.13437 177.010337  L 241.807951 177.088318  L 242.48494 177.121795  L 243.162611 177.110632  L 243.838236 177.054875  L 244.509094 176.954749  L 245.172484 176.810656  L 245.825734 176.623176  L 246.466215 176.393066  L 247.091346 176.12125  L 247.698612 175.808824  L 248.285566 175.457046  L 248.849846 175.067332  L 249.389179 174.641252  L 249.901393 174.18052  L 250.384427 173.686993  L 250.836334 173.162657  L 251.255295 172.609625  L 251.639624 172.030122  L 251.987772 171.426482  L 252.298338 170.801136  L 252.570071 170.156603  L 252.801878 169.495476  L 252.992824 168.820418  L 253.142141 168.134149  L 253.249227 167.43943  L 253.313652 166.739059  L 253.335156 166.035857  "
           style="fill:none;stroke:#0048b4;stroke-linecap:square;"
           id="path21159" />
      </g>
      <g
         id="patch_3">
        <path
           d="M 58.4496 22.6512  L 426.8592 22.6512  "
           style="fill:none;"
           id="path21162" />
      </g>
      <g
         id="patch_4">
        <path
           d="M 426.8592 309.79872  L 426.8592 22.6512  "
           style="fill:none;"
           id="path21165" />
      </g>
      <g
         id="patch_5">
        <path
           d="M 58.4496 309.79872  L 426.8592 309.79872  "
           style="fill:none;stroke:#000000;stroke-linecap:square;stroke-linejoin:miter;"
           id="path21168" />
      </g>
      <g
         id="patch_6">
        <path
           d="M 58.4496 309.79872  L 58.4496 22.6512  "
           style="fill:none;stroke:#000000;stroke-linecap:square;stroke-linejoin:miter;"
           id="path21171" />
      </g>
      <g
         id="matplotlib.axis_1">
        <g
           id="xtick_1">
          <g
             id="line2d_5">
            <defs
               id="defs21176">
              <path
                 d="M 0 0  L 0 -4  "
                 id="md63eeca1bc"
                 style="stroke:#000000;stroke-width:0.5;" />
            </defs>
            <g
               id="g21179">
              <use
                 style="stroke:#000000;stroke-width:0.5;"
                 x="58.449600000000004"
                 xlink:href="#md63eeca1bc"
                 y="309.79872"
                 id="use21181" />
            </g>
          </g>
          <g
             id="text_1">
            <!-- −200 -->
            <defs
               id="defs21184">
              <path
                 d="M 10.59375 35.5  L 73.1875 35.5  L 73.1875 27.203125  L 10.59375 27.203125  z "
                 id="BitstreamVeraSans-Roman-2212" />
              <path
                 d="M 19.1875 8.296875  L 53.609375 8.296875  L 53.609375 0  L 7.328125 0  L 7.328125 8.296875  Q 12.9375 14.109375 22.625 23.890625  Q 32.328125 33.6875 34.8125 36.53125  Q 39.546875 41.84375 41.421875 45.53125  Q 43.3125 49.21875 43.3125 52.78125  Q 43.3125 58.59375 39.234375 62.25  Q 35.15625 65.921875 28.609375 65.921875  Q 23.96875 65.921875 18.8125 64.3125  Q 13.671875 62.703125 7.8125 59.421875  L 7.8125 69.390625  Q 13.765625 71.78125 18.9375 73  Q 24.125 74.21875 28.421875 74.21875  Q 39.75 74.21875 46.484375 68.546875  Q 53.21875 62.890625 53.21875 53.421875  Q 53.21875 48.921875 51.53125 44.890625  Q 49.859375 40.875 45.40625 35.40625  Q 44.1875 33.984375 37.640625 27.21875  Q 31.109375 20.453125 19.1875 8.296875  "
                 id="BitstreamVeraSans-Roman-32" />
              <path
                 d="M 31.78125 66.40625  Q 24.171875 66.40625 20.328125 58.90625  Q 16.5 51.421875 16.5 36.375  Q 16.5 21.390625 20.328125 13.890625  Q 24.171875 6.390625 31.78125 6.390625  Q 39.453125 6.390625 43.28125 13.890625  Q 47.125 21.390625 47.125 36.375  Q 47.125 51.421875 43.28125 58.90625  Q 39.453125 66.40625 31.78125 66.40625  M 31.78125 74.21875  Q 44.046875 74.21875 50.515625 64.515625  Q 56.984375 54.828125 56.984375 36.375  Q 56.984375 17.96875 50.515625 8.265625  Q 44.046875 -1.421875 31.78125 -1.421875  Q 19.53125 -1.421875 13.0625 8.265625  Q 6.59375 17.96875 6.59375 36.375  Q 6.59375 54.828125 13.0625 64.515625  Q 19.53125 74.21875 31.78125 74.21875  "
                 id="BitstreamVeraSans-Roman-30" />
            </defs>
            <g
               transform="translate(41.96928750000001 322.916845)scale(0.12 -0.12)"
               id="g21189">
              <use
                 xlink:href="#BitstreamVeraSans-Roman-2212"
                 id="use21191" />
              <use
                 x="83.7890625"
                 xlink:href="#BitstreamVeraSans-Roman-32"
                 id="use21193" />
              <use
                 x="147.412109375"
                 xlink:href="#BitstreamVeraSans-Roman-30"
                 id="use21195" />
              <use
                 x="211.03515625"
                 xlink:href="#BitstreamVeraSans-Roman-30"
                 id="use21197" />
            </g>
          </g>
        </g>
        <g
           id="xtick_2">
          <g
             id="line2d_6">
            <g
               id="g21201">
              <use
                 style="stroke:#000000;stroke-width:0.5;"
                 x="104.5008"
                 xlink:href="#md63eeca1bc"
                 y="309.79872"
                 id="use21203" />
            </g>
          </g>
          <g
             id="text_2">
            <!-- −150 -->
            <defs
               id="defs21206">
              <path
                 d="M 12.40625 8.296875  L 28.515625 8.296875  L 28.515625 63.921875  L 10.984375 60.40625  L 10.984375 69.390625  L 28.421875 72.90625  L 38.28125 72.90625  L 38.28125 8.296875  L 54.390625 8.296875  L 54.390625 0  L 12.40625 0  z "
                 id="BitstreamVeraSans-Roman-31" />
              <path
                 d="M 10.796875 72.90625  L 49.515625 72.90625  L 49.515625 64.59375  L 19.828125 64.59375  L 19.828125 46.734375  Q 21.96875 47.46875 24.109375 47.828125  Q 26.265625 48.1875 28.421875 48.1875  Q 40.625 48.1875 47.75 41.5  Q 54.890625 34.8125 54.890625 23.390625  Q 54.890625 11.625 47.5625 5.09375  Q 40.234375 -1.421875 26.90625 -1.421875  Q 22.3125 -1.421875 17.546875 -0.640625  Q 12.796875 0.140625 7.71875 1.703125  L 7.71875 11.625  Q 12.109375 9.234375 16.796875 8.0625  Q 21.484375 6.890625 26.703125 6.890625  Q 35.15625 6.890625 40.078125 11.328125  Q 45.015625 15.765625 45.015625 23.390625  Q 45.015625 31 40.078125 35.4375  Q 35.15625 39.890625 26.703125 39.890625  Q 22.75 39.890625 18.8125 39.015625  Q 14.890625 38.140625 10.796875 36.28125  z "
                 id="BitstreamVeraSans-Roman-35" />
            </defs>
            <g
               transform="translate(88.0204875 322.916845)scale(0.12 -0.12)"
               id="g21210">
              <use
                 xlink:href="#BitstreamVeraSans-Roman-2212"
                 id="use21212" />
              <use
                 x="83.7890625"
                 xlink:href="#BitstreamVeraSans-Roman-31"
                 id="use21214" />
              <use
                 x="147.412109375"
                 xlink:href="#BitstreamVeraSans-Roman-35"
                 id="use21216" />
              <use
                 x="211.03515625"
                 xlink:href="#BitstreamVeraSans-Roman-30"
                 id="use21218" />
            </g>
          </g>
        </g>
        <g
           id="xtick_3">
          <g
             id="line2d_7">
            <g
               id="g21222">
              <use
                 style="stroke:#000000;stroke-width:0.5;"
                 x="150.552"
                 xlink:href="#md63eeca1bc"
                 y="309.79872"
                 id="use21224" />
            </g>
          </g>
          <g
             id="text_3">
            <!-- −100 -->
            <g
               transform="translate(134.0716875 322.916845)scale(0.12 -0.12)"
               id="g21227">
              <use
                 xlink:href="#BitstreamVeraSans-Roman-2212"
                 id="use21229" />
              <use
                 x="83.7890625"
                 xlink:href="#BitstreamVeraSans-Roman-31"
                 id="use21231" />
              <use
                 x="147.412109375"
                 xlink:href="#BitstreamVeraSans-Roman-30"
                 id="use21233" />
              <use
                 x="211.03515625"
                 xlink:href="#BitstreamVeraSans-Roman-30"
                 id="use21235" />
            </g>
          </g>
        </g>
        <g
           id="xtick_4">
          <g
             id="line2d_8">
            <g
               id="g21239">
              <use
                 style="stroke:#000000;stroke-width:0.5;"
                 x="196.6032"
                 xlink:href="#md63eeca1bc"
                 y="309.79872"
                 id="use21241" />
            </g>
          </g>
          <g
             id="text_4">
            <!-- −50 -->
            <g
               transform="translate(183.94038749999999 322.916845)scale(0.12 -0.12)"
               id="g21244">
              <use
                 xlink:href="#BitstreamVeraSans-Roman-2212"
                 id="use21246" />
              <use
                 x="83.7890625"
                 xlink:href="#BitstreamVeraSans-Roman-35"
                 id="use21248" />
              <use
                 x="147.412109375"
                 xlink:href="#BitstreamVeraSans-Roman-30"
                 id="use21250" />
            </g>
          </g>
        </g>
        <g
           id="xtick_5">
          <g
             id="line2d_9">
            <g
               id="g21254">
              <use
                 style="stroke:#000000;stroke-width:0.5;"
                 x="242.65439999999998"
                 xlink:href="#md63eeca1bc"
                 y="309.79872"
                 id="use21256" />
            </g>
          </g>
          <g
             id="text_5">
            <!-- 0 -->
            <g
               transform="translate(238.83689999999999 322.916845)scale(0.12 -0.12)"
               id="g21259">
              <use
                 xlink:href="#BitstreamVeraSans-Roman-30"
                 id="use21261" />
            </g>
          </g>
        </g>
        <g
           id="xtick_6">
          <g
             id="line2d_10">
            <g
               id="g21265">
              <use
                 style="stroke:#000000;stroke-width:0.5;"
                 x="288.7056"
                 xlink:href="#md63eeca1bc"
                 y="309.79872"
                 id="use21267" />
            </g>
          </g>
          <g
             id="text_6">
            <!-- 50 -->
            <g
               transform="translate(281.0706 322.916845)scale(0.12 -0.12)"
               id="g21270">
              <use
                 xlink:href="#BitstreamVeraSans-Roman-35"
                 id="use21272" />
              <use
                 x="63.623046875"
                 xlink:href="#BitstreamVeraSans-Roman-30"
                 id="use21274" />
            </g>
          </g>
        </g>
        <g
           id="xtick_7">
          <g
             id="line2d_11">
            <g
               id="g21278">
              <use
                 style="stroke:#000000;stroke-width:0.5;"
                 x="334.7568"
                 xlink:href="#md63eeca1bc"
                 y="309.79872"
                 id="use21280" />
            </g>
          </g>
          <g
             id="text_7">
            <!-- 100 -->
            <g
               transform="translate(323.3043 322.916845)scale(0.12 -0.12)"
               id="g21283">
              <use
                 xlink:href="#BitstreamVeraSans-Roman-31"
                 id="use21285" />
              <use
                 x="63.623046875"
                 xlink:href="#BitstreamVeraSans-Roman-30"
                 id="use21287" />
              <use
                 x="127.24609375"
                 xlink:href="#BitstreamVeraSans-Roman-30"
                 id="use21289" />
            </g>
          </g>
        </g>
        <g
           id="xtick_8">
          <g
             id="line2d_12">
            <g
               id="g21293">
              <use
                 style="stroke:#000000;stroke-width:0.5;"
                 x="380.808"
                 xlink:href="#md63eeca1bc"
                 y="309.79872"
                 id="use21295" />
            </g>
          </g>
          <g
             id="text_8">
            <!-- 150 -->
            <g
               transform="translate(369.3555 322.916845)scale(0.12 -0.12)"
               id="g21298">
              <use
                 xlink:href="#BitstreamVeraSans-Roman-31"
                 id="use21300" />
              <use
                 x="63.623046875"
                 xlink:href="#BitstreamVeraSans-Roman-35"
                 id="use21302" />
              <use
                 x="127.24609375"
                 xlink:href="#BitstreamVeraSans-Roman-30"
                 id="use21304" />
            </g>
          </g>
        </g>
        <g
           id="xtick_9">
          <g
             id="line2d_13">
            <g
               id="g21308">
              <use
                 style="stroke:#000000;stroke-width:0.5;"
                 x="426.8592"
                 xlink:href="#md63eeca1bc"
                 y="309.79872"
                 id="use21310" />
            </g>
          </g>
          <g
             id="text_9">
            <!-- 200 -->
            <g
               transform="translate(415.4067 322.916845)scale(0.12 -0.12)"
               id="g21313">
              <use
                 xlink:href="#BitstreamVeraSans-Roman-32"
                 id="use21315" />
              <use
                 x="63.623046875"
                 xlink:href="#BitstreamVeraSans-Roman-30"
                 id="use21317" />
              <use
                 x="127.24609375"
                 xlink:href="#BitstreamVeraSans-Roman-30"
                 id="use21319" />
            </g>
          </g>
        </g>
        <g
           id="text_10">
          <!-- East (m)  -->
          <defs
             id="defs21322">
            <path
               id="BitstreamVeraSans-Roman-20" />
            <path
               d="M 8.015625 75.875  L 15.828125 75.875  Q 23.140625 64.359375 26.78125 53.3125  Q 30.421875 42.28125 30.421875 31.390625  Q 30.421875 20.453125 26.78125 9.375  Q 23.140625 -1.703125 15.828125 -13.1875  L 8.015625 -13.1875  Q 14.5 -2 17.703125 9.0625  Q 20.90625 20.125 20.90625 31.390625  Q 20.90625 42.671875 17.703125 53.65625  Q 14.5 64.65625 8.015625 75.875  "
               id="BitstreamVeraSans-Roman-29" />
            <path
               d="M 31 75.875  Q 24.46875 64.65625 21.28125 53.65625  Q 18.109375 42.671875 18.109375 31.390625  Q 18.109375 20.125 21.3125 9.0625  Q 24.515625 -2 31 -13.1875  L 23.1875 -13.1875  Q 15.875 -1.703125 12.234375 9.375  Q 8.59375 20.453125 8.59375 31.390625  Q 8.59375 42.28125 12.203125 53.3125  Q 15.828125 64.359375 23.1875 75.875  z "
               id="BitstreamVeraSans-Roman-28" />
            <path
               d="M 9.8125 72.90625  L 55.90625 72.90625  L 55.90625 64.59375  L 19.671875 64.59375  L 19.671875 43.015625  L 54.390625 43.015625  L 54.390625 34.71875  L 19.671875 34.71875  L 19.671875 8.296875  L 56.78125 8.296875  L 56.78125 0  L 9.8125 0  z "
               id="BitstreamVeraSans-Roman-45" />
            <path
               d="M 52 44.1875  Q 55.375 50.25 60.0625 53.125  Q 64.75 56 71.09375 56  Q 79.640625 56 84.28125 50.015625  Q 88.921875 44.046875 88.921875 33.015625  L 88.921875 0  L 79.890625 0  L 79.890625 32.71875  Q 79.890625 40.578125 77.09375 44.375  Q 74.3125 48.1875 68.609375 48.1875  Q 61.625 48.1875 57.5625 43.546875  Q 53.515625 38.921875 53.515625 30.90625  L 53.515625 0  L 44.484375 0  L 44.484375 32.71875  Q 44.484375 40.625 41.703125 44.40625  Q 38.921875 48.1875 33.109375 48.1875  Q 26.21875 48.1875 22.15625 43.53125  Q 18.109375 38.875 18.109375 30.90625  L 18.109375 0  L 9.078125 0  L 9.078125 54.6875  L 18.109375 54.6875  L 18.109375 46.1875  Q 21.1875 51.21875 25.484375 53.609375  Q 29.78125 56 35.6875 56  Q 41.65625 56 45.828125 52.96875  Q 50 49.953125 52 44.1875  "
               id="BitstreamVeraSans-Roman-6d" />
            <path
               d="M 18.3125 70.21875  L 18.3125 54.6875  L 36.8125 54.6875  L 36.8125 47.703125  L 18.3125 47.703125  L 18.3125 18.015625  Q 18.3125 11.328125 20.140625 9.421875  Q 21.96875 7.515625 27.59375 7.515625  L 36.8125 7.515625  L 36.8125 0  L 27.59375 0  Q 17.1875 0 13.234375 3.875  Q 9.28125 7.765625 9.28125 18.015625  L 9.28125 47.703125  L 2.6875 47.703125  L 2.6875 54.6875  L 9.28125 54.6875  L 9.28125 70.21875  z "
               id="BitstreamVeraSans-Roman-74" />
            <path
               d="M 34.28125 27.484375  Q 23.390625 27.484375 19.1875 25  Q 14.984375 22.515625 14.984375 16.5  Q 14.984375 11.71875 18.140625 8.90625  Q 21.296875 6.109375 26.703125 6.109375  Q 34.1875 6.109375 38.703125 11.40625  Q 43.21875 16.703125 43.21875 25.484375  L 43.21875 27.484375  z M 52.203125 31.203125  L 52.203125 0  L 43.21875 0  L 43.21875 8.296875  Q 40.140625 3.328125 35.546875 0.953125  Q 30.953125 -1.421875 24.3125 -1.421875  Q 15.921875 -1.421875 10.953125 3.296875  Q 6 8.015625 6 15.921875  Q 6 25.140625 12.171875 29.828125  Q 18.359375 34.515625 30.609375 34.515625  L 43.21875 34.515625  L 43.21875 35.40625  Q 43.21875 41.609375 39.140625 45  Q 35.0625 48.390625 27.6875 48.390625  Q 23 48.390625 18.546875 47.265625  Q 14.109375 46.140625 10.015625 43.890625  L 10.015625 52.203125  Q 14.9375 54.109375 19.578125 55.046875  Q 24.21875 56 28.609375 56  Q 40.484375 56 46.34375 49.84375  Q 52.203125 43.703125 52.203125 31.203125  "
               id="BitstreamVeraSans-Roman-61" />
            <path
               d="M 44.28125 53.078125  L 44.28125 44.578125  Q 40.484375 46.53125 36.375 47.5  Q 32.28125 48.484375 27.875 48.484375  Q 21.1875 48.484375 17.84375 46.4375  Q 14.5 44.390625 14.5 40.28125  Q 14.5 37.15625 16.890625 35.375  Q 19.28125 33.59375 26.515625 31.984375  L 29.59375 31.296875  Q 39.15625 29.25 43.1875 25.515625  Q 47.21875 21.78125 47.21875 15.09375  Q 47.21875 7.46875 41.1875 3.015625  Q 35.15625 -1.421875 24.609375 -1.421875  Q 20.21875 -1.421875 15.453125 -0.5625  Q 10.6875 0.296875 5.421875 2  L 5.421875 11.28125  Q 10.40625 8.6875 15.234375 7.390625  Q 20.0625 6.109375 24.8125 6.109375  Q 31.15625 6.109375 34.5625 8.28125  Q 37.984375 10.453125 37.984375 14.40625  Q 37.984375 18.0625 35.515625 20.015625  Q 33.0625 21.96875 24.703125 23.78125  L 21.578125 24.515625  Q 13.234375 26.265625 9.515625 29.90625  Q 5.8125 33.546875 5.8125 39.890625  Q 5.8125 47.609375 11.28125 51.796875  Q 16.75 56 26.8125 56  Q 31.78125 56 36.171875 55.265625  Q 40.578125 54.546875 44.28125 53.078125  "
               id="BitstreamVeraSans-Roman-73" />
          </defs>
          <g
             transform="translate(215.3684625 339.530595)scale(0.12 -0.12)"
             id="g21332">
            <use
               xlink:href="#BitstreamVeraSans-Roman-45"
               id="use21334" />
            <use
               x="63.18359375"
               xlink:href="#BitstreamVeraSans-Roman-61"
               id="use21336" />
            <use
               x="124.462890625"
               xlink:href="#BitstreamVeraSans-Roman-73"
               id="use21338" />
            <use
               x="176.5625"
               xlink:href="#BitstreamVeraSans-Roman-74"
               id="use21340" />
            <use
               x="215.771484375"
               xlink:href="#BitstreamVeraSans-Roman-20"
               id="use21342" />
            <use
               x="247.55859375"
               xlink:href="#BitstreamVeraSans-Roman-28"
               id="use21344" />
            <use
               x="286.572265625"
               xlink:href="#BitstreamVeraSans-Roman-6d"
               id="use21346" />
            <use
               x="383.984375"
               xlink:href="#BitstreamVeraSans-Roman-29"
               id="use21348" />
            <use
               x="422.998046875"
               xlink:href="#BitstreamVeraSans-Roman-20"
               id="use21350" />
          </g>
        </g>
      </g>
      <g
         id="matplotlib.axis_2">
        <g
           id="ytick_1">
          <g
             id="line2d_14">
            <defs
               id="defs21355">
              <path
                 d="M 0 0  L 4 0  "
                 id="m777943fb3d"
                 style="stroke:#000000;stroke-width:0.5;" />
            </defs>
            <g
               id="g21358">
              <use
                 style="stroke:#000000;stroke-width:0.5;"
                 x="58.449600000000004"
                 xlink:href="#m777943fb3d"
                 y="309.44846110576185"
                 id="use21360" />
            </g>
          </g>
          <g
             id="line2d_15">
            <defs
               id="defs21363">
              <path
                 d="M 0 0  L -4 0  "
                 id="me62dd4df3f"
                 style="stroke:#000000;stroke-width:0.5;" />
            </defs>
            <g
               id="g21366">
              <use
                 style="stroke:#000000;stroke-width:0.5;"
                 x="426.8592"
                 xlink:href="#me62dd4df3f"
                 y="309.44846110576185"
                 id="use21368" />
            </g>
          </g>
          <g
             id="text_11">
            <!-- −150 -->
            <g
               transform="translate(21.488975000000003 312.7597111057619)scale(0.12 -0.12)"
               id="g21371">
              <use
                 xlink:href="#BitstreamVeraSans-Roman-2212"
                 id="use21373" />
              <use
                 x="83.7890625"
                 xlink:href="#BitstreamVeraSans-Roman-31"
                 id="use21375" />
              <use
                 x="147.412109375"
                 xlink:href="#BitstreamVeraSans-Roman-35"
                 id="use21377" />
              <use
                 x="211.03515625"
                 xlink:href="#BitstreamVeraSans-Roman-30"
                 id="use21379" />
            </g>
          </g>
        </g>
        <g
           id="ytick_2">
          <g
             id="line2d_16">
            <g
               id="g21383">
              <use
                 style="stroke:#000000;stroke-width:0.5;"
                 x="58.449600000000004"
                 xlink:href="#m777943fb3d"
                 y="261.64425974943254"
                 id="use21385" />
            </g>
          </g>
          <g
             id="line2d_17">
            <g
               id="g21388">
              <use
                 style="stroke:#000000;stroke-width:0.5;"
                 x="426.8592"
                 xlink:href="#me62dd4df3f"
                 y="261.64425974943254"
                 id="use21390" />
            </g>
          </g>
          <g
             id="text_12">
            <!-- −100 -->
            <g
               transform="translate(21.488975000000003 264.9555097494325)scale(0.12 -0.12)"
               id="g21393">
              <use
                 xlink:href="#BitstreamVeraSans-Roman-2212"
                 id="use21395" />
              <use
                 x="83.7890625"
                 xlink:href="#BitstreamVeraSans-Roman-31"
                 id="use21397" />
              <use
                 x="147.412109375"
                 xlink:href="#BitstreamVeraSans-Roman-30"
                 id="use21399" />
              <use
                 x="211.03515625"
                 xlink:href="#BitstreamVeraSans-Roman-30"
                 id="use21401" />
            </g>
          </g>
        </g>
        <g
           id="ytick_3">
          <g
             id="line2d_18">
            <g
               id="g21405">
              <use
                 style="stroke:#000000;stroke-width:0.5;"
                 x="58.449600000000004"
                 xlink:href="#m777943fb3d"
                 y="213.8400583931032"
                 id="use21407" />
            </g>
          </g>
          <g
             id="line2d_19">
            <g
               id="g21410">
              <use
                 style="stroke:#000000;stroke-width:0.5;"
                 x="426.8592"
                 xlink:href="#me62dd4df3f"
                 y="213.8400583931032"
                 id="use21412" />
            </g>
          </g>
          <g
             id="text_13">
            <!-- −50 -->
            <g
               transform="translate(29.123975000000005 217.1513083931032)scale(0.12 -0.12)"
               id="g21415">
              <use
                 xlink:href="#BitstreamVeraSans-Roman-2212"
                 id="use21417" />
              <use
                 x="83.7890625"
                 xlink:href="#BitstreamVeraSans-Roman-35"
                 id="use21419" />
              <use
                 x="147.412109375"
                 xlink:href="#BitstreamVeraSans-Roman-30"
                 id="use21421" />
            </g>
          </g>
        </g>
        <g
           id="ytick_4">
          <g
             id="line2d_20">
            <g
               id="g21425">
              <use
                 style="stroke:#000000;stroke-width:0.5;"
                 x="58.449600000000004"
                 xlink:href="#m777943fb3d"
                 y="166.03585703677385"
                 id="use21427" />
            </g>
          </g>
          <g
             id="line2d_21">
            <g
               id="g21430">
              <use
                 style="stroke:#000000;stroke-width:0.5;"
                 x="426.8592"
                 xlink:href="#me62dd4df3f"
                 y="166.03585703677385"
                 id="use21432" />
            </g>
          </g>
          <g
             id="text_14">
            <!-- 0 -->
            <g
               transform="translate(46.814600000000006 169.34710703677385)scale(0.12 -0.12)"
               id="g21435">
              <use
                 xlink:href="#BitstreamVeraSans-Roman-30"
                 id="use21437" />
            </g>
          </g>
        </g>
        <g
           id="ytick_5">
          <g
             id="line2d_22">
            <g
               id="g21441">
              <use
                 style="stroke:#000000;stroke-width:0.5;"
                 x="58.449600000000004"
                 xlink:href="#m777943fb3d"
                 y="118.2316556804445"
                 id="use21443" />
            </g>
          </g>
          <g
             id="line2d_23">
            <g
               id="g21446">
              <use
                 style="stroke:#000000;stroke-width:0.5;"
                 x="426.8592"
                 xlink:href="#me62dd4df3f"
                 y="118.2316556804445"
                 id="use21448" />
            </g>
          </g>
          <g
             id="text_15">
            <!-- 50 -->
            <g
               transform="translate(39.17960000000001 121.5429056804445)scale(0.12 -0.12)"
               id="g21451">
              <use
                 xlink:href="#BitstreamVeraSans-Roman-35"
                 id="use21453" />
              <use
                 x="63.623046875"
                 xlink:href="#BitstreamVeraSans-Roman-30"
                 id="use21455" />
            </g>
          </g>
        </g>
        <g
           id="ytick_6">
          <g
             id="line2d_24">
            <g
               id="g21459">
              <use
                 style="stroke:#000000;stroke-width:0.5;"
                 x="58.449600000000004"
                 xlink:href="#m777943fb3d"
                 y="70.42745432411517"
                 id="use21461" />
            </g>
          </g>
          <g
             id="line2d_25">
            <g
               id="g21464">
              <use
                 style="stroke:#000000;stroke-width:0.5;"
                 x="426.8592"
                 xlink:href="#me62dd4df3f"
                 y="70.42745432411517"
                 id="use21466" />
            </g>
          </g>
          <g
             id="text_16">
            <!-- 100 -->
            <g
               transform="translate(31.544600000000006 73.73870432411513)scale(0.12 -0.12)"
               id="g21469">
              <use
                 xlink:href="#BitstreamVeraSans-Roman-31"
                 id="use21471" />
              <use
                 x="63.623046875"
                 xlink:href="#BitstreamVeraSans-Roman-30"
                 id="use21473" />
              <use
                 x="127.24609375"
                 xlink:href="#BitstreamVeraSans-Roman-30"
                 id="use21475" />
            </g>
          </g>
        </g>
        <g
           id="ytick_7">
          <g
             id="text_17">
            <!-- 150 -->
            <g
               transform="translate(31.544600000000006 25.934502967785818)scale(0.12 -0.12)"
               id="g21479">
              <use
                 xlink:href="#BitstreamVeraSans-Roman-31"
                 id="use21481" />
              <use
                 x="63.623046875"
                 xlink:href="#BitstreamVeraSans-Roman-35"
                 id="use21483" />
              <use
                 x="127.24609375"
                 xlink:href="#BitstreamVeraSans-Roman-30"
                 id="use21485" />
            </g>
          </g>
        </g>
        <g
           id="text_18">
          <!-- North (m)  -->
          <defs
             id="defs21488">
            <path
               d="M 9.8125 72.90625  L 23.09375 72.90625  L 55.421875 11.921875  L 55.421875 72.90625  L 64.984375 72.90625  L 64.984375 0  L 51.703125 0  L 19.390625 60.984375  L 19.390625 0  L 9.8125 0  z "
               id="BitstreamVeraSans-Roman-4e" />
            <path
               d="M 30.609375 48.390625  Q 23.390625 48.390625 19.1875 42.75  Q 14.984375 37.109375 14.984375 27.296875  Q 14.984375 17.484375 19.15625 11.84375  Q 23.34375 6.203125 30.609375 6.203125  Q 37.796875 6.203125 41.984375 11.859375  Q 46.1875 17.53125 46.1875 27.296875  Q 46.1875 37.015625 41.984375 42.703125  Q 37.796875 48.390625 30.609375 48.390625  M 30.609375 56  Q 42.328125 56 49.015625 48.375  Q 55.71875 40.765625 55.71875 27.296875  Q 55.71875 13.875 49.015625 6.21875  Q 42.328125 -1.421875 30.609375 -1.421875  Q 18.84375 -1.421875 12.171875 6.21875  Q 5.515625 13.875 5.515625 27.296875  Q 5.515625 40.765625 12.171875 48.375  Q 18.84375 56 30.609375 56  "
               id="BitstreamVeraSans-Roman-6f" />
            <path
               d="M 41.109375 46.296875  Q 39.59375 47.171875 37.8125 47.578125  Q 36.03125 48 33.890625 48  Q 26.265625 48 22.1875 43.046875  Q 18.109375 38.09375 18.109375 28.8125  L 18.109375 0  L 9.078125 0  L 9.078125 54.6875  L 18.109375 54.6875  L 18.109375 46.1875  Q 20.953125 51.171875 25.484375 53.578125  Q 30.03125 56 36.53125 56  Q 37.453125 56 38.578125 55.875  Q 39.703125 55.765625 41.0625 55.515625  z "
               id="BitstreamVeraSans-Roman-72" />
            <path
               d="M 54.890625 33.015625  L 54.890625 0  L 45.90625 0  L 45.90625 32.71875  Q 45.90625 40.484375 42.875 44.328125  Q 39.84375 48.1875 33.796875 48.1875  Q 26.515625 48.1875 22.3125 43.546875  Q 18.109375 38.921875 18.109375 30.90625  L 18.109375 0  L 9.078125 0  L 9.078125 75.984375  L 18.109375 75.984375  L 18.109375 46.1875  Q 21.34375 51.125 25.703125 53.5625  Q 30.078125 56 35.796875 56  Q 45.21875 56 50.046875 50.171875  Q 54.890625 44.34375 54.890625 33.015625  "
               id="BitstreamVeraSans-Roman-68" />
          </defs>
          <g
             transform="translate(13.993350000000001 197.34621)rotate(-90.0)scale(0.12 -0.12)"
             id="g21494">
            <use
               xlink:href="#BitstreamVeraSans-Roman-4e"
               id="use21496" />
            <use
               x="74.8046875"
               xlink:href="#BitstreamVeraSans-Roman-6f"
               id="use21498" />
            <use
               x="135.986328125"
               xlink:href="#BitstreamVeraSans-Roman-72"
               id="use21500" />
            <use
               x="177.099609375"
               xlink:href="#BitstreamVeraSans-Roman-74"
               id="use21502" />
            <use
               x="216.30859375"
               xlink:href="#BitstreamVeraSans-Roman-68"
               id="use21504" />
            <use
               x="279.6875"
               xlink:href="#BitstreamVeraSans-Roman-20"
               id="use21506" />
            <use
               x="311.474609375"
               xlink:href="#BitstreamVeraSans-Roman-28"
               id="use21508" />
            <use
               x="350.48828125"
               xlink:href="#BitstreamVeraSans-Roman-6d"
               id="use21510" />
            <use
               x="447.900390625"
               xlink:href="#BitstreamVeraSans-Roman-29"
               id="use21512" />
            <use
               x="486.9140625"
               xlink:href="#BitstreamVeraSans-Roman-20"
               id="use21514" />
          </g>
        </g>
      </g>
      <g
         id="text_19">
        <!-- Handoff Position w.r.t. Target -->
        <defs
           id="defs21517">
          <path
             d="M 10.6875 12.40625  L 21 12.40625  L 21 0  L 10.6875 0  z "
             id="BitstreamVeraSans-Roman-2e" />
          <path
             d="M 54.890625 33.015625  L 54.890625 0  L 45.90625 0  L 45.90625 32.71875  Q 45.90625 40.484375 42.875 44.328125  Q 39.84375 48.1875 33.796875 48.1875  Q 26.515625 48.1875 22.3125 43.546875  Q 18.109375 38.921875 18.109375 30.90625  L 18.109375 0  L 9.078125 0  L 9.078125 54.6875  L 18.109375 54.6875  L 18.109375 46.1875  Q 21.34375 51.125 25.703125 53.5625  Q 30.078125 56 35.796875 56  Q 45.21875 56 50.046875 50.171875  Q 54.890625 44.34375 54.890625 33.015625  "
             id="BitstreamVeraSans-Roman-6e" />
          <path
             d="M 19.671875 64.796875  L 19.671875 37.40625  L 32.078125 37.40625  Q 38.96875 37.40625 42.71875 40.96875  Q 46.484375 44.53125 46.484375 51.125  Q 46.484375 57.671875 42.71875 61.234375  Q 38.96875 64.796875 32.078125 64.796875  z M 9.8125 72.90625  L 32.078125 72.90625  Q 44.34375 72.90625 50.609375 67.359375  Q 56.890625 61.8125 56.890625 51.125  Q 56.890625 40.328125 50.609375 34.8125  Q 44.34375 29.296875 32.078125 29.296875  L 19.671875 29.296875  L 19.671875 0  L 9.8125 0  z "
             id="BitstreamVeraSans-Roman-50" />
          <path
             d="M 9.421875 54.6875  L 18.40625 54.6875  L 18.40625 0  L 9.421875 0  z M 9.421875 75.984375  L 18.40625 75.984375  L 18.40625 64.59375  L 9.421875 64.59375  z "
             id="BitstreamVeraSans-Roman-69" />
          <path
             d="M 4.203125 54.6875  L 13.1875 54.6875  L 24.421875 12.015625  L 35.59375 54.6875  L 46.1875 54.6875  L 57.421875 12.015625  L 68.609375 54.6875  L 77.59375 54.6875  L 63.28125 0  L 52.6875 0  L 40.921875 44.828125  L 29.109375 0  L 18.5 0  z "
             id="BitstreamVeraSans-Roman-77" />
          <path
             d="M 56.203125 29.59375  L 56.203125 25.203125  L 14.890625 25.203125  Q 15.484375 15.921875 20.484375 11.0625  Q 25.484375 6.203125 34.421875 6.203125  Q 39.59375 6.203125 44.453125 7.46875  Q 49.3125 8.734375 54.109375 11.28125  L 54.109375 2.78125  Q 49.265625 0.734375 44.1875 -0.34375  Q 39.109375 -1.421875 33.890625 -1.421875  Q 20.796875 -1.421875 13.15625 6.1875  Q 5.515625 13.8125 5.515625 26.8125  Q 5.515625 40.234375 12.765625 48.109375  Q 20.015625 56 32.328125 56  Q 43.359375 56 49.78125 48.890625  Q 56.203125 41.796875 56.203125 29.59375  M 47.21875 32.234375  Q 47.125 39.59375 43.09375 43.984375  Q 39.0625 48.390625 32.421875 48.390625  Q 24.90625 48.390625 20.390625 44.140625  Q 15.875 39.890625 15.1875 32.171875  z "
             id="BitstreamVeraSans-Roman-65" />
          <path
             d="M 45.40625 46.390625  L 45.40625 75.984375  L 54.390625 75.984375  L 54.390625 0  L 45.40625 0  L 45.40625 8.203125  Q 42.578125 3.328125 38.25 0.953125  Q 33.9375 -1.421875 27.875 -1.421875  Q 17.96875 -1.421875 11.734375 6.484375  Q 5.515625 14.40625 5.515625 27.296875  Q 5.515625 40.1875 11.734375 48.09375  Q 17.96875 56 27.875 56  Q 33.9375 56 38.25 53.625  Q 42.578125 51.265625 45.40625 46.390625  M 14.796875 27.296875  Q 14.796875 17.390625 18.875 11.75  Q 22.953125 6.109375 30.078125 6.109375  Q 37.203125 6.109375 41.296875 11.75  Q 45.40625 17.390625 45.40625 27.296875  Q 45.40625 37.203125 41.296875 42.84375  Q 37.203125 48.484375 30.078125 48.484375  Q 22.953125 48.484375 18.875 42.84375  Q 14.796875 37.203125 14.796875 27.296875  "
             id="BitstreamVeraSans-Roman-64" />
          <path
             d="M 45.40625 27.984375  Q 45.40625 37.75 41.375 43.109375  Q 37.359375 48.484375 30.078125 48.484375  Q 22.859375 48.484375 18.828125 43.109375  Q 14.796875 37.75 14.796875 27.984375  Q 14.796875 18.265625 18.828125 12.890625  Q 22.859375 7.515625 30.078125 7.515625  Q 37.359375 7.515625 41.375 12.890625  Q 45.40625 18.265625 45.40625 27.984375  M 54.390625 6.78125  Q 54.390625 -7.171875 48.1875 -13.984375  Q 42 -20.796875 29.203125 -20.796875  Q 24.46875 -20.796875 20.265625 -20.09375  Q 16.0625 -19.390625 12.109375 -17.921875  L 12.109375 -9.1875  Q 16.0625 -11.328125 19.921875 -12.34375  Q 23.78125 -13.375 27.78125 -13.375  Q 36.625 -13.375 41.015625 -8.765625  Q 45.40625 -4.15625 45.40625 5.171875  L 45.40625 9.625  Q 42.625 4.78125 38.28125 2.390625  Q 33.9375 0 27.875 0  Q 17.828125 0 11.671875 7.65625  Q 5.515625 15.328125 5.515625 27.984375  Q 5.515625 40.671875 11.671875 48.328125  Q 17.828125 56 27.875 56  Q 33.9375 56 38.28125 53.609375  Q 42.625 51.21875 45.40625 46.390625  L 45.40625 54.6875  L 54.390625 54.6875  z "
             id="BitstreamVeraSans-Roman-67" />
          <path
             d="M 37.109375 75.984375  L 37.109375 68.5  L 28.515625 68.5  Q 23.6875 68.5 21.796875 66.546875  Q 19.921875 64.59375 19.921875 59.515625  L 19.921875 54.6875  L 34.71875 54.6875  L 34.71875 47.703125  L 19.921875 47.703125  L 19.921875 0  L 10.890625 0  L 10.890625 47.703125  L 2.296875 47.703125  L 2.296875 54.6875  L 10.890625 54.6875  L 10.890625 58.5  Q 10.890625 67.625 15.140625 71.796875  Q 19.390625 75.984375 28.609375 75.984375  z "
             id="BitstreamVeraSans-Roman-66" />
          <path
             d="M -0.296875 72.90625  L 61.375 72.90625  L 61.375 64.59375  L 35.5 64.59375  L 35.5 0  L 25.59375 0  L 25.59375 64.59375  L -0.296875 64.59375  z "
             id="BitstreamVeraSans-Roman-54" />
          <path
             d="M 9.8125 72.90625  L 19.671875 72.90625  L 19.671875 43.015625  L 55.515625 43.015625  L 55.515625 72.90625  L 65.375 72.90625  L 65.375 0  L 55.515625 0  L 55.515625 34.71875  L 19.671875 34.71875  L 19.671875 0  L 9.8125 0  z "
             id="BitstreamVeraSans-Roman-48" />
        </defs>
        <g
           transform="translate(136.97865 17.65119999999996)scale(0.144 -0.144)"
           id="g21530">
          <use
             xlink:href="#BitstreamVeraSans-Roman-48"
             id="use21532" />
          <use
             x="75.1953125"
             xlink:href="#BitstreamVeraSans-Roman-61"
             id="use21534" />
          <use
             x="136.474609375"
             xlink:href="#BitstreamVeraSans-Roman-6e"
             id="use21536" />
          <use
             x="199.853515625"
             xlink:href="#BitstreamVeraSans-Roman-64"
             id="use21538" />
          <use
             x="263.330078125"
             xlink:href="#BitstreamVeraSans-Roman-6f"
             id="use21540" />
          <use
             x="324.51171875"
             xlink:href="#BitstreamVeraSans-Roman-66"
             id="use21542" />
          <use
             x="359.716796875"
             xlink:href="#BitstreamVeraSans-Roman-66"
             id="use21544" />
          <use
             x="394.921875"
             xlink:href="#BitstreamVeraSans-Roman-20"
             id="use21546" />
          <use
             x="426.708984375"
             xlink:href="#BitstreamVeraSans-Roman-50"
             id="use21548" />
          <use
             x="486.96484375"
             xlink:href="#BitstreamVeraSans-Roman-6f"
             id="use21550" />
          <use
             x="548.146484375"
             xlink:href="#BitstreamVeraSans-Roman-73"
             id="use21552" />
          <use
             x="600.24609375"
             xlink:href="#BitstreamVeraSans-Roman-69"
             id="use21554" />
          <use
             x="628.029296875"
             xlink:href="#BitstreamVeraSans-Roman-74"
             id="use21556" />
          <use
             x="667.23828125"
             xlink:href="#BitstreamVeraSans-Roman-69"
             id="use21558" />
          <use
             x="695.021484375"
             xlink:href="#BitstreamVeraSans-Roman-6f"
             id="use21560" />
          <use
             x="756.203125"
             xlink:href="#BitstreamVeraSans-Roman-6e"
             id="use21562" />
          <use
             x="819.58203125"
             xlink:href="#BitstreamVeraSans-Roman-20"
             id="use21564" />
          <use
             x="851.369140625"
             xlink:href="#BitstreamVeraSans-Roman-77"
             id="use21566" />
          <use
             x="933.015625"
             xlink:href="#BitstreamVeraSans-Roman-2e"
             id="use21568" />
          <use
             x="964.802734375"
             xlink:href="#BitstreamVeraSans-Roman-72"
             id="use21570" />
          <use
             x="1005.77539062"
             xlink:href="#BitstreamVeraSans-Roman-2e"
             id="use21572" />
          <use
             x="1037.5625"
             xlink:href="#BitstreamVeraSans-Roman-74"
             id="use21574" />
          <use
             x="1076.77148438"
             xlink:href="#BitstreamVeraSans-Roman-2e"
             id="use21576" />
          <use
             x="1108.55859375"
             xlink:href="#BitstreamVeraSans-Roman-20"
             id="use21578" />
          <use
             x="1140.34570312"
             xlink:href="#BitstreamVeraSans-Roman-54"
             id="use21580" />
          <use
             x="1201.1796875"
             xlink:href="#BitstreamVeraSans-Roman-61"
             id="use21582" />
          <use
             x="1262.45898438"
             xlink:href="#BitstreamVeraSans-Roman-72"
             id="use21584" />
          <use
             x="1303.55664062"
             xlink:href="#BitstreamVeraSans-Roman-67"
             id="use21586" />
          <use
             x="1367.03320312"
             xlink:href="#BitstreamVeraSans-Roman-65"
             id="use21588" />
          <use
             x="1428.55664062"
             xlink:href="#BitstreamVeraSans-Roman-74"
             id="use21590" />
        </g>
      </g>
      <g
         id="legend_1">
        <g
           id="patch_7">
          <path
             d="M 310.5792 76.263508  L 419.2902 76.263508  L 419.2902 29.670508  L 310.5792 29.670508  z "
             style="fill:#ffffff;stroke:#000000;stroke-linejoin:miter;"
             id="path21594" />
        </g>
        <g
           id="line2d_26">
          <path
             d="M 320.6592 41.332258  L 340.8192 41.332258  "
             style="fill:none;stroke:#b40000;stroke-linecap:square;"
             id="path21597" />
        </g>
        <g
           id="line2d_27" />
        <g
           id="text_20">
          <!-- Handoff -->
          <g
             transform="translate(356.65919999999994 46.3722576923077)scale(0.144 -0.144)"
             id="g21601">
            <use
               xlink:href="#BitstreamVeraSans-Roman-48"
               id="use21603" />
            <use
               x="75.1953125"
               xlink:href="#BitstreamVeraSans-Roman-61"
               id="use21605" />
            <use
               x="136.474609375"
               xlink:href="#BitstreamVeraSans-Roman-6e"
               id="use21607" />
            <use
               x="199.853515625"
               xlink:href="#BitstreamVeraSans-Roman-64"
               id="use21609" />
            <use
               x="263.330078125"
               xlink:href="#BitstreamVeraSans-Roman-6f"
               id="use21611" />
            <use
               x="324.51171875"
               xlink:href="#BitstreamVeraSans-Roman-66"
               id="use21613" />
            <use
               x="359.716796875"
               xlink:href="#BitstreamVeraSans-Roman-66"
               id="use21615" />
          </g>
        </g>
        <g
           id="line2d_28">
          <path
             d="M 320.6592 62.468758  L 340.8192 62.468758  "
             style="fill:none;stroke:#0048b4;stroke-linecap:square;"
             id="path21618" />
        </g>
        <g
           id="line2d_29" />
        <g
           id="text_21">
          <!-- Target -->
          <g
             transform="translate(356.65919999999994 67.50875769230771)scale(0.144 -0.144)"
             id="g21622">
            <use
               xlink:href="#BitstreamVeraSans-Roman-54"
               id="use21624" />
            <use
               x="60.833984375"
               xlink:href="#BitstreamVeraSans-Roman-61"
               id="use21626" />
            <use
               x="122.11328125"
               xlink:href="#BitstreamVeraSans-Roman-72"
               id="use21628" />
            <use
               x="163.2109375"
               xlink:href="#BitstreamVeraSans-Roman-67"
               id="use21630" />
            <use
               x="226.6875"
               xlink:href="#BitstreamVeraSans-Roman-65"
               id="use21632" />
            <use
               x="288.2109375"
               xlink:href="#BitstreamVeraSans-Roman-74"
               id="use21634" />
          </g>
        </g>
      </g>
    </g>
  </g>
  <defs
     id="defs21636">
    <clipPath
       id="p402ca791ef">
      <rect
         height="287.14752000000004"
         width="368.40959999999995"
         x="58.449600000000004"
         y="22.65119999999996"
         id="rect21639" />
    </clipPath>
  </defs>
</svg>
