<?xml version="1.0" encoding="UTF-8" standalone="no"?>
<!-- Created with Inkscape (http://www.inkscape.org/) -->

<svg
   xmlns:dc="http://purl.org/dc/elements/1.1/"
   xmlns:cc="http://creativecommons.org/ns#"
   xmlns:rdf="http://www.w3.org/1999/02/22-rdf-syntax-ns#"
   xmlns:svg="http://www.w3.org/2000/svg"
   xmlns="http://www.w3.org/2000/svg"
   xmlns:sodipodi="http://sodipodi.sourceforge.net/DTD/sodipodi-0.dtd"
   xmlns:inkscape="http://www.inkscape.org/namespaces/inkscape"
   sodipodi:docname="target_vel_vectors.svg"
   inkscape:version="0.91 r13725"
   version="1.1"
   id="svg2"
   viewBox="0 0 744.09448819 1052.3622047"
   height="297mm"
   width="210mm"
   inkscape:export-filename="/home/skyler/my_papers/handoff_paper/figures/target_vel_vectors.png"
   inkscape:export-xdpi="300"
   inkscape:export-ydpi="300">
  <sodipodi:namedview
     inkscape:window-maximized="1"
     inkscape:window-y="21"
     inkscape:window-x="57"
     inkscape:window-height="1059"
     inkscape:window-width="1863"
     inkscape:snap-bbox-midpoints="true"
     inkscape:snap-bbox="true"
     inkscape:snap-global="true"
     showgrid="false"
     inkscape:current-layer="layer1"
     inkscape:document-units="px"
     inkscape:cy="651.47483"
     inkscape:cx="254.01091"
     inkscape:zoom="1.979899"
     inkscape:pageshadow="2"
     inkscape:pageopacity="0.0"
     borderopacity="1.0"
     bordercolor="#666666"
     pagecolor="#ffffff"
     id="base" />
  <defs
     id="defs4">
    <marker
       inkscape:stockid="Arrow1Mstart"
       orient="auto"
       refY="0.0"
       refX="0.0"
       id="marker56770"
       style="overflow:visible"
       inkscape:isstock="true">
      <path
         id="path56772"
         d="M 0.0,0.0 L 5.0,-5.0 L -12.5,0.0 L 5.0,5.0 L 0.0,0.0 z "
         style="fill-rule:evenodd;stroke:#000000;stroke-width:1pt;stroke-opacity:1;fill:#000000;fill-opacity:1"
         transform="scale(0.4) translate(10,0)" />
    </marker>
    <marker
       inkscape:stockid="Arrow1Mstart"
       orient="auto"
       refY="0.0"
       refX="0.0"
       id="Arrow1Mstart"
       style="overflow:visible"
       inkscape:isstock="true">
      <path
         id="path4450"
         d="M 0.0,0.0 L 5.0,-5.0 L -12.5,0.0 L 5.0,5.0 L 0.0,0.0 z "
         style="fill-rule:evenodd;stroke:#000000;stroke-width:1pt;stroke-opacity:1;fill:#000000;fill-opacity:1"
         transform="scale(0.4) translate(10,0)" />
    </marker>
    <marker
       inkscape:isstock="true"
       style="overflow:visible;"
       id="Arrow1Mend"
       refX="0.0"
       refY="0.0"
       orient="auto"
       inkscape:stockid="Arrow1Mend">
      <path
         transform="scale(0.4) rotate(180) translate(10,0)"
         style="fill-rule:evenodd;stroke:#000000;stroke-width:1pt;stroke-opacity:1;fill:#000000;fill-opacity:1"
         d="M 0.0,0.0 L 5.0,-5.0 L -12.5,0.0 L 5.0,5.0 L 0.0,0.0 z "
         id="path4453" />
    </marker>
    <marker
       inkscape:stockid="Arrow1Lend"
       orient="auto"
       refY="0"
       refX="0"
       id="marker52626"
       style="overflow:visible"
       inkscape:isstock="true">
      <path
         id="path52628"
         d="M 0,0 5,-5 -12.5,0 5,5 0,0 Z"
         style="fill:#000000;fill-opacity:1;fill-rule:evenodd;stroke:#000000;stroke-width:1pt;stroke-opacity:1"
         transform="matrix(-0.8,0,0,-0.8,-10,0)"
         inkscape:connector-curvature="0" />
    </marker>
    <marker
       inkscape:isstock="true"
       style="overflow:visible"
       id="Arrow1Lstart"
       refX="0.0"
       refY="0.0"
       orient="auto"
       inkscape:stockid="Arrow1Lstart">
      <path
         transform="scale(0.8) translate(12.5,0)"
         style="fill-rule:evenodd;stroke:#000000;stroke-width:1.0pt"
         d="M 0.0,0.0 L 5.0,-5.0 L -12.5,0.0 L 5.0,5.0 L 0.0,0.0 z "
         id="path4444" />
    </marker>
    <marker
       inkscape:stockid="Arrow1Lstart"
       orient="auto"
       refY="0.0"
       refX="0.0"
       id="marker49697"
       style="overflow:visible"
       inkscape:isstock="true">
      <path
         id="path49699"
         d="M 0.0,0.0 L 5.0,-5.0 L -12.5,0.0 L 5.0,5.0 L 0.0,0.0 z "
         style="fill-rule:evenodd;stroke:#000000;stroke-width:1pt;stroke-opacity:1;fill:#000000;fill-opacity:1"
         transform="scale(0.8) translate(12.5,0)" />
    </marker>
    <marker
       inkscape:stockid="Arrow1Lstart"
       orient="auto"
       refY="0.0"
       refX="0.0"
       id="marker44924"
       style="overflow:visible"
       inkscape:isstock="true">
      <path
         id="path44926"
         d="M 0.0,0.0 L 5.0,-5.0 L -12.5,0.0 L 5.0,5.0 L 0.0,0.0 z "
         style="fill-rule:evenodd;stroke:#000000;stroke-width:1pt;stroke-opacity:1;fill:#000000;fill-opacity:1"
         transform="scale(0.8) translate(12.5,0)" />
    </marker>
    <marker
       inkscape:stockid="Arrow1Lend"
       orient="auto"
       refY="0"
       refX="0"
       id="marker38683"
       style="overflow:visible"
       inkscape:isstock="true">
      <path
         id="path38685"
         d="M 0,0 5,-5 -12.5,0 5,5 0,0 Z"
         style="fill:#000000;fill-opacity:1;fill-rule:evenodd;stroke:#000000;stroke-width:1pt;stroke-opacity:1"
         transform="matrix(-0.8,0,0,-0.8,-10,0)"
         inkscape:connector-curvature="0" />
    </marker>
    <marker
       inkscape:collect="always"
       inkscape:isstock="true"
       style="overflow:visible"
       id="marker33222"
       refX="0"
       refY="0"
       orient="auto"
       inkscape:stockid="Arrow1Lend">
      <path
         inkscape:connector-curvature="0"
         transform="matrix(-0.8,0,0,-0.8,-10,0)"
         style="fill:#000000;fill-opacity:1;fill-rule:evenodd;stroke:#000000;stroke-width:1pt;stroke-opacity:1"
         d="M 0,0 5,-5 -12.5,0 5,5 0,0 Z"
         id="path33224" />
    </marker>
    <marker
       inkscape:isstock="true"
       style="overflow:visible"
       id="marker29581"
       refX="0"
       refY="0"
       orient="auto"
       inkscape:stockid="Arrow1Lend">
      <path
         inkscape:connector-curvature="0"
         transform="matrix(-0.8,0,0,-0.8,-10,0)"
         style="fill:#000000;fill-opacity:1;fill-rule:evenodd;stroke:#000000;stroke-width:1pt;stroke-opacity:1"
         d="M 0,0 5,-5 -12.5,0 5,5 0,0 Z"
         id="path29583" />
    </marker>
    <marker
       inkscape:stockid="Arrow1Lstart"
       orient="auto"
       refY="0.0"
       refX="0.0"
       id="marker28298"
       style="overflow:visible"
       inkscape:isstock="true">
      <path
         id="path28300"
         d="M 0.0,0.0 L 5.0,-5.0 L -12.5,0.0 L 5.0,5.0 L 0.0,0.0 z "
         style="fill-rule:evenodd;stroke:#000000;stroke-width:1pt;stroke-opacity:1;fill:#000000;fill-opacity:1"
         transform="scale(0.8) translate(12.5,0)" />
    </marker>
    <marker
       inkscape:stockid="Arrow1Lend"
       orient="auto"
       refY="0.0"
       refX="0.0"
       id="marker28177"
       style="overflow:visible;"
       inkscape:isstock="true">
      <path
         id="path28179"
         d="M 0.0,0.0 L 5.0,-5.0 L -12.5,0.0 L 5.0,5.0 L 0.0,0.0 z "
         style="fill-rule:evenodd;stroke:#000000;stroke-width:1pt;stroke-opacity:1;fill:#000000;fill-opacity:1"
         transform="scale(0.8) rotate(180) translate(12.5,0)" />
    </marker>
    <marker
       style="overflow:visible"
       id="marker6586"
       refX="0.0"
       refY="0.0"
       orient="auto"
       inkscape:stockid="DistanceStart"
       inkscape:isstock="true">
      <g
         id="g6588"
         style="stroke:#000000;stroke-opacity:1;fill:#000000;fill-opacity:1">
        <path
           style="fill:#000000;stroke:#000000;stroke-width:1.15;stroke-linecap:square;stroke-opacity:1;fill-opacity:1"
           d="M 0,0 L 2,0"
           id="path6590" />
        <path
           style="fill:#000000;fill-rule:evenodd;stroke:#000000;stroke-opacity:1;fill-opacity:1"
           d="M 0,0 L 13,4 L 9,0 13,-4 L 0,0 z "
           id="path6592" />
        <path
           style="fill:#000000;stroke:#000000;stroke-width:1;stroke-linecap:square;stroke-opacity:1;fill-opacity:1"
           d="M 0,-4 L 0,40"
           id="path6594" />
      </g>
    </marker>
    <marker
       inkscape:stockid="Arrow2Sstart"
       orient="auto"
       refY="0.0"
       refX="0.0"
       id="Arrow2Sstart"
       style="overflow:visible"
       inkscape:isstock="true">
      <path
         id="path5127"
         style="fill-rule:evenodd;stroke-width:0.625;stroke-linejoin:round;stroke:#000000;stroke-opacity:1;fill:#000000;fill-opacity:1"
         d="M 8.7185878,4.0337352 L -2.2072895,0.016013256 L 8.7185884,-4.0017078 C 6.9730900,-1.6296469 6.9831476,1.6157441 8.7185878,4.0337352 z "
         transform="scale(0.3) translate(-2.3,0)" />
    </marker>
    <marker
       style="overflow:visible"
       id="DistanceEnd"
       refX="0.0"
       refY="0.0"
       orient="auto"
       inkscape:stockid="DistanceEnd"
       inkscape:isstock="true">
      <g
         id="g2301"
         style="stroke:#000000;stroke-opacity:1;fill:#000000;fill-opacity:1">
        <path
           style="fill:#000000;stroke:#000000;stroke-width:1.15;stroke-linecap:square;stroke-opacity:1;fill-opacity:1"
           d="M 0,0 L -2,0"
           id="path2316" />
        <path
           style="fill:#000000;fill-rule:evenodd;stroke:#000000;stroke-opacity:1;fill-opacity:1"
           d="M 0,0 L -13,4 L -9,0 -13,-4 L 0,0 z "
           id="path2312" />
        <path
           style="fill:#000000;stroke:#000000;stroke-width:1;stroke-linecap:square;stroke-opacity:1;fill-opacity:1"
           d="M 0,-4 L 0,40"
           id="path2314" />
      </g>
    </marker>
    <marker
       style="overflow:visible"
       id="DistanceStart"
       refX="0.0"
       refY="0.0"
       orient="auto"
       inkscape:stockid="DistanceStart"
       inkscape:isstock="true">
      <g
         id="g2300"
         style="stroke:#000000;stroke-opacity:1;fill:#000000;fill-opacity:1">
        <path
           style="fill:#000000;stroke:#000000;stroke-width:1.15;stroke-linecap:square;stroke-opacity:1;fill-opacity:1"
           d="M 0,0 L 2,0"
           id="path2306" />
        <path
           style="fill:#000000;fill-rule:evenodd;stroke:#000000;stroke-opacity:1;fill-opacity:1"
           d="M 0,0 L 13,4 L 9,0 13,-4 L 0,0 z "
           id="path2302" />
        <path
           style="fill:#000000;stroke:#000000;stroke-width:1;stroke-linecap:square;stroke-opacity:1;fill-opacity:1"
           d="M 0,-4 L 0,40"
           id="path2304" />
      </g>
    </marker>
    <marker
       inkscape:isstock="true"
       style="overflow:visible;"
       id="Arrow1Lend"
       refX="0.0"
       refY="0.0"
       orient="auto"
       inkscape:stockid="Arrow1Lend">
      <path
         transform="scale(0.8) rotate(180) translate(12.5,0)"
         style="fill-rule:evenodd;stroke:#000000;stroke-width:1pt;stroke-opacity:1;fill:#000000;fill-opacity:1"
         d="M 0.0,0.0 L 5.0,-5.0 L -12.5,0.0 L 5.0,5.0 L 0.0,0.0 z "
         id="path5100" />
    </marker>
    <marker
       inkscape:isstock="true"
       style="overflow:visible;"
       id="marker8535"
       refX="0.0"
       refY="0.0"
       orient="auto"
       inkscape:stockid="Arrow1Lend">
      <path
         transform="scale(0.8) rotate(180) translate(12.5,0)"
         style="fill-rule:evenodd;stroke:#00a41a;stroke-width:1pt;stroke-opacity:1;fill:#00a41a;fill-opacity:1"
         d="M 0.0,0.0 L 5.0,-5.0 L -12.5,0.0 L 5.0,5.0 L 0.0,0.0 z "
         id="path8537" />
    </marker>
    <marker
       inkscape:stockid="Arrow1Lend"
       orient="auto"
       refY="0"
       refX="0"
       id="Arrow1Lend-6"
       style="overflow:visible"
       inkscape:isstock="true">
      <path
         inkscape:connector-curvature="0"
         id="path4145-7"
         d="M 0,0 5,-5 -12.5,0 5,5 0,0 Z"
         style="fill:#000300;fill-opacity:1;fill-rule:evenodd;stroke:#000300;stroke-width:1pt;stroke-opacity:1"
         transform="matrix(-0.8,0,0,-0.8,-10,0)" />
    </marker>
    <marker
       inkscape:stockid="Arrow1Lend"
       orient="auto"
       refY="0"
       refX="0"
       id="Arrow1Lend-3"
       style="overflow:visible"
       inkscape:isstock="true">
      <path
         inkscape:connector-curvature="0"
         id="path4145-5"
         d="M 0,0 5,-5 -12.5,0 5,5 0,0 Z"
         style="fill:#000000;fill-opacity:1;fill-rule:evenodd;stroke:#000000;stroke-width:1pt;stroke-opacity:1"
         transform="matrix(-0.8,0,0,-0.8,-10,0)" />
    </marker>
  </defs>
  <metadata
     id="metadata7">
    <rdf:RDF>
      <cc:Work
         rdf:about="">
        <dc:format>image/svg+xml</dc:format>
        <dc:type
           rdf:resource="http://purl.org/dc/dcmitype/StillImage" />
        <dc:title></dc:title>
      </cc:Work>
    </rdf:RDF>
  </metadata>
  <g
     inkscape:label="Layer 1"
     inkscape:groupmode="layer"
     id="layer1">
    <g
       id="g54916"
       transform="matrix(0.40521746,0,0,0.40521746,206.60706,375.80054)"
       style="font-style:normal;font-variant:normal;font-weight:normal;font-stretch:normal;letter-spacing:normal;word-spacing:normal;text-anchor:start;fill:#000000;fill-opacity:1;fill-rule:evenodd;stroke:#ff0000;stroke-linecap:butt;stroke-linejoin:miter;stroke-miterlimit:10.43299961;stroke-dasharray:none;stroke-dashoffset:0;stroke-opacity:1">
      <g
         word-spacing="normal"
         letter-spacing="normal"
         font-size-adjust="none"
         font-stretch="normal"
         font-weight="normal"
         font-variant="normal"
         font-style="normal"
         stroke-miterlimit="10.433"
         xml:space="preserve"
         transform="matrix(1.0629921,0,0,-1.0629921,-186.02362,789.27165)"
         id="g54918"
         style="font-style:normal;font-variant:normal;font-weight:normal;font-stretch:normal;letter-spacing:normal;word-spacing:normal;text-anchor:start;fill:#000000;fill-opacity:1;fill-rule:evenodd;stroke:#ff0000;stroke-linecap:butt;stroke-linejoin:miter;stroke-miterlimit:10.43299961;stroke-dasharray:none;stroke-dashoffset:0;stroke-opacity:1"><path
           id="path54920"
           d="m 492.39,436.93 0.06,0.12 0.06,0.12 0.03,0.05 0.03,0.06 0.04,0.05 0.04,0.05 0.05,0.05 0.05,0.05 0.06,0.04 0.06,0.05 0.07,0.04 0.08,0.04 0.09,0.04 0.09,0.04 0.11,0.03 0.12,0.03 0.12,0.04 0.14,0.02 0.08,0.02 0.07,0.01 0.09,0.01 0.08,0.02 0.09,0.01 0.09,0.01 0.09,0.01 0.1,0.01 0.1,0.01 0.11,0.01 0.11,0 0.11,0.01 0.12,0.01 0.12,0.01 0.13,0 0.13,0.01 0.13,0 0.14,0.01 0.15,0 0.15,0 0.15,0 0.16,0.01 0.16,0 0.17,0 0.95,0 0,2.34 c -1.89,-0.05 -4.28,-0.14 -5.64,-0.14 -1.98,0 -4.58,0 -6.51,0.14 l 0,-2.34 c 0.43,0 4.37,0 4.37,-0.6 0,-0.2 -0.14,-0.43 -0.19,-0.59 l -10.06,-22.67 -10.62,23.86 4.68,0 0,2.34 c -1.89,-0.14 -6.67,-0.14 -8.81,-0.14 -1.95,0 -6.12,0 -7.87,0.14 l 0,-2.34 4.57,0 13.75,-30.94 c 0.41,-0.89 0.61,-1.3 2,-1.3 0.8,0 1.44,0 1.99,1.21 z"
           inkscape:connector-curvature="0"
           style="fill:#000000;fill-opacity:1;stroke:#ff0000;stroke-width:0;stroke-opacity:1" /><path
           id="path54922"
           d="m 505.84,410.96 5.44,0 0,1.25 -5.44,0 0,6.41 -1.19,0 c -0.03,-3.12 -1.45,-6.58 -4.79,-6.69 l 0,-0.97 3.23,0 0,-9.4 c 0,-3.91 2.92,-4.7 4.87,-4.7 2.35,0 3.94,1.98 3.94,4.73 l 0,1.92 -1.19,0 0,-1.89 c 0,-2.36 -1.1,-3.66 -2.46,-3.66 -2.41,0 -2.41,2.93 -2.41,3.57 z"
           inkscape:connector-curvature="0"
           style="fill:#000000;fill-opacity:1;stroke:#ff0000;stroke-width:0;stroke-opacity:1" /><path
           id="path54924"
           d="m 519.45,403.4 0.05,-0.03 0.06,-0.03 0.06,-0.04 0.07,-0.03 0.06,-0.04 0.08,-0.04 0.08,-0.05 0.08,-0.04 0.08,-0.04 0.09,-0.05 0.1,-0.04 0.1,-0.05 0.1,-0.04 0.11,-0.05 0.11,-0.04 0.11,-0.04 0.13,-0.05 0.12,-0.04 0.13,-0.04 0.13,-0.04 0.14,-0.03 0.14,-0.04 0.15,-0.03 0.15,-0.03 0.16,-0.03 0.16,-0.02 0.16,-0.02 0.17,-0.02 0.17,-0.02 0.18,-0.01 0.18,0 0.19,-0.01 c 3.59,0 6.2,2.41 6.2,5.13 0,1.36 -0.62,2.44 -1.47,3.34 1.58,1.11 2.94,1.14 3.54,1.14 -0.14,-0.14 -0.32,-0.28 -0.32,-0.82 0,-0.71 0.52,-1.13 1.11,-1.13 0.49,0 1.11,0.36 1.11,1.16 0,0.79 -0.65,1.78 -2.04,1.78 -0.54,0 -2.41,-0.11 -4.05,-1.61 -1.05,0.76 -2.5,1.25 -4.05,1.25 l -0.03,-1.03 c 3.42,0 3.42,-3.36 3.42,-4.08 0,-0.56 0,-1.95 -0.7,-2.86 -0.49,-0.59 -1.42,-1.22 -2.69,-1.22 l 0,0 c -3.4,0 -3.4,3.34 -3.4,4.08 0,0.55 0,1.95 0.68,2.84 0.5,0.6 1.44,1.24 2.69,1.24 l 0.03,1.03 c -3.58,0 -6.2,-2.39 -6.2,-5.11 0,-1.36 0.7,-2.63 1.69,-3.53 -0.29,-0.31 -1.05,-1.46 -1.05,-2.81 0,-0.46 0.09,-2.1 1.45,-3.11 -1.56,-0.52 -3.37,-1.68 -3.37,-3.49 0,-2.55 3.82,-4.45 8.53,-4.45 l 0,1.05 c -3.66,0 -6.41,1.64 -6.41,3.45 0,1.22 1.11,2.7 3.35,2.75 l 2.01,0 c 3.11,0 7.47,0 7.47,-2.75 0,-1.86 -2.77,-3.45 -6.42,-3.45 l 0,-1.05 c 4.44,0 8.55,1.73 8.55,4.53 0,1.05 -0.43,2.92 -2.35,3.97 -2.05,1.08 -4.11,1.08 -7.48,1.08 -0.77,0 -2.03,0 -2.3,0.03 -1.13,0.25 -1.75,1.29 -1.75,2.31 0,0.86 0.25,1.14 0.45,1.42 z"
           inkscape:connector-curvature="0"
           style="fill:#000000;fill-opacity:1;stroke:#ff0000;stroke-width:0;stroke-opacity:1" /><path
           id="path54926"
           d="m 551.69,421.79 0.01,0.02 0.01,0.02 0.01,0.02 0.01,0.02 0.01,0.02 0,0.02 0.01,0.02 0.01,0.02 0.01,0.01 0.01,0.02 0.01,0.03 0.01,0.03 0.01,0.03 0.02,0.03 0.01,0.02 0,0.03 0.01,0.02 0.01,0.02 0.01,0.02 0,0.02 0.01,0.02 0,0.01 0.01,0.02 0,0.01 0,0.02 0.01,0.01 0,0.02 0,0.01 0,0.01 0,0.03 0.01,0.02 0,0.03 0,0.02 c 0,0.55 -0.46,0.88 -0.85,0.88 -0.59,0 -0.76,-0.42 -0.94,-0.88 l -13,-32.43 c -0.2,-0.46 -0.2,-0.53 -0.2,-0.67 0,-0.55 0.46,-0.88 0.83,-0.88 0.59,0 0.77,0.42 0.94,0.88 z"
           inkscape:connector-curvature="0"
           style="fill:#000000;fill-opacity:1;stroke:#ff0000;stroke-width:0;stroke-opacity:1" /><path
           id="path54928"
           d="m 565.93,418.98 0,0.05 0,0.06 -0.01,0.05 -0.01,0.05 -0.01,0.06 -0.02,0.06 -0.01,0.05 -0.02,0.06 -0.02,0.05 -0.03,0.06 -0.03,0.06 -0.03,0.05 -0.03,0.05 -0.03,0.06 -0.04,0.05 -0.04,0.05 -0.05,0.05 -0.05,0.05 -0.05,0.04 -0.05,0.04 -0.06,0.04 -0.05,0.04 -0.07,0.04 -0.06,0.03 -0.07,0.03 -0.07,0.02 -0.08,0.03 -0.07,0.01 -0.08,0.02 -0.09,0.01 -0.09,0.01 -0.09,0 c -0.93,0 -1.95,-0.91 -1.95,-1.92 0,-0.6 0.45,-1.33 1.41,-1.33 1,0 1.95,0.98 1.95,1.92 z"
           inkscape:connector-curvature="0"
           style="fill:#000000;fill-opacity:1;stroke:#ff0000;stroke-width:0;stroke-opacity:1" /><path
           id="path54930"
           d="m 558.82,401.28 -0.05,-0.17 -0.06,-0.17 -0.02,-0.08 -0.03,-0.09 -0.03,-0.09 -0.02,-0.08 -0.02,-0.09 -0.02,-0.1 -0.02,-0.09 -0.01,-0.1 -0.02,-0.09 0,-0.05 0,-0.06 -0.01,-0.05 0,-0.05 0,-0.06 0,-0.05 c 0,-1.64 1.39,-2.95 3.29,-2.95 3.49,0 5.04,4.79 5.04,5.32 0,0.46 -0.46,0.46 -0.57,0.46 -0.48,0 -0.53,-0.21 -0.67,-0.6 -0.8,-2.78 -2.33,-4.22 -3.69,-4.22 -0.7,0 -0.87,0.46 -0.87,1.22 0,0.8 0.25,1.47 0.56,2.24 0.35,0.93 0.74,1.87 1.11,2.78 0.31,0.84 1.58,4.01 1.72,4.44 0.09,0.34 0.2,0.76 0.2,1.11 0,1.64 -1.39,2.95 -3.31,2.95 -3.45,0 -5.05,-4.74 -5.05,-5.33 0,-0.45 0.49,-0.45 0.6,-0.45 0.48,0 0.51,0.17 0.62,0.56 0.91,3 2.44,4.25 3.72,4.25 0.56,0 0.88,-0.28 0.88,-1.22 0,-0.8 -0.21,-1.33 -1.08,-3.48 z"
           inkscape:connector-curvature="0"
           style="fill:#000000;fill-opacity:1;stroke:#ff0000;stroke-width:0;stroke-opacity:1" /></g>    </g>
    <g
       transform="matrix(0.40521746,0,0,0.40521746,258.49937,154.97858)"
       id="g55112"
       style="font-style:normal;font-variant:normal;font-weight:normal;font-stretch:normal;letter-spacing:normal;word-spacing:normal;text-anchor:start;fill:none;fill-opacity:1;fill-rule:evenodd;stroke:#000000;stroke-linecap:butt;stroke-linejoin:miter;stroke-miterlimit:10.43299961;stroke-dasharray:none;stroke-dashoffset:0;stroke-opacity:1">
      <g
         style="font-style:normal;font-variant:normal;font-weight:normal;font-stretch:normal;letter-spacing:normal;word-spacing:normal;text-anchor:start;fill:none;fill-opacity:1;fill-rule:evenodd;stroke:#000000;stroke-linecap:butt;stroke-linejoin:miter;stroke-miterlimit:10.43299961;stroke-dasharray:none;stroke-dashoffset:0;stroke-opacity:1"
         id="g55114"
         transform="matrix(1.0629921,0,0,-1.0629921,-186.02362,789.27165)"
         xml:space="preserve"
         stroke-miterlimit="10.433"
         font-style="normal"
         font-variant="normal"
         font-weight="normal"
         font-stretch="normal"
         font-size-adjust="none"
         letter-spacing="normal"
         word-spacing="normal"><path
           style="fill:#000000;stroke-width:0"
           inkscape:connector-curvature="0"
           d="m 492.39,436.93 0.06,0.12 0.06,0.12 0.03,0.05 0.03,0.06 0.04,0.05 0.04,0.05 0.05,0.05 0.05,0.05 0.06,0.04 0.06,0.05 0.07,0.04 0.08,0.04 0.09,0.04 0.09,0.04 0.11,0.03 0.12,0.03 0.12,0.04 0.14,0.02 0.08,0.02 0.07,0.01 0.09,0.01 0.08,0.02 0.09,0.01 0.09,0.01 0.09,0.01 0.1,0.01 0.1,0.01 0.11,0.01 0.11,0 0.11,0.01 0.12,0.01 0.12,0.01 0.13,0 0.13,0.01 0.13,0 0.14,0.01 0.15,0 0.15,0 0.15,0 0.16,0.01 0.16,0 0.17,0 0.95,0 0,2.34 c -1.89,-0.05 -4.28,-0.14 -5.64,-0.14 -1.98,0 -4.58,0 -6.51,0.14 l 0,-2.34 c 0.43,0 4.37,0 4.37,-0.6 0,-0.2 -0.14,-0.43 -0.19,-0.59 l -10.06,-22.67 -10.62,23.86 4.68,0 0,2.34 c -1.89,-0.14 -6.67,-0.14 -8.81,-0.14 -1.95,0 -6.12,0 -7.87,0.14 l 0,-2.34 4.57,0 13.75,-30.94 c 0.41,-0.89 0.61,-1.3 2,-1.3 0.8,0 1.44,0 1.99,1.21 z"
           id="path55116" /><path
           style="fill:#000000;stroke-width:0"
           inkscape:connector-curvature="0"
           d="m 516.78,407.76 -0.01,0.28 -0.01,0.28 -0.02,0.26 -0.03,0.26 -0.04,0.25 -0.05,0.24 -0.06,0.23 -0.07,0.23 -0.08,0.22 -0.09,0.21 -0.1,0.2 -0.11,0.19 -0.12,0.19 -0.13,0.17 -0.14,0.17 -0.15,0.16 -0.16,0.15 -0.18,0.14 -0.18,0.13 -0.2,0.12 -0.21,0.11 -0.22,0.11 -0.23,0.09 -0.24,0.09 -0.26,0.07 -0.26,0.07 -0.28,0.05 -0.29,0.05 -0.31,0.03 -0.32,0.03 -0.33,0.01 -0.34,0.01 c -3.11,0 -4.81,-1.85 -5.58,-3.16 l -0.03,0 0,11.99 -5.24,-0.39 0,-1.25 c 2.35,0 2.63,-0.25 2.63,-1.96 l 0,-17.84 c 0,-1.5 -0.36,-1.5 -2.63,-1.5 l 0,-1.25 c 0.08,0 2.52,0.14 3.99,0.14 1.28,0 3.69,-0.11 4,-0.14 l 0,1.25 c -2.27,0 -2.61,0 -2.61,1.5 l 0,6.28 c 0,3.66 2.89,5.36 5.19,5.36 2.44,0 2.75,-1.92 2.75,-3.69 l 0,-7.95 c 0,-1.5 -0.35,-1.5 -2.61,-1.5 l 0,-1.25 c 0.08,0 2.51,0.14 3.97,0.14 1.29,0 3.7,-0.11 4.01,-0.14 l 0,1.25 c -2.26,0 -2.62,0 -2.62,1.5 z"
           id="path55118" /><path
           style="fill:#000000;stroke-width:0"
           inkscape:connector-curvature="0"
           d="m 538.37,421.79 0.01,0.02 0.01,0.02 0.01,0.02 0.01,0.02 0.01,0.02 0.01,0.02 0.01,0.02 0,0.02 0.01,0.01 0.01,0.02 0.01,0.03 0.02,0.03 0.01,0.03 0.01,0.03 0.01,0.02 0.01,0.03 0.01,0.02 0,0.02 0.01,0.02 0.01,0.02 0,0.02 0.01,0.01 0,0.02 0.01,0.01 0,0.02 0,0.01 0,0.02 0.01,0.01 0,0.01 0,0.03 0,0.02 0,0.03 0,0.02 c 0,0.55 -0.45,0.88 -0.84,0.88 -0.6,0 -0.77,-0.42 -0.94,-0.88 l -13,-32.43 c -0.21,-0.46 -0.21,-0.53 -0.21,-0.67 0,-0.55 0.46,-0.88 0.83,-0.88 0.6,0 0.77,0.42 0.94,0.88 z"
           id="path55120" /><path
           style="fill:#000000;stroke-width:0"
           inkscape:connector-curvature="0"
           d="m 548.32,410.96 5.43,0 0,1.25 -5.43,0 0,6.41 -1.19,0 c -0.03,-3.12 -1.45,-6.58 -4.8,-6.69 l 0,-0.97 3.24,0 0,-9.4 c 0,-3.91 2.92,-4.7 4.87,-4.7 2.34,0 3.94,1.98 3.94,4.73 l 0,1.92 -1.19,0 0,-1.89 c 0,-2.36 -1.11,-3.66 -2.47,-3.66 -2.4,0 -2.4,2.93 -2.4,3.57 z"
           id="path55122" /><path
           style="fill:#000000;stroke-width:0"
           inkscape:connector-curvature="0"
           d="m 561.93,403.4 0.05,-0.03 0.06,-0.03 0.06,-0.04 0.06,-0.03 0.07,-0.04 0.07,-0.04 0.08,-0.05 0.08,-0.04 0.09,-0.04 0.09,-0.05 0.09,-0.04 0.1,-0.05 0.11,-0.04 0.1,-0.05 0.12,-0.04 0.11,-0.04 0.12,-0.05 0.13,-0.04 0.13,-0.04 0.13,-0.04 0.14,-0.03 0.14,-0.04 0.15,-0.03 0.15,-0.03 0.15,-0.03 0.16,-0.02 0.17,-0.02 0.17,-0.02 0.17,-0.02 0.18,-0.01 0.18,0 0.19,-0.01 c 3.59,0 6.2,2.41 6.2,5.13 0,1.36 -0.63,2.44 -1.47,3.34 1.58,1.11 2.94,1.14 3.53,1.14 -0.14,-0.14 -0.31,-0.28 -0.31,-0.82 0,-0.71 0.52,-1.13 1.11,-1.13 0.48,0 1.11,0.36 1.11,1.16 0,0.79 -0.66,1.78 -2.05,1.78 -0.53,0 -2.4,-0.11 -4.05,-1.61 -1.04,0.76 -2.5,1.25 -4.04,1.25 l -0.03,-1.03 c 3.42,0 3.42,-3.36 3.42,-4.08 0,-0.56 0,-1.95 -0.7,-2.86 -0.49,-0.59 -1.43,-1.22 -2.69,-1.22 l 0,0 c -3.41,0 -3.41,3.34 -3.41,4.08 0,0.55 0,1.95 0.69,2.84 0.5,0.6 1.44,1.24 2.69,1.24 l 0.03,1.03 c -3.58,0 -6.21,-2.39 -6.21,-5.11 0,-1.36 0.71,-2.63 1.69,-3.53 -0.28,-0.31 -1.04,-1.46 -1.04,-2.81 0,-0.46 0.09,-2.1 1.45,-3.11 -1.56,-0.52 -3.38,-1.68 -3.38,-3.49 0,-2.55 3.83,-4.45 8.53,-4.45 l 0,1.05 c -3.65,0 -6.4,1.64 -6.4,3.45 0,1.22 1.11,2.7 3.34,2.75 l 2.02,0 c 3.11,0 7.47,0 7.47,-2.75 0,-1.86 -2.77,-3.45 -6.43,-3.45 l 0,-1.05 c 4.44,0 8.55,1.73 8.55,4.53 0,1.05 -0.42,2.92 -2.34,3.97 -2.05,1.08 -4.11,1.08 -7.49,1.08 -0.76,0 -2.03,0 -2.29,0.03 -1.13,0.25 -1.75,1.29 -1.75,2.31 0,0.86 0.25,1.14 0.45,1.42 z"
           id="path55124" /></g>    </g>
    <g
       id="g6181"
       transform="matrix(0.38120458,0,0,0.38120458,189.91585,128.9987)">
      <g
         word-spacing="normal"
         letter-spacing="normal"
         font-size-adjust="none"
         font-stretch="normal"
         font-weight="normal"
         font-variant="normal"
         font-style="normal"
         stroke-miterlimit="10.433"
         xml:space="preserve"
         transform="matrix(1.0629921,0,0,-1.0629921,-186.02362,789.27165)"
         id="g6183"
         style="font-style:normal;font-variant:normal;font-weight:normal;font-stretch:normal;letter-spacing:normal;word-spacing:normal;text-anchor:start;fill:none;fill-opacity:1;fill-rule:evenodd;stroke:#000000;stroke-linecap:butt;stroke-linejoin:miter;stroke-miterlimit:10.43299961;stroke-dasharray:none;stroke-dashoffset:0;stroke-opacity:1"><path
           id="path6185"
           d="m 492.39,436.93 0.06,0.12 0.06,0.12 0.03,0.05 0.03,0.06 0.04,0.05 0.04,0.05 0.05,0.05 0.05,0.05 0.06,0.04 0.06,0.05 0.07,0.04 0.08,0.04 0.09,0.04 0.09,0.04 0.11,0.03 0.12,0.03 0.12,0.04 0.14,0.02 0.08,0.02 0.07,0.01 0.09,0.01 0.08,0.02 0.09,0.01 0.09,0.01 0.09,0.01 0.1,0.01 0.1,0.01 0.11,0.01 0.11,0 0.11,0.01 0.12,0.01 0.12,0.01 0.13,0 0.13,0.01 0.13,0 0.14,0.01 0.15,0 0.15,0 0.15,0 0.16,0.01 0.16,0 0.17,0 0.95,0 0,2.34 c -1.89,-0.05 -4.28,-0.14 -5.64,-0.14 -1.98,0 -4.58,0 -6.51,0.14 l 0,-2.34 c 0.43,0 4.37,0 4.37,-0.6 0,-0.2 -0.14,-0.43 -0.19,-0.59 l -10.06,-22.67 -10.62,23.86 4.68,0 0,2.34 c -1.89,-0.14 -6.67,-0.14 -8.81,-0.14 -1.95,0 -6.12,0 -7.87,0.14 l 0,-2.34 4.57,0 13.75,-30.94 c 0.41,-0.89 0.61,-1.3 2,-1.3 0.8,0 1.44,0 1.99,1.21 z"
           inkscape:connector-curvature="0"
           style="fill:#000000;stroke-width:0" /><path
           id="path6187"
           d="m 516.78,407.76 -0.01,0.28 -0.01,0.28 -0.02,0.26 -0.03,0.26 -0.04,0.25 -0.05,0.24 -0.06,0.23 -0.07,0.23 -0.08,0.22 -0.09,0.21 -0.1,0.2 -0.11,0.19 -0.12,0.19 -0.13,0.17 -0.14,0.17 -0.15,0.16 -0.16,0.15 -0.18,0.14 -0.18,0.13 -0.2,0.12 -0.21,0.11 -0.22,0.11 -0.23,0.09 -0.24,0.09 -0.26,0.07 -0.26,0.07 -0.28,0.05 -0.29,0.05 -0.31,0.03 -0.32,0.03 -0.33,0.01 -0.34,0.01 c -3.11,0 -4.81,-1.85 -5.58,-3.16 l -0.03,0 0,11.99 -5.24,-0.39 0,-1.25 c 2.35,0 2.63,-0.25 2.63,-1.96 l 0,-17.84 c 0,-1.5 -0.36,-1.5 -2.63,-1.5 l 0,-1.25 c 0.08,0 2.52,0.14 3.99,0.14 1.28,0 3.69,-0.11 4,-0.14 l 0,1.25 c -2.27,0 -2.61,0 -2.61,1.5 l 0,6.28 c 0,3.66 2.89,5.36 5.19,5.36 2.44,0 2.75,-1.92 2.75,-3.69 l 0,-7.95 c 0,-1.5 -0.35,-1.5 -2.61,-1.5 l 0,-1.25 c 0.08,0 2.51,0.14 3.97,0.14 1.29,0 3.7,-0.11 4.01,-0.14 l 0,1.25 c -2.26,0 -2.62,0 -2.62,1.5 z"
           inkscape:connector-curvature="0"
           style="fill:#000000;stroke-width:0" /><path
           id="path6189"
           d="m 538.37,421.79 0.01,0.02 0.01,0.02 0.01,0.02 0.01,0.02 0.01,0.02 0.01,0.02 0.01,0.02 0,0.02 0.01,0.01 0.01,0.02 0.01,0.03 0.02,0.03 0.01,0.03 0.01,0.03 0.01,0.02 0.01,0.03 0.01,0.02 0,0.02 0.01,0.02 0.01,0.02 0,0.02 0.01,0.01 0,0.02 0.01,0.01 0,0.02 0,0.01 0,0.02 0.01,0.01 0,0.01 0,0.03 0,0.02 0,0.03 0,0.02 c 0,0.55 -0.45,0.88 -0.84,0.88 -0.6,0 -0.77,-0.42 -0.94,-0.88 l -13,-32.43 c -0.21,-0.46 -0.21,-0.53 -0.21,-0.67 0,-0.55 0.46,-0.88 0.83,-0.88 0.6,0 0.77,0.42 0.94,0.88 z"
           inkscape:connector-curvature="0"
           style="fill:#000000;stroke-width:0" /><path
           id="path6191"
           d="m 552.61,418.98 0,0.05 0,0.06 -0.01,0.05 -0.01,0.05 -0.01,0.06 -0.01,0.06 -0.02,0.05 -0.02,0.06 -0.02,0.05 -0.02,0.06 -0.03,0.06 -0.03,0.05 -0.04,0.05 -0.03,0.06 -0.04,0.05 -0.04,0.05 -0.05,0.05 -0.04,0.05 -0.05,0.04 -0.06,0.04 -0.05,0.04 -0.06,0.04 -0.06,0.04 -0.07,0.03 -0.07,0.03 -0.07,0.02 -0.07,0.03 -0.08,0.01 -0.08,0.02 -0.09,0.01 -0.08,0.01 -0.09,0 c -0.94,0 -1.96,-0.91 -1.96,-1.92 0,-0.6 0.46,-1.33 1.41,-1.33 1,0 1.95,0.98 1.95,1.92 z"
           inkscape:connector-curvature="0"
           style="fill:#000000;stroke-width:0" /><path
           id="path6193"
           d="m 545.5,401.28 -0.05,-0.17 -0.05,-0.17 -0.03,-0.08 -0.03,-0.09 -0.02,-0.09 -0.03,-0.08 -0.02,-0.09 -0.02,-0.1 -0.01,-0.09 -0.02,-0.1 -0.01,-0.09 -0.01,-0.05 0,-0.06 0,-0.05 -0.01,-0.05 0,-0.06 0,-0.05 c 0,-1.64 1.39,-2.95 3.3,-2.95 3.48,0 5.03,4.79 5.03,5.32 0,0.46 -0.45,0.46 -0.56,0.46 -0.49,0 -0.53,-0.21 -0.68,-0.6 -0.79,-2.78 -2.32,-4.22 -3.68,-4.22 -0.7,0 -0.88,0.46 -0.88,1.22 0,0.8 0.25,1.47 0.56,2.24 0.35,0.93 0.74,1.87 1.12,2.78 0.31,0.84 1.57,4.01 1.71,4.44 0.1,0.34 0.21,0.76 0.21,1.11 0,1.64 -1.39,2.95 -3.32,2.95 -3.45,0 -5.04,-4.74 -5.04,-5.33 0,-0.45 0.48,-0.45 0.59,-0.45 0.48,0 0.52,0.17 0.63,0.56 0.9,3 2.43,4.25 3.72,4.25 0.56,0 0.87,-0.28 0.87,-1.22 0,-0.8 -0.2,-1.33 -1.08,-3.48 z"
           inkscape:connector-curvature="0"
           style="fill:#000000;stroke-width:0" /></g>    </g>
    <g
       id="g56155"
       transform="matrix(0.40847308,0,0,0.40847308,134.77615,260.08261)">
      <g
         word-spacing="normal"
         letter-spacing="normal"
         font-size-adjust="none"
         font-stretch="normal"
         font-weight="normal"
         font-variant="normal"
         font-style="normal"
         stroke-miterlimit="10.433"
         xml:space="preserve"
         transform="matrix(1.0629921,0,0,-1.0629921,-186.02362,789.27165)"
         id="content"
         style="font-style:normal;font-variant:normal;font-weight:normal;font-stretch:normal;letter-spacing:normal;word-spacing:normal;text-anchor:start;fill:none;fill-opacity:1;fill-rule:evenodd;stroke:#000000;stroke-linecap:butt;stroke-linejoin:miter;stroke-miterlimit:10.43299961;stroke-dasharray:none;stroke-dashoffset:0;stroke-opacity:1"><path
           id="path56158"
           d="m 466.47,408.14 0.21,-0.16 0.2,-0.15 0.2,-0.15 0.2,-0.14 0.21,-0.13 0.2,-0.12 0.2,-0.12 0.2,-0.11 0.21,-0.11 0.2,-0.1 0.2,-0.09 0.2,-0.09 0.2,-0.09 0.21,-0.07 0.2,-0.07 0.2,-0.07 0.2,-0.06 0.2,-0.06 0.4,-0.1 0.4,-0.08 0.39,-0.06 0.4,-0.05 0.39,-0.03 0.39,-0.02 0.38,-0.01 -0.54,1.8 c -0.71,0 -3.05,0 -5.28,2.69 -0.57,0.64 -0.57,0.68 -0.57,1.64 l 0,10.56 c 0,0.95 0.07,1 0.75,1.69 2,2.04 4.6,2.34 5.69,2.34 3.33,0 6.13,-3.03 6.13,-9.31 0,-7.03 -3.49,-9.61 -6.72,-9.61 l 0.54,-1.8 c 7.47,0 12.55,4.49 12.55,11.41 0,6.62 -4.53,11.31 -11.7,11.31 -3.74,0 -6.38,-1.55 -7.53,-2.44 l 0,2.44 -8.82,-0.41 0,-2.34 c 3.1,0 3.44,0 3.44,-1.89 l 0,-25.11 -3.44,0 0,-2.34 c 1.39,0.06 4.39,0.15 6.28,0.15 1.94,0 4.88,-0.09 6.27,-0.15 l 0,2.34 -3.44,0 z"
           inkscape:connector-curvature="0"
           style="fill:#000000;stroke-width:0" /><path
           id="path56160"
           d="m 494.32,410.96 5.44,0 0,1.25 -5.44,0 0,6.41 -1.19,0 c -0.03,-3.12 -1.45,-6.58 -4.79,-6.69 l 0,-0.97 3.23,0 0,-9.4 c 0,-3.91 2.92,-4.7 4.88,-4.7 2.34,0 3.93,1.98 3.93,4.73 l 0,1.92 -1.18,0 0,-1.89 c 0,-2.36 -1.11,-3.66 -2.47,-3.66 -2.41,0 -2.41,2.93 -2.41,3.57 z"
           inkscape:connector-curvature="0"
           style="fill:#000000;stroke-width:0" /><path
           id="path56162"
           d="m 507.93,403.4 0.06,-0.03 0.05,-0.03 0.06,-0.04 0.07,-0.03 0.07,-0.04 0.07,-0.04 0.08,-0.05 0.08,-0.04 0.08,-0.04 0.09,-0.05 0.1,-0.04 0.1,-0.05 0.1,-0.04 0.11,-0.05 0.11,-0.04 0.12,-0.04 0.12,-0.05 0.12,-0.04 0.13,-0.04 0.13,-0.04 0.14,-0.03 0.14,-0.04 0.15,-0.03 0.15,-0.03 0.16,-0.03 0.16,-0.02 0.16,-0.02 0.17,-0.02 0.17,-0.02 0.18,-0.01 0.18,0 0.19,-0.01 c 3.59,0 6.2,2.41 6.2,5.13 0,1.36 -0.62,2.44 -1.46,3.34 1.57,1.11 2.93,1.14 3.53,1.14 -0.15,-0.14 -0.32,-0.28 -0.32,-0.82 0,-0.71 0.52,-1.13 1.11,-1.13 0.49,0 1.11,0.36 1.11,1.16 0,0.79 -0.65,1.78 -2.05,1.78 -0.53,0 -2.4,-0.11 -4.04,-1.61 -1.05,0.76 -2.5,1.25 -4.05,1.25 l -0.03,-1.03 c 3.42,0 3.42,-3.36 3.42,-4.08 0,-0.56 0,-1.95 -0.7,-2.86 -0.48,-0.59 -1.42,-1.22 -2.69,-1.22 l 0,0 c -3.4,0 -3.4,3.34 -3.4,4.08 0,0.55 0,1.95 0.68,2.84 0.5,0.6 1.44,1.24 2.69,1.24 l 0.03,1.03 c -3.58,0 -6.2,-2.39 -6.2,-5.11 0,-1.36 0.7,-2.63 1.69,-3.53 -0.29,-0.31 -1.05,-1.46 -1.05,-2.81 0,-0.46 0.09,-2.1 1.45,-3.11 -1.56,-0.52 -3.37,-1.68 -3.37,-3.49 0,-2.55 3.83,-4.45 8.53,-4.45 l 0,1.05 c -3.66,0 -6.41,1.64 -6.41,3.45 0,1.22 1.11,2.7 3.35,2.75 l 2.01,0 c 3.11,0 7.47,0 7.47,-2.75 0,-1.86 -2.76,-3.45 -6.42,-3.45 l 0,-1.05 c 4.44,0 8.54,1.73 8.54,4.53 0,1.05 -0.42,2.92 -2.34,3.97 -2.04,1.08 -4.11,1.08 -7.48,1.08 -0.77,0 -2.03,0 -2.3,0.03 -1.12,0.25 -1.75,1.29 -1.75,2.31 0,0.86 0.25,1.14 0.45,1.42 z"
           inkscape:connector-curvature="0"
           style="fill:#000000;stroke-width:0" /><path
           id="path56164"
           d="m 540.29,421.79 0.01,0.02 0.01,0.02 0.01,0.02 0.01,0.02 0.01,0.02 0,0.02 0.01,0.02 0.01,0.02 0.01,0.01 0.01,0.02 0.01,0.03 0.01,0.03 0.02,0.03 0.01,0.03 0.01,0.02 0.01,0.03 0,0.02 0.01,0.02 0.01,0.02 0.01,0.02 0,0.02 0.01,0.01 0,0.02 0,0.01 0.01,0.02 0,0.01 0,0.02 0,0.01 0,0.01 0.01,0.03 0,0.02 0,0.03 0,0.02 c 0,0.55 -0.46,0.88 -0.85,0.88 -0.59,0 -0.76,-0.42 -0.93,-0.88 l -13,-32.43 c -0.21,-0.46 -0.21,-0.53 -0.21,-0.67 0,-0.55 0.46,-0.88 0.83,-0.88 0.6,0 0.77,0.42 0.94,0.88 z"
           inkscape:connector-curvature="0"
           style="fill:#000000;stroke-width:0" /><path
           id="path56166"
           d="m 561.17,407.76 0,0.28 -0.02,0.28 -0.02,0.26 -0.03,0.26 -0.04,0.25 -0.05,0.24 -0.06,0.23 -0.07,0.23 -0.08,0.22 -0.09,0.21 -0.1,0.2 -0.1,0.19 -0.12,0.19 -0.13,0.17 -0.15,0.17 -0.15,0.16 -0.16,0.15 -0.17,0.14 -0.19,0.13 -0.19,0.12 -0.21,0.11 -0.22,0.11 -0.23,0.09 -0.25,0.09 -0.25,0.07 -0.27,0.07 -0.28,0.05 -0.29,0.05 -0.31,0.03 -0.31,0.03 -0.33,0.01 -0.35,0.01 c -3.11,0 -4.81,-1.85 -5.57,-3.16 l -0.04,0 0,11.99 -5.23,-0.39 0,-1.25 c 2.34,0 2.62,-0.25 2.62,-1.96 l 0,-17.84 c 0,-1.5 -0.35,-1.5 -2.62,-1.5 l 0,-1.25 c 0.08,0 2.51,0.14 3.98,0.14 1.29,0 3.69,-0.11 4,-0.14 l 0,1.25 c -2.26,0 -2.61,0 -2.61,1.5 l 0,6.28 c 0,3.66 2.9,5.36 5.19,5.36 2.44,0 2.75,-1.92 2.75,-3.69 l 0,-7.95 c 0,-1.5 -0.34,-1.5 -2.61,-1.5 l 0,-1.25 c 0.08,0 2.52,0.14 3.97,0.14 1.3,0 3.7,-0.11 4.02,-0.14 l 0,1.25 c -2.27,0 -2.63,0 -2.63,1.5 z"
           inkscape:connector-curvature="0"
           style="fill:#000000;stroke-width:0" /></g>    </g>
    <g
       transform="matrix(-0.68611893,0,0,0.68611893,153.1687,-228.13906)"
       id="g56345">
      <g
         style="font-style:normal;font-variant:normal;font-weight:normal;font-stretch:normal;letter-spacing:normal;word-spacing:normal;text-anchor:start;fill:none;fill-opacity:1;fill-rule:evenodd;stroke:#000000;stroke-linecap:butt;stroke-linejoin:miter;stroke-miterlimit:10.43299961;stroke-dasharray:none;stroke-dashoffset:0;stroke-opacity:1"
         id="g56347"
         transform="matrix(1.0629921,0,0,-1.0629921,-186.02362,789.27165)"
         xml:space="preserve"
         stroke-miterlimit="10.433"
         font-style="normal"
         font-variant="normal"
         font-weight="normal"
         font-stretch="normal"
         font-size-adjust="none"
         letter-spacing="normal"
         word-spacing="normal"><path
           style="fill:#000000;stroke-width:0"
           inkscape:connector-curvature="0"
           d="m -56.947328,-1.6940336 -0.0499,0.14431 -0.0555,0.1443 -0.0555,0.1332 -0.0611,0.13875 -0.061,0.12765 -0.0666,0.12210004 -0.0666,0.1221 -0.0666,0.11655 -0.0721,0.111 -0.0722,0.11101 -0.0721,0.10545 -0.0777,0.0999 -0.1554,0.1887 -0.16095,0.1776 -0.16651,0.16095 -0.17205,0.14985 -0.17205,0.13321 -0.1776,0.1221 -0.1776,0.11655 -0.1776,0.0999 -0.17205,0.0888 -0.17761,0.0832 -0.17205,0.0722 -0.1665,0.061 -0.1665,0.0555 -0.16095,0.0444 -0.1554,0.0388 -0.14985,0.0333 -0.13876,0.0278 -0.1332,0.0222 -0.1221,0.0166 -0.11655,0.0111 -0.10545,0.0111 -0.0888,0.006 -0.0777,0.006 -0.0666,0.006 -0.05,0 -0.0389,0 c -4.16809,0 -4.47334,-4.83964 -4.47334,-7.02636 0,-1.69277 0.13875,-2.15897 0.32745,-2.71397 0.6105,-2.0146704 1.44301,-5.2226004 1.44301,-5.9385604 0,-0.30525 -0.13875,-0.50505 -0.3663,-0.50505 -0.3552,0 -0.58276,0.61605 -0.88246,1.66501 -0.63271,2.32547 -0.91021,3.8961404 -1.02676,4.7508404 -0.05,0.36631 -0.0999,0.72151 -0.21645,1.08781 -0.88246,2.73063 -2.65292,6.84877016 -3.76293,9.03549 -0.18871,0.32745 -0.52171,0.94351 -0.52171,1.04896 0,0.2775 0.27195,0.2775 0.333,0.2775 0.0777,0 0.24976,0 0.32746,-0.19425 1.43746,-2.62517984 2.54192,-5.3891 3.65193,-8.18633 0.0278,0.86026 0.05,2.95818 1.13776,5.64995016 0.65491,1.68166984 1.76492,3.03032984 3.67413,3.03032984 3.45213,0 5.39465,-4.19583984 5.39465,-5.05054 0,-0.27751 -0.24975,-0.27751 -0.52725,-0.27751 z"
           id="path56349" /></g>    </g>
    <path
       sodipodi:nodetypes="cc"
       style="fill:none;fill-rule:evenodd;stroke:#000300;stroke-width:1px;stroke-linecap:butt;stroke-linejoin:miter;stroke-opacity:1;marker-end:url(#Arrow1Lend-6)"
       d="M 307.58346,291.77135 409.8086,243.57288"
       id="path4445-5"
       inkscape:connector-curvature="0"
       inkscape:transform-center-x="-31.784325"
       inkscape:transform-center-y="-25.743603" />
    <circle
       transform="matrix(-0.78440738,-0.62024597,-0.62024597,0.78440738,0,0)"
       style="fill:#4d4d4d;fill-opacity:1;stroke:#000000;stroke-width:0.48634693;stroke-miterlimit:4;stroke-dasharray:none;stroke-dashoffset:0;stroke-opacity:1"
       id="path4428-3"
       cx="-422.18112"
       cy="36.718693"
       r="8.8431225" />
    <path
       inkscape:transform-center-y="-6.7812655"
       inkscape:transform-center-x="3.638868"
       inkscape:connector-curvature="0"
       id="path5070"
       d="m 308.0421,302.32883 c 10.17848,0.0419 10.17848,0.0419 10.17848,0.0419 l 0.039,-9.46419"
       style="fill:none;fill-rule:evenodd;stroke:#000000;stroke-width:1px;stroke-linecap:butt;stroke-linejoin:miter;stroke-opacity:1" />
    <path
       style="fill:none;fill-rule:evenodd;stroke:#000000;stroke-width:1px;stroke-linecap:butt;stroke-linejoin:miter;stroke-opacity:1;marker-start:url(#marker28298)"
       d="M 307.95172,516.55252 307.60389,294.60227"
       id="path8111-9"
       inkscape:connector-curvature="0"
       sodipodi:nodetypes="cc" />
    <path
       inkscape:transform-center-y="-30.43487"
       inkscape:transform-center-x="-0.858139"
       inkscape:connector-curvature="0"
       id="path33220"
       d="m 308.28165,526.08959 34.99764,-48.16262"
       style="fill:none;fill-rule:evenodd;stroke:#000000;stroke-width:1px;stroke-linecap:butt;stroke-linejoin:miter;stroke-opacity:1;marker-end:url(#marker33222)"
       sodipodi:nodetypes="cc" />
    <circle
       transform="matrix(-0.78440738,-0.62024597,-0.62024597,0.78440738,0,0)"
       style="fill:#333333;fill-opacity:1;stroke:#000000;stroke-width:0.48634693;stroke-miterlimit:4;stroke-dasharray:none;stroke-dashoffset:0;stroke-opacity:1"
       id="path4428"
       cx="-567.8421"
       cy="221.04933"
       r="8.8431225" />
    <path
       sodipodi:open="true"
       transform="matrix(-0.78440738,-0.62024597,-0.62024597,0.78440738,0,0)"
       d="m -591.9992,-11.49441 a 232.08141,232.57742 0 0 1 253.44465,207.10342"
       sodipodi:end="6.1782333"
       sodipodi:start="4.6146805"
       sodipodi:ry="232.57742"
       sodipodi:rx="232.08141"
       sodipodi:cy="219.97369"
       sodipodi:cx="-569.35895"
       sodipodi:type="arc"
       style="fill:#ff0000;fill-opacity:0;stroke:#000000;stroke-width:0.82300001;stroke-miterlimit:4;stroke-dasharray:0.82300001, 0.82300001;stroke-dashoffset:0;stroke-opacity:1"
       id="path4428-1" />
    <path
       sodipodi:nodetypes="cc"
       inkscape:connector-curvature="0"
       id="path49695"
       d="m 374.65187,292.53397 -67.30081,0.21062"
       style="fill:none;fill-rule:evenodd;stroke:#000000;stroke-width:1;stroke-linecap:butt;stroke-linejoin:miter;stroke-miterlimit:4;stroke-dasharray:none;stroke-dashoffset:0;stroke-opacity:1;marker-start:url(#marker49697)" />
    <path
       id="circle56254"
       style="fill:none;fill-opacity:1;stroke:#000000;stroke-width:0.69999999;stroke-miterlimit:4;stroke-dasharray:none;stroke-dashoffset:0;stroke-opacity:1;marker-start:url(#marker56770)"
       transform="matrix(-0.78440738,-0.62024597,-0.62024597,0.78440738,0,0)"
       sodipodi:type="arc"
       sodipodi:cx="-422.18109"
       sodipodi:cy="36.718723"
       sodipodi:rx="24.079893"
       sodipodi:ry="24.079893"
       sodipodi:start="2.2175895"
       sodipodi:end="3.7150852"
       sodipodi:open="true"
       d="m -436.69237,55.93497 a 24.079893,24.079893 0 0 1 -5.7161,-32.281253" />
    <path
       d="M -450.15212,71.205039 A 44.403652,44.403652 0 0 1 -466.3608,32.264752 44.403652,44.403652 0 0 1 -442.70576,-2.65668"
       sodipodi:open="true"
       sodipodi:end="4.2318815"
       sodipodi:start="2.2522546"
       sodipodi:ry="44.403652"
       sodipodi:rx="44.403652"
       sodipodi:cy="36.718723"
       sodipodi:cx="-422.18109"
       sodipodi:type="arc"
       transform="matrix(-0.78440738,-0.62024597,-0.62024597,0.78440738,0,0)"
       style="fill:none;fill-opacity:1;stroke:#000000;stroke-width:0.69999999;stroke-miterlimit:4;stroke-dasharray:none;stroke-dashoffset:0;stroke-opacity:1;marker-start:url(#Arrow1Mstart)"
       id="path56441" />
    <g
       id="g56536"
       transform="matrix(0.3301068,0,0,0.3301068,251.68815,196.68196)">
      <g
         word-spacing="normal"
         letter-spacing="normal"
         font-size-adjust="none"
         font-stretch="normal"
         font-weight="normal"
         font-variant="normal"
         font-style="normal"
         stroke-miterlimit="10.433"
         xml:space="preserve"
         transform="matrix(1.0629921,0,0,-1.0629921,-186.02362,789.27165)"
         id="g56538"
         style="font-style:normal;font-variant:normal;font-weight:normal;font-stretch:normal;letter-spacing:normal;word-spacing:normal;text-anchor:start;fill:none;fill-opacity:1;fill-rule:evenodd;stroke:#000000;stroke-linecap:butt;stroke-linejoin:miter;stroke-miterlimit:10.43299961;stroke-dasharray:none;stroke-dashoffset:0;stroke-opacity:1"><path
           id="path56540"
           d="m 479.29,417.96 -0.01,0.37 -0.01,0.35 -0.02,0.35 -0.02,0.34 -0.06,0.65 -0.09,0.63 -0.11,0.59 -0.14,0.57 -0.15,0.54 -0.18,0.51 -0.19,0.49 -0.21,0.45 -0.23,0.44 -0.25,0.4 -0.26,0.38 -0.27,0.36 -0.29,0.33 -0.3,0.31 -0.31,0.29 -0.31,0.26 -0.33,0.24 -0.34,0.22 -0.34,0.2 -0.35,0.18 -0.35,0.16 -0.36,0.14 -0.35,0.12 -0.36,0.11 -0.37,0.09 -0.36,0.06 -0.36,0.06 -0.35,0.04 -0.35,0.02 -0.35,0 -0.05,-1.09 c 4.94,0 4.94,-6.53 4.94,-10.41 0,-1.84 0,-4.73 0.09,-5.57 l 0,0 c -4.37,-3.85 -8.22,-4.39 -10.2,-4.39 -3,0 -4.49,2.25 -4.49,5.43 0,2.44 1.3,7.82 2.89,10.36 2.33,3.64 5.04,4.58 6.77,4.58 l 0.05,1.09 c -6.82,0 -13.39,-7.12 -13.39,-14.14 0,-4.64 2.98,-8.42 8.06,-8.42 3.14,0 6.73,1.14 10.51,4.19 0.66,-2.64 2.3,-4.19 4.54,-4.19 2.64,0 4.18,2.74 4.18,3.53 0,0.36 -0.29,0.5 -0.59,0.5 -0.36,0 -0.5,-0.14 -0.66,-0.5 -0.89,-2.43 -2.68,-2.43 -2.78,-2.43 -1.54,0 -1.54,3.89 -1.54,5.07 0,1.05 0,1.16 0.5,1.75 4.68,5.88 5.73,11.66 5.73,11.71 0,0.11 -0.06,0.5 -0.61,0.5 -0.5,0 -0.5,-0.14 -0.75,-1.05 -0.89,-3.14 -2.53,-6.92 -4.87,-9.86 z"
           inkscape:connector-curvature="0"
           style="fill:#000000;stroke-width:0" /><path
           id="path56542"
           d="m 502.99,408.11 0,0.33 -0.01,0.33 0,0.32 -0.02,0.31 -0.01,0.15 -0.01,0.15 -0.02,0.14 -0.02,0.15 -0.02,0.14 -0.03,0.14 -0.03,0.14 -0.03,0.13 -0.04,0.14 -0.05,0.13 -0.05,0.13 -0.05,0.13 -0.07,0.13 -0.06,0.13 -0.08,0.13 -0.08,0.12 -0.09,0.13 -0.1,0.12 -0.1,0.12 -0.11,0.13 -0.12,0.12 -0.13,0.12 -0.13,0.12 -0.15,0.12 c -1.42,1.19 -3.09,1.75 -5.16,1.75 -3.31,0 -5.64,-1.27 -5.64,-3.39 0,-1.11 0.77,-1.71 1.67,-1.71 0.94,0 1.64,0.71 1.64,1.65 0,0.59 -0.28,1.32 -1.21,1.59 1.25,0.87 3.26,0.87 3.48,0.87 1.94,0 4.06,-1.28 4.06,-4.21 l 0,-1.08 0,-0.91 0,-3.45 c 0,-3.35 -2.92,-4.28 -4.48,-4.28 -1.78,0 -3.45,1.18 -3.45,2.89 0,1.92 1.67,4.61 7.93,4.84 l 0,0.91 c -1.9,-0.07 -4.2,-0.17 -6.75,-1.11 -3.14,-1.16 -4.11,-3.06 -4.11,-4.64 0,-3 3.63,-3.86 6.1,-3.86 2.78,0 4.42,1.56 5.15,2.92 0.14,-1.42 1.08,-2.75 2.69,-2.75 0.06,0 3.44,0 3.44,3.31 l 0,1.91 -1.17,0 0,-1.88 c 0,-0.34 0,-2.01 -1.3,-2.01 -1.28,0 -1.28,1.62 -1.28,2.08 z"
           inkscape:connector-curvature="0"
           style="fill:#000000;stroke-width:0" /><path
           id="path56544"
           d="m 522.6,412.56 0.02,0.03 0.02,0.03 0.02,0.02 0.02,0.03 0.02,0.02 0.02,0.03 0.02,0.02 0.01,0.02 0.02,0.02 0.01,0.02 0.02,0.02 0.01,0.02 0.01,0.02 0.02,0.02 0.01,0.02 0.01,0.02 0,0.01 0.01,0.02 0.01,0.02 0.01,0.02 0,0.01 0.01,0.02 0.01,0.02 0,0.02 0,0.02 0.01,0.01 0,0.02 0,0.02 0,0.02 0.01,0.02 0,0.02 0,0.02 c 0,0.57 -0.43,0.57 -0.99,0.57 l -12.4,0 -0.43,-5.82 1.19,0 c 0.25,3.66 1.05,4.85 5.02,4.85 l 4.12,0 -10.53,-12.72 c -0.31,-0.39 -0.31,-0.53 -0.31,-0.7 0,-0.63 0.34,-0.63 0.97,-0.63 l 12.83,0 0.62,6.77 -1.19,0 c -0.34,-4.08 -1.08,-5.66 -5.42,-5.66 l -4.3,0 z"
           inkscape:connector-curvature="0"
           style="fill:#000000;stroke-width:0" /></g>    </g>
  </g>
</svg>
